<svg width="351" height="38" viewBox="0 0 351 38" fill="none" xmlns="http://www.w3.org/2000/svg">
<rect x="47" y="19" width="19" height="19" transform="rotate(-90 47 19)" fill="#35324B"/>
<rect x="75" y="19" width="19" height="19" transform="rotate(-90 75 19)" fill="#5E6593"/>
<rect x="105" y="19" width="19" height="19" transform="rotate(-90 105 19)" fill="#7986CB"/>
<rect x="135" y="19" width="19" height="19" transform="rotate(-90 135 19)" fill="#BCC3E4"/>
<rect x="165" y="19" width="19" height="19" transform="rotate(-90 165 19)" fill="#F2EDE9"/>
<rect x="195" y="19" width="19" height="19" transform="rotate(-90 195 19)" fill="#C0E3C4"/>
<rect x="225" y="19" width="19" height="19" transform="rotate(-90 225 19)" fill="#81C784"/>
<rect x="255" y="19" width="19" height="19" transform="rotate(-90 255 19)" fill="#659366"/>
<rect x="285" y="19" width="19" height="19" transform="rotate(-90 285 19)" fill="#495E42"/>
<path d="M4.824 19.828H2.352V19.324H4.824V19.828ZM3.276 21.04H2.352V20.584H3.276V21.04ZM3.276 18.136V18.568H2.352V18.136H3.276ZM3.288 17.128H4.704V16.612H7.26V17.128H7.344C7.068 18.016 6.576 18.868 5.94 19.456V18.568H4.44V18.136H6.264V17.296H1.2V21.892H6.324V21.04H4.44V20.584H5.94V19.624C6.252 19.804 6.696 20.116 6.912 20.308C7.2 20.032 7.464 19.696 7.716 19.312H11.22V18.184H8.316C8.424 17.92 8.532 17.656 8.616 17.38L7.404 17.128H8.688V16.612H11.364V15.424H8.688V14.848H7.26V15.424H4.704V14.848H3.288V15.424H0.66V16.612H3.288V17.128ZM10.92 21.544V20.428H7.02V21.544H10.92ZM3.156 23.284H4.272V24.508H3.156V23.284ZM6.6 23.284V24.508H5.46V23.284H6.6ZM8.94 23.284V24.508H7.8V23.284H8.94ZM10.332 24.508V22.252H1.848V24.508H0.576V25.672H11.436V24.508H10.332ZM23.364 15.316C23.196 15.712 22.86 16.264 22.584 16.636L23.448 16.996C23.76 16.672 24.168 16.192 24.576 15.736L23.364 15.316ZM19.764 17.212C20.256 16.816 20.544 16.24 20.748 15.664L19.824 15.316C19.668 15.82 19.332 16.36 18.876 16.66L19.764 17.212ZM18.144 16.936C18.444 16.636 18.816 16.18 19.2 15.724L18.06 15.352C17.892 15.712 17.58 16.24 17.328 16.6L18.144 16.936ZM14.736 15.304C14.568 15.82 14.232 16.36 13.8 16.672L14.664 17.212C15.156 16.828 15.444 16.216 15.636 15.64L14.736 15.304ZM22.176 24.76H16.44V24.112H22.176V24.76ZM17.268 21.124H21.012V21.712H17.268V21.124ZM22.428 22.588V20.26H15.948V22.588H18.432C18.396 22.768 18.348 22.96 18.312 23.128H15.096V26.044H16.44V25.768H22.176V26.032H23.58V23.128H19.716C19.788 22.96 19.872 22.78 19.956 22.588H22.428ZM20.004 18.7C20.748 18.46 21.264 18.148 21.636 17.752C22.2 18.052 22.812 18.4 23.28 18.7H20.004ZM21.204 14.836C21.12 16.54 20.904 17.344 18.804 17.8C19.032 18.004 19.296 18.4 19.44 18.7H15.012C15.672 18.448 16.14 18.136 16.476 17.752C17.004 18.076 17.544 18.448 17.856 18.688L18.72 17.812C18.324 17.536 17.616 17.116 17.028 16.78C17.208 16.24 17.292 15.592 17.328 14.836H16.092C15.996 16.552 15.744 17.416 13.704 17.896C13.884 18.088 14.136 18.412 14.28 18.7H14.064V21.016H15.444V19.78H22.92V21.016H24.36V18.7H23.868L24.492 17.98C23.952 17.632 22.968 17.116 22.2 16.744C22.38 16.204 22.452 15.58 22.488 14.836H21.204ZM33.012 21.064H36.66V19.84H33.012V16.192H31.788V19.84H28.14V21.064H31.788V24.712H33.012V21.064Z" fill="#273A3C"/>
<path d="M318.612 21.064H322.26V19.84H318.612V16.192H317.388V19.84H313.74V21.064H317.388V24.712H318.612V21.064ZM326.004 21.856C325.908 22.864 325.74 23.932 325.392 24.64C325.68 24.748 326.196 24.976 326.436 25.144C326.772 24.376 327.036 23.188 327.144 22.048L326.004 21.856ZM329.136 21.028C329.208 21.292 329.28 21.532 329.316 21.736L330.252 21.304L330.24 21.316C330.72 21.76 331.296 22.396 331.548 22.84L332.544 21.976C332.268 21.544 331.668 20.944 331.176 20.536L330.372 21.208C330.216 20.536 329.772 19.504 329.316 18.7L328.308 19.12C328.44 19.36 328.572 19.624 328.692 19.888L327.648 19.948C328.404 18.988 329.22 17.8 329.88 16.792L328.716 16.252C328.44 16.84 328.056 17.524 327.636 18.196C327.528 18.052 327.396 17.884 327.252 17.728C327.696 17.056 328.188 16.108 328.608 15.28L327.372 14.848C327.18 15.46 326.844 16.264 326.508 16.924C326.412 16.84 326.316 16.756 326.232 16.672L325.536 17.632C326.016 18.124 326.568 18.772 326.904 19.312C326.724 19.564 326.544 19.804 326.364 20.02L325.5 20.068L325.644 21.304L327.312 21.172V26.044H328.536V21.076L329.136 21.028ZM332.292 22.576C331.584 23.032 330.852 23.512 330.24 23.872C330.168 23.296 329.916 22.456 329.64 21.808L328.644 22.108C328.908 22.792 329.136 23.68 329.196 24.268L330.06 23.98C329.892 24.076 329.748 24.16 329.616 24.232L330.312 25.468C331.056 24.916 331.932 24.268 332.724 23.632L332.292 22.576ZM332.196 17.428L332.364 16.804H334.392L334.284 17.428H332.196ZM335.688 20.464C335.412 20.836 334.968 21.292 334.548 21.688C334.344 21.22 334.188 20.74 334.068 20.272H336.672V19.06H335.304C335.52 18.016 335.748 16.828 335.892 15.808L334.92 15.676L334.692 15.736H332.616L332.796 14.98L331.464 14.848C331.224 16.036 330.816 17.596 330.504 18.58L331.824 18.772L331.908 18.496H334.092L333.972 19.06H330.084V20.272H332.76V24.688C332.76 24.82 332.712 24.856 332.568 24.856C332.424 24.868 331.944 24.868 331.524 24.844C331.68 25.192 331.836 25.696 331.884 26.044C332.628 26.044 333.156 26.02 333.552 25.828C333.948 25.636 334.044 25.324 334.044 24.7V23.152C334.5 24.076 335.148 24.94 336.072 25.492C336.252 25.144 336.66 24.58 336.936 24.328C336.156 23.944 335.556 23.368 335.112 22.708C335.628 22.324 336.216 21.796 336.744 21.316L335.688 20.464ZM348.564 15.316C348.396 15.712 348.06 16.264 347.784 16.636L348.648 16.996C348.96 16.672 349.368 16.192 349.776 15.736L348.564 15.316ZM344.964 17.212C345.456 16.816 345.744 16.24 345.948 15.664L345.024 15.316C344.868 15.82 344.532 16.36 344.076 16.66L344.964 17.212ZM343.344 16.936C343.644 16.636 344.016 16.18 344.4 15.724L343.26 15.352C343.092 15.712 342.78 16.24 342.528 16.6L343.344 16.936ZM339.936 15.304C339.768 15.82 339.432 16.36 339 16.672L339.864 17.212C340.356 16.828 340.644 16.216 340.836 15.64L339.936 15.304ZM347.376 24.76H341.64V24.112H347.376V24.76ZM342.468 21.124H346.212V21.712H342.468V21.124ZM347.628 22.588V20.26H341.148V22.588H343.632C343.596 22.768 343.548 22.96 343.512 23.128H340.296V26.044H341.64V25.768H347.376V26.032H348.78V23.128H344.916C344.988 22.96 345.072 22.78 345.156 22.588H347.628ZM345.204 18.7C345.948 18.46 346.464 18.148 346.836 17.752C347.4 18.052 348.012 18.4 348.48 18.7H345.204ZM346.404 14.836C346.32 16.54 346.104 17.344 344.004 17.8C344.232 18.004 344.496 18.4 344.64 18.7H340.212C340.872 18.448 341.34 18.136 341.676 17.752C342.204 18.076 342.744 18.448 343.056 18.688L343.92 17.812C343.524 17.536 342.816 17.116 342.228 16.78C342.408 16.24 342.492 15.592 342.528 14.836H341.292C341.196 16.552 340.944 17.416 338.904 17.896C339.084 18.088 339.336 18.412 339.48 18.7H339.264V21.016H340.644V19.78H348.12V21.016H349.56V18.7H349.068L349.692 17.98C349.152 17.632 348.168 17.116 347.4 16.744C347.58 16.204 347.652 15.58 347.688 14.836H346.404Z" fill="#273A3C"/>
<path d="M49.056 36H48.384V29.628C48.384 29.284 48.384 29.004 48.384 28.788C48.392 28.564 48.4 28.352 48.408 28.152C48.296 28.264 48.188 28.36 48.084 28.44C47.988 28.52 47.864 28.62 47.712 28.74L46.524 29.664L46.152 29.184L48.48 27.432H49.056V36ZM58.6355 31.692C58.6355 33.116 58.4155 34.212 57.9755 34.98C57.5355 35.74 56.8355 36.12 55.8755 36.12C54.9715 36.12 54.2875 35.744 53.8235 34.992C53.3595 34.24 53.1275 33.14 53.1275 31.692C53.1275 30.812 53.2155 30.044 53.3915 29.388C53.5675 28.732 53.8595 28.22 54.2675 27.852C54.6755 27.484 55.2155 27.3 55.8875 27.3C56.5435 27.3 57.0715 27.48 57.4715 27.84C57.8795 28.2 58.1755 28.708 58.3595 29.364C58.5435 30.02 58.6355 30.796 58.6355 31.692ZM53.8115 31.692C53.8115 32.988 53.9755 33.952 54.3035 34.584C54.6395 35.208 55.1635 35.52 55.8755 35.52C56.6115 35.52 57.1395 35.204 57.4595 34.572C57.7795 33.94 57.9395 32.98 57.9395 31.692C57.9395 30.892 57.8755 30.212 57.7475 29.652C57.6275 29.084 57.4155 28.652 57.1115 28.356C56.8155 28.052 56.4075 27.9 55.8875 27.9C55.3675 27.9 54.9555 28.052 54.6515 28.356C54.3555 28.66 54.1395 29.096 54.0035 29.664C53.8755 30.232 53.8115 30.908 53.8115 31.692ZM66.0909 31.692C66.0909 33.116 65.8709 34.212 65.4309 34.98C64.9909 35.74 64.2909 36.12 63.3309 36.12C62.4269 36.12 61.7429 35.744 61.2789 34.992C60.8149 34.24 60.5829 33.14 60.5829 31.692C60.5829 30.812 60.6709 30.044 60.8469 29.388C61.0229 28.732 61.3149 28.22 61.7229 27.852C62.1309 27.484 62.6709 27.3 63.3429 27.3C63.9989 27.3 64.5269 27.48 64.9269 27.84C65.3349 28.2 65.6309 28.708 65.8149 29.364C65.9989 30.02 66.0909 30.796 66.0909 31.692ZM61.2669 31.692C61.2669 32.988 61.4309 33.952 61.7589 34.584C62.0949 35.208 62.6189 35.52 63.3309 35.52C64.0669 35.52 64.5949 35.204 64.9149 34.572C65.2349 33.94 65.3949 32.98 65.3949 31.692C65.3949 30.892 65.3309 30.212 65.2029 29.652C65.0829 29.084 64.8709 28.652 64.5669 28.356C64.2709 28.052 63.8629 27.9 63.3429 27.9C62.8229 27.9 62.4109 28.052 62.1069 28.356C61.8109 28.66 61.5949 29.096 61.4589 29.664C61.3309 30.232 61.2669 30.908 61.2669 31.692Z" fill="#273A3C"/>
<path d="M287.056 36H286.384V29.628C286.384 29.284 286.384 29.004 286.384 28.788C286.392 28.564 286.4 28.352 286.408 28.152C286.296 28.264 286.188 28.36 286.084 28.44C285.988 28.52 285.864 28.62 285.712 28.74L284.524 29.664L284.152 29.184L286.48 27.432H287.056V36ZM296.635 31.692C296.635 33.116 296.415 34.212 295.975 34.98C295.535 35.74 294.835 36.12 293.875 36.12C292.971 36.12 292.287 35.744 291.823 34.992C291.359 34.24 291.127 33.14 291.127 31.692C291.127 30.812 291.215 30.044 291.391 29.388C291.567 28.732 291.859 28.22 292.267 27.852C292.675 27.484 293.215 27.3 293.887 27.3C294.543 27.3 295.071 27.48 295.471 27.84C295.879 28.2 296.175 28.708 296.359 29.364C296.543 30.02 296.635 30.796 296.635 31.692ZM291.811 31.692C291.811 32.988 291.975 33.952 292.303 34.584C292.639 35.208 293.163 35.52 293.875 35.52C294.611 35.52 295.139 35.204 295.459 34.572C295.779 33.94 295.939 32.98 295.939 31.692C295.939 30.892 295.875 30.212 295.747 29.652C295.627 29.084 295.415 28.652 295.111 28.356C294.815 28.052 294.407 27.9 293.887 27.9C293.367 27.9 292.955 28.052 292.651 28.356C292.355 28.66 292.139 29.096 292.003 29.664C291.875 30.232 291.811 30.908 291.811 31.692ZM304.091 31.692C304.091 33.116 303.871 34.212 303.431 34.98C302.991 35.74 302.291 36.12 301.331 36.12C300.427 36.12 299.743 35.744 299.279 34.992C298.815 34.24 298.583 33.14 298.583 31.692C298.583 30.812 298.671 30.044 298.847 29.388C299.023 28.732 299.315 28.22 299.723 27.852C300.131 27.484 300.671 27.3 301.343 27.3C301.999 27.3 302.527 27.48 302.927 27.84C303.335 28.2 303.631 28.708 303.815 29.364C303.999 30.02 304.091 30.796 304.091 31.692ZM299.267 31.692C299.267 32.988 299.431 33.952 299.759 34.584C300.095 35.208 300.619 35.52 301.331 35.52C302.067 35.52 302.595 35.204 302.915 34.572C303.235 33.94 303.395 32.98 303.395 31.692C303.395 30.892 303.331 30.212 303.203 29.652C303.083 29.084 302.871 28.652 302.567 28.356C302.271 28.052 301.863 27.9 301.343 27.9C300.823 27.9 300.411 28.052 300.107 28.356C299.811 28.66 299.595 29.096 299.459 29.664C299.331 30.232 299.267 30.908 299.267 31.692Z" fill="#273A3C"/>
<path d="M78.92 36L82.46 28.056H77.612V27.432H83.204V27.936L79.676 36H78.92ZM87.7555 30.816C88.6195 30.816 89.3035 31.036 89.8075 31.476C90.3195 31.908 90.5755 32.524 90.5755 33.324C90.5755 34.196 90.2955 34.88 89.7355 35.376C89.1755 35.872 88.4195 36.12 87.4675 36.12C87.0115 36.12 86.5955 36.076 86.2195 35.988C85.8515 35.9 85.5395 35.78 85.2835 35.628V34.956C85.5555 35.124 85.8835 35.26 86.2675 35.364C86.6595 35.468 87.0595 35.52 87.4675 35.52C88.1875 35.52 88.7675 35.34 89.2075 34.98C89.6555 34.612 89.8795 34.08 89.8795 33.384C89.8795 32.76 89.6875 32.276 89.3035 31.932C88.9275 31.58 88.3515 31.404 87.5755 31.404C87.2795 31.404 86.9835 31.428 86.6875 31.476C86.3995 31.524 86.1395 31.576 85.9075 31.632L85.5235 31.38L85.8715 27.432H90.0235V28.056H86.4595L86.2075 30.996C86.3755 30.964 86.5875 30.928 86.8435 30.888C87.0995 30.84 87.4035 30.816 87.7555 30.816Z" fill="#273A3C"/>
<path d="M258.92 36L262.46 28.056H257.612V27.432H263.204V27.936L259.676 36H258.92ZM267.755 30.816C268.619 30.816 269.303 31.036 269.807 31.476C270.319 31.908 270.575 32.524 270.575 33.324C270.575 34.196 270.295 34.88 269.735 35.376C269.175 35.872 268.419 36.12 267.467 36.12C267.011 36.12 266.595 36.076 266.219 35.988C265.851 35.9 265.539 35.78 265.283 35.628V34.956C265.555 35.124 265.883 35.26 266.267 35.364C266.659 35.468 267.059 35.52 267.467 35.52C268.187 35.52 268.767 35.34 269.207 34.98C269.655 34.612 269.879 34.08 269.879 33.384C269.879 32.76 269.687 32.276 269.303 31.932C268.927 31.58 268.351 31.404 267.575 31.404C267.279 31.404 266.983 31.428 266.687 31.476C266.399 31.524 266.139 31.576 265.907 31.632L265.523 31.38L265.871 27.432H270.023V28.056H266.459L266.207 30.996C266.375 30.964 266.587 30.928 266.843 30.888C267.099 30.84 267.403 30.816 267.755 30.816Z" fill="#273A3C"/>
<path d="M110.3 30.816C111.164 30.816 111.848 31.036 112.352 31.476C112.864 31.908 113.12 32.524 113.12 33.324C113.12 34.196 112.84 34.88 112.28 35.376C111.72 35.872 110.964 36.12 110.012 36.12C109.556 36.12 109.14 36.076 108.764 35.988C108.396 35.9 108.084 35.78 107.828 35.628V34.956C108.1 35.124 108.428 35.26 108.812 35.364C109.204 35.468 109.604 35.52 110.012 35.52C110.732 35.52 111.312 35.34 111.752 34.98C112.2 34.612 112.424 34.08 112.424 33.384C112.424 32.76 112.232 32.276 111.848 31.932C111.472 31.58 110.896 31.404 110.12 31.404C109.824 31.404 109.528 31.428 109.232 31.476C108.944 31.524 108.684 31.576 108.452 31.632L108.068 31.38L108.416 27.432H112.568V28.056H109.004L108.752 30.996C108.92 30.964 109.132 30.928 109.388 30.888C109.644 30.84 109.948 30.816 110.3 30.816ZM120.635 31.692C120.635 33.116 120.415 34.212 119.975 34.98C119.535 35.74 118.835 36.12 117.875 36.12C116.971 36.12 116.287 35.744 115.823 34.992C115.359 34.24 115.127 33.14 115.127 31.692C115.127 30.812 115.215 30.044 115.391 29.388C115.567 28.732 115.859 28.22 116.267 27.852C116.675 27.484 117.215 27.3 117.887 27.3C118.543 27.3 119.071 27.48 119.471 27.84C119.879 28.2 120.175 28.708 120.359 29.364C120.543 30.02 120.635 30.796 120.635 31.692ZM115.811 31.692C115.811 32.988 115.975 33.952 116.303 34.584C116.639 35.208 117.163 35.52 117.875 35.52C118.611 35.52 119.139 35.204 119.459 34.572C119.779 33.94 119.939 32.98 119.939 31.692C119.939 30.892 119.875 30.212 119.747 29.652C119.627 29.084 119.415 28.652 119.111 28.356C118.815 28.052 118.407 27.9 117.887 27.9C117.367 27.9 116.955 28.052 116.651 28.356C116.355 28.66 116.139 29.096 116.003 29.664C115.875 30.232 115.811 30.908 115.811 31.692Z" fill="#273A3C"/>
<path d="M230.3 30.816C231.164 30.816 231.848 31.036 232.352 31.476C232.864 31.908 233.12 32.524 233.12 33.324C233.12 34.196 232.84 34.88 232.28 35.376C231.72 35.872 230.964 36.12 230.012 36.12C229.556 36.12 229.14 36.076 228.764 35.988C228.396 35.9 228.084 35.78 227.828 35.628V34.956C228.1 35.124 228.428 35.26 228.812 35.364C229.204 35.468 229.604 35.52 230.012 35.52C230.732 35.52 231.312 35.34 231.752 34.98C232.2 34.612 232.424 34.08 232.424 33.384C232.424 32.76 232.232 32.276 231.848 31.932C231.472 31.58 230.896 31.404 230.12 31.404C229.824 31.404 229.528 31.428 229.232 31.476C228.944 31.524 228.684 31.576 228.452 31.632L228.068 31.38L228.416 27.432H232.568V28.056H229.004L228.752 30.996C228.92 30.964 229.132 30.928 229.388 30.888C229.644 30.84 229.948 30.816 230.3 30.816ZM240.635 31.692C240.635 33.116 240.415 34.212 239.975 34.98C239.535 35.74 238.835 36.12 237.875 36.12C236.971 36.12 236.287 35.744 235.823 34.992C235.359 34.24 235.127 33.14 235.127 31.692C235.127 30.812 235.215 30.044 235.391 29.388C235.567 28.732 235.859 28.22 236.267 27.852C236.675 27.484 237.215 27.3 237.887 27.3C238.543 27.3 239.071 27.48 239.471 27.84C239.879 28.2 240.175 28.708 240.359 29.364C240.543 30.02 240.635 30.796 240.635 31.692ZM235.811 31.692C235.811 32.988 235.975 33.952 236.303 34.584C236.639 35.208 237.163 35.52 237.875 35.52C238.611 35.52 239.139 35.204 239.459 34.572C239.779 33.94 239.939 32.98 239.939 31.692C239.939 30.892 239.875 30.212 239.747 29.652C239.627 29.084 239.415 28.652 239.111 28.356C238.815 28.052 238.407 27.9 237.887 27.9C237.367 27.9 236.955 28.052 236.651 28.356C236.355 28.66 236.139 29.096 236.003 29.664C235.875 30.232 235.811 30.908 235.811 31.692Z" fill="#273A3C"/>
<path d="M143.072 36H137.648V35.424L140.108 32.868C140.516 32.444 140.86 32.064 141.14 31.728C141.42 31.392 141.632 31.056 141.776 30.72C141.92 30.384 141.992 30.008 141.992 29.592C141.992 29.056 141.836 28.644 141.524 28.356C141.212 28.06 140.792 27.912 140.264 27.912C139.88 27.912 139.52 27.98 139.184 28.116C138.848 28.252 138.516 28.448 138.188 28.704L137.816 28.224C138.168 27.936 138.552 27.712 138.968 27.552C139.384 27.392 139.816 27.312 140.264 27.312C141 27.312 141.588 27.516 142.028 27.924C142.476 28.332 142.7 28.876 142.7 29.556C142.7 30.02 142.616 30.444 142.448 30.828C142.28 31.212 142.044 31.588 141.74 31.956C141.436 32.324 141.08 32.716 140.672 33.132L138.524 35.34V35.376H143.072V36ZM147.755 30.816C148.619 30.816 149.303 31.036 149.807 31.476C150.319 31.908 150.575 32.524 150.575 33.324C150.575 34.196 150.295 34.88 149.735 35.376C149.175 35.872 148.419 36.12 147.467 36.12C147.011 36.12 146.595 36.076 146.219 35.988C145.851 35.9 145.539 35.78 145.283 35.628V34.956C145.555 35.124 145.883 35.26 146.267 35.364C146.659 35.468 147.059 35.52 147.467 35.52C148.187 35.52 148.767 35.34 149.207 34.98C149.655 34.612 149.879 34.08 149.879 33.384C149.879 32.76 149.687 32.276 149.303 31.932C148.927 31.58 148.351 31.404 147.575 31.404C147.279 31.404 146.983 31.428 146.687 31.476C146.399 31.524 146.139 31.576 145.907 31.632L145.523 31.38L145.871 27.432H150.023V28.056H146.459L146.207 30.996C146.375 30.964 146.587 30.928 146.843 30.888C147.099 30.84 147.403 30.816 147.755 30.816Z" fill="#273A3C"/>
<path d="M204.072 36H198.648V35.424L201.108 32.868C201.516 32.444 201.86 32.064 202.14 31.728C202.42 31.392 202.632 31.056 202.776 30.72C202.92 30.384 202.992 30.008 202.992 29.592C202.992 29.056 202.836 28.644 202.524 28.356C202.212 28.06 201.792 27.912 201.264 27.912C200.88 27.912 200.52 27.98 200.184 28.116C199.848 28.252 199.516 28.448 199.188 28.704L198.816 28.224C199.168 27.936 199.552 27.712 199.968 27.552C200.384 27.392 200.816 27.312 201.264 27.312C202 27.312 202.588 27.516 203.028 27.924C203.476 28.332 203.7 28.876 203.7 29.556C203.7 30.02 203.616 30.444 203.448 30.828C203.28 31.212 203.044 31.588 202.74 31.956C202.436 32.324 202.08 32.716 201.672 33.132L199.524 35.34V35.376H204.072V36ZM208.755 30.816C209.619 30.816 210.303 31.036 210.807 31.476C211.319 31.908 211.575 32.524 211.575 33.324C211.575 34.196 211.295 34.88 210.735 35.376C210.175 35.872 209.419 36.12 208.467 36.12C208.011 36.12 207.595 36.076 207.219 35.988C206.851 35.9 206.539 35.78 206.283 35.628V34.956C206.555 35.124 206.883 35.26 207.267 35.364C207.659 35.468 208.059 35.52 208.467 35.52C209.187 35.52 209.767 35.34 210.207 34.98C210.655 34.612 210.879 34.08 210.879 33.384C210.879 32.76 210.687 32.276 210.303 31.932C209.927 31.58 209.351 31.404 208.575 31.404C208.279 31.404 207.983 31.428 207.687 31.476C207.399 31.524 207.139 31.576 206.907 31.632L206.523 31.38L206.871 27.432H211.023V28.056H207.459L207.207 30.996C207.375 30.964 207.587 30.928 207.843 30.888C208.099 30.84 208.403 30.816 208.755 30.816Z" fill="#273A3C"/>
<path d="M177.36 31.716C177.36 32.636 177.264 33.424 177.072 34.08C176.88 34.736 176.568 35.24 176.136 35.592C175.704 35.944 175.132 36.12 174.42 36.12C173.412 36.12 172.672 35.732 172.2 34.956C171.728 34.172 171.492 33.092 171.492 31.716C171.492 30.788 171.588 29.996 171.78 29.34C171.972 28.684 172.28 28.18 172.704 27.828C173.136 27.476 173.708 27.3 174.42 27.3C175.42 27.3 176.16 27.688 176.64 28.464C177.12 29.24 177.36 30.324 177.36 31.716ZM173.016 31.716C173.016 32.764 173.116 33.552 173.316 34.08C173.524 34.608 173.892 34.872 174.42 34.872C174.94 34.872 175.304 34.612 175.512 34.092C175.728 33.564 175.836 32.772 175.836 31.716C175.836 30.66 175.728 29.868 175.512 29.34C175.304 28.812 174.94 28.548 174.42 28.548C173.892 28.548 173.524 28.812 173.316 29.34C173.116 29.868 173.016 30.66 173.016 31.716Z" fill="#CC9423"/>
</svg>
