<svg width="76" height="428" viewBox="0 0 76 428" fill="none" xmlns="http://www.w3.org/2000/svg">
<path d="M58.8 17.32L58.8 75.56H67.6L67.6 46.44L75.68 46.44L75.68 36.52L67.6 36.52V8.04L45.84 8.04C34.16 8.04 17.44 7.56 6 0.92C5.04 3.08 2.32 7.24 0.72 8.92C13.12 16.12 32.88 17.32 45.76 17.32H58.8ZM40.48 53.96H31.76V38.92H40.48V53.96ZM23.44 63.32H40.48V75.48H48.72V63.32L57.04 63.32V53.96H48.72V38.92H57.04V29.96H48.72V19.32L40.48 19.32V29.96H23.44L23.44 63.32ZM1.04 22.28C5.28 26.68 12.08 29.4 18.16 31.32L21.12 23.32C15.52 21.64 9.44 18.52 5.6 14.44L1.04 22.28ZM17.92 34.52C12.8 35.24 6.24 35.72 2 35.4L2.88 44.28C7.2 44.28 13.68 43.8 18.8 42.76L17.92 34.52ZM17.76 47.16C12.8 49.08 6.24 50.76 2 51.24L4 59.8C8.24 59.16 14.56 57.4 19.44 55.32L17.76 47.16ZM18.16 59.8C12.88 63.32 5.76 67.08 1.12 68.52L4.72 77.24C9.36 75.48 16.08 71.72 21.2 68.04L18.16 59.8ZM37.92 109H45.84V126.44C43.12 126.68 40.48 127 37.92 127.4V109ZM63.28 147.4H54.64L54.64 109H63.28L63.28 147.4ZM29.04 162.76H37.92V137.32C40.48 136.84 43.12 136.52 45.84 136.28V157.08H72.16L72.16 99.24L13.2 99.24C12.8 96.2 12.56 93.32 12.32 90.84L2.4 92.76C3.76 103.16 5.6 117.32 7.44 130.52L16.88 130.2C16 123.16 15.12 115.8 14.24 109H29.04V129.32C12.88 133.72 1.04 142.2 0.959999 152.6C0.959999 159.8 3.92 163.16 17.36 164.52C18.08 162.04 20 158.44 21.92 156.28C13.84 155.88 10.48 155 10.48 153.16C10.4 148.52 18.16 143 29.04 139.56V162.76ZM17.68 189.72H33.36V202.44H17.68L17.68 189.72ZM41.6 202.44V189.72H54.56V202.44H41.6ZM63.44 227.88C66.8 229.08 70.16 230.12 73.6 231L75.68 221.88C66.32 219.56 56.64 215.72 49.92 211.08H62.88L62.88 198.68C66.32 200.04 70.32 201.48 74.32 202.84L75.76 192.44C72 192.12 66.88 191.16 62.88 190.12L62.88 181.08L3.44 181.08V189.72H9.28L9.28 211.08L46.64 211.08C45.2 213.24 43.36 215.96 42.16 217.24C45.6 219.72 50 222.2 54.8 224.28V241.4C26.56 240.52 14.56 239.48 12 237.16C10.96 236.12 10.64 235.24 10.64 233.64C10.64 231.56 10.64 226.84 11.12 221.72C8.48 223.4 4.48 224.68 1.84 224.84C1.68 229.56 1.6 234.36 2 237.4C2.56 240.6 3.44 242.84 6.4 245.08C10.64 248.36 23.36 249.24 59.12 250.28C60.24 250.36 63.44 250.36 63.44 250.36V227.88ZM26.96 237.08C31.6 234.6 39.2 229.32 44.72 225.32L40.48 217.88C34.64 221.8 26.8 226.76 22 229L26.96 237.08ZM46.08 318.36C37.28 324.76 25.04 330.36 16.88 331.96L21.68 341.64C30 339.64 41.68 333.96 50.48 327.16L46.08 318.36ZM47.28 272.6C36.64 271.56 26.32 269.24 19.44 264.52L14.32 273.4C22.16 278.68 34.4 280.76 45.36 281.96L47.28 272.6ZM68.08 287.16C64.48 296.6 58.32 307.72 53.2 313.88L61.6 320.12C66.24 313.8 72.16 302.76 75.52 293.32L68.08 287.16ZM52.96 286.92H14.96C4.96 286.92 1.84 289.72 1.84 299.88V312.92C1.84 322.52 6.56 325.08 21.44 326.12C22.16 323.48 23.84 319.48 25.6 317.24C13.04 316.68 10.56 316.04 10.56 312.12V301.16C10.56 297.4 11.12 296.84 14.96 296.84H52.96L52.96 286.92ZM65.36 369.24V357.96H60.56V388.76H65.36V377.8H67.6V390.92H72.4V377.8H75.76V369.24H72.4L72.4 355.56H67.6L67.6 369.24H65.36ZM30.24 406.04L30.24 375.96H33.04L33.04 406.04H30.24ZM16.32 375.96V406.04H13.68C13.52 395.64 13.36 385.32 13.28 375.96H16.32ZM21.84 406.04V375.96H24.72V406.04H21.84ZM39.6 395.64C40.48 400.2 41.68 404.44 43.36 408.28C41.68 412.04 40.4 416.36 39.6 421.16L39.6 395.64ZM54.4 412.52C53.04 411.24 51.84 409.64 50.72 407.88C51.84 405.96 53.04 404.36 54.4 403.08L54.4 412.52ZM53.92 370.28H50.08L50.08 365.8C51.12 365.96 52.24 365.96 53.2 365.96H53.92L53.92 370.28ZM50.08 381.64V376.92H53.92V381.64H50.08ZM59.76 418.52L59.52 417.08L59.52 398.6C61.92 401.72 64.8 403 67.76 403.4V410.68C64.64 410.76 63.28 411.16 62.24 412.2C61.12 413.24 60.64 415.32 60.64 417V420.52C60.64 421.56 60.8 423.08 61.12 423.96C61.6 425 62.32 425.88 63.28 426.44C64.24 426.84 66.48 427.24 68.56 427.32C69.04 425.64 70.32 423.16 71.44 421.96C69.68 421.88 68.32 421.8 67.76 421.64C67.28 421.48 66.96 421.24 66.88 421C66.72 420.84 66.72 420.44 66.72 420.04V418.76C66.72 418.52 66.8 418.28 66.96 418.12C67.2 417.96 67.76 417.96 68.8 417.96H74V396.28H70C67.36 396.28 64.88 395.4 62.72 389.32C62.16 390.2 60.8 391.56 59.44 392.68H54.4V398.04L53.68 395.48C51.44 397 49.52 398.84 47.76 400.92C46.72 397.56 46 393.8 45.52 389.72C44.08 391 41.52 392.44 39.6 393.24L39.6 362.04C41.36 363.48 43.36 364.36 45.44 365L45.44 388.92H58.56V358.76H53.36C49.92 358.76 45.6 358.2 42 354.2C41.52 355.24 40.56 357 39.6 358.44V355.72H33.04L33.04 366.76H13.12L13.04 355.56L5.52 355.8C5.76 368.6 6.08 387 6.56 406.04H1.04V415.48H6.8L7.04 425.88L14.08 426.44L13.84 415.48H33.04V426.44H39.6V423.4C41.52 424.44 44.08 426.28 45.6 427.72C46 423.24 46.64 419.16 47.68 415.48C50.4 418.92 53.76 421.56 58.08 423.32L59.76 418.52Z" fill="#F2EDE9"/>
</svg>
