<?xml version="1.0" encoding="utf-8"?>
<!-- Generator: Adobe Illustrator 23.1.1, SVG Export Plug-In . SVG Version: 6.00 Build 0)  -->
<svg version="1.1" id="圖層_1" xmlns="http://www.w3.org/2000/svg" xmlns:xlink="http://www.w3.org/1999/xlink" x="0px" y="0px"
	 viewBox="0 0 162.8 175.1" style="enable-background:new 0 0 162.8 175.1;" xml:space="preserve">
<style type="text/css">
	.st0{fill:#FF2600;stroke:#FFFFFF;stroke-width:3;stroke-miterlimit:10;}
	.st1{fill:#273A3C;stroke:#FFFFFF;stroke-width:3;stroke-miterlimit:10;}
	.st2{fill:none;stroke:#CC9423;stroke-width:3;stroke-miterlimit:10;}
	.st3{fill:none;stroke:#FF2600;stroke-width:3;stroke-miterlimit:10;}
	.st4{fill:#FFB74D;}
	.st5{fill:#F2EDE9;stroke:#FFFFFF;stroke-width:3;stroke-miterlimit:10;}
	.st6{fill:#B2ABA1;}
	.st7{fill:#273A3C;}
	.st8{clip-path:url(#SVGID_4_);}
</style>
<g>
	<g>
		
			<ellipse transform="matrix(0.1001 -0.995 0.995 0.1001 -63.5087 202.5042)" class="st0" cx="80.2" cy="136.4" rx="31.1" ry="66.1"/>
	</g>
	<g>
		
			<ellipse transform="matrix(7.462513e-02 -0.9972 0.9972 7.462513e-02 -46.891 195.9651)" class="st1" cx="82.1" cy="123.2" rx="31.1" ry="66.1"/>
	</g>
	<g>
		
			<ellipse transform="matrix(0.9991 -4.276427e-02 4.276427e-02 0.9991 -4.7706 3.5861)" class="st2" cx="81.4" cy="113.3" rx="66.1" ry="31.1"/>
	</g>
	<g>
		
			<ellipse transform="matrix(9.469681e-02 -0.9955 0.9955 9.469681e-02 -28.5142 168.7408)" class="st3" cx="78.5" cy="100" rx="30.3" ry="64.5"/>
		<line class="st3" x1="81.4" y1="69.9" x2="75.7" y2="130.2"/>
		<line class="st3" x1="26.6" y1="114.1" x2="78.5" y2="100"/>
	</g>
	<g>
		<ellipse transform="matrix(0.9917 -0.1283 0.1283 0.9917 -6.8934 10.9272)" class="st4" cx="81.4" cy="59" rx="70" ry="35"/>
		<line class="st4" x1="76.9" y1="24.3" x2="85.9" y2="93.7"/>
		<line class="st4" x1="30" y1="87.7" x2="81.4" y2="59"/>
	</g>
	<g>
		<ellipse transform="matrix(0.9935 -0.114 0.114 0.9935 -4.9635 9.5956)" class="st5" cx="81.4" cy="48.2" rx="70" ry="35"/>
	</g>
	<g>
		<defs>
			
				<ellipse id="SVGID_1_" transform="matrix(0.9959 -9.021906e-02 9.021906e-02 0.9959 -3.8685 7.4492)" cx="80.5" cy="46.5" rx="68.9" ry="33.8"/>
		</defs>
		<clipPath id="SVGID_2_">
			<use xlink:href="#SVGID_1_"  style="overflow:visible;"/>
		</clipPath>
	</g>
	<g>
		<path class="st6" d="M103.9,29.5c5.8-0.2,11.6,0.2,17.2,1.4c0.8,0.2,1.7,0.4,2.3,0.9c0.6,0.5,1,1.2,1.4,1.8c1.2,2,2.3,4.1,3.5,6.1
			c-4.2-1.7-8.5-3.4-12.7-5.2c-1.3-0.5-2.6-1.1-4-1.3c-2.4-0.4-4.9,0.1-7.3-0.1c0,0-0.7-0.2-0.7-1c0-0.6,0.2-1.9,0.2-1.9"/>
	</g>
	<g>
		<g>
			<path class="st6" d="M86.3,29c-1.2,3.9-3,7.7-5.4,11c-1.1,1.4-2.3,2.7-4.2,2.2c-1.5-0.3-2.9-1.2-4.3-1.8c-2.7-1.1-5.8-1-7.5,1.7
				c-1.4,2.3-1.1,5.5,0.4,7.6c2.4,3.3,6.7,4,10.5,4.3c1.6,0.1,1.6-2.4,0-2.5c-2.9-0.2-6.8-0.7-8.6-3.3c-1.1-1.6-1.2-4.8,0.8-5.8
				c1.2-0.6,2.5-0.1,3.6,0.4c1.3,0.6,2.6,1.4,4,1.7c3.4,0.9,5.7-1,7.6-3.7c2.4-3.4,4.2-7.3,5.4-11.3C89.2,28.2,86.8,27.5,86.3,29
				L86.3,29z"/>
		</g>
	</g>
	<g>
		<g>
			<path class="st7" d="M103.2,43.6c0.1,0,0.3,0,0.4,0c0.2,0-0.2,0,0,0c0.1,0,0.2,0,0.3,0c0.3,0.1,0.6,0.1,1,0.2
				c0.7,0.1,1.5,0.3,2.2,0.5c0.7,0.2,1.4,0.4,2.1,0.7c0.2,0.1,0.3,0.1,0.5,0.2c0,0,0.2,0.1,0.1,0c-0.1-0.1,0.1,0,0.1,0
				c0.3,0.1,0.6,0.3,0.9,0.4c0-0.7,0-1.4,0-2.2c-0.2,0.1-0.3,0.2-0.5,0.3c0,0-0.3,0.2-0.2,0.1c0.2-0.1-0.1,0-0.1,0
				c-0.2,0.1-0.4,0.1-0.5,0.2c-0.1,0-0.2,0-0.2,0.1c-0.1,0-0.4,0-0.1,0c-0.4,0-0.7,0-1.1,0c0,0-0.3,0-0.1,0c0.2,0-0.1,0-0.2,0
				c-0.2,0-0.4-0.1-0.5-0.1c-0.2,0-0.3-0.1-0.5-0.2c-0.3-0.1,0.2,0.1-0.1,0c-0.1,0-0.2-0.1-0.3-0.1c-0.1-0.1-0.3-0.2-0.4-0.3
				c-0.1-0.1-0.2-0.1-0.3-0.2c-0.1,0-0.3-0.2-0.1,0c-0.3-0.2-0.5-0.5-0.7-0.7c-0.1-0.1,0.1,0.2,0,0c-0.1-0.1-0.1-0.2-0.2-0.3
				c-0.1-0.2-0.2-0.4-0.3-0.5c-0.3-0.6-1.2-0.8-1.7-0.4c-0.6,0.4-0.7,1.1-0.4,1.7c1.6,3.5,6.6,4.9,9.8,2.8c0.8-0.5,0.9-1.7,0-2.2
				c-1.3-0.7-2.8-1.2-4.3-1.6c-1.5-0.4-3-0.7-4.5-0.9c-0.7-0.1-1.3,0.6-1.2,1.2C102,43.1,102.5,43.6,103.2,43.6L103.2,43.6z"/>
		</g>
	</g>
	<g>
		<g>
			<path class="st7" d="M63.8,33.2c-1.3-0.5-2.7-0.9-4.1-1.3c-1.5-0.3-3-0.6-4.5-0.6c-1,0-1.5,1-1.1,1.9c1.9,3.4,6.9,4.6,10,2.2
				c0.5-0.4,0.8-1.1,0.4-1.7c-0.3-0.5-1.2-0.9-1.7-0.4c-0.3,0.2-0.6,0.4-1,0.6c0.2-0.1,0.1,0,0,0c-0.1,0-0.2,0.1-0.2,0.1
				c-0.2,0.1-0.4,0.1-0.5,0.1c-0.1,0-0.2,0-0.3,0c0.3-0.1,0,0-0.1,0c-0.2,0-0.3,0-0.5,0c-0.2,0-0.4,0-0.6,0c-0.2,0,0.2,0,0,0
				c-0.1,0-0.2,0-0.3-0.1c-0.2,0-0.3-0.1-0.5-0.1c-0.1,0-0.2-0.1-0.3-0.1c0,0-0.3-0.1-0.1-0.1c0.2,0.1-0.1,0-0.1-0.1
				c-0.1,0-0.2-0.1-0.3-0.1c-0.2-0.1-0.3-0.2-0.4-0.3c-0.1-0.1-0.2-0.1-0.3-0.2c0.1,0.1,0.1,0,0,0c-0.1-0.1-0.3-0.3-0.4-0.4
				c-0.1-0.1-0.1-0.1-0.2-0.2c-0.1-0.1,0.1,0.2,0,0c-0.1-0.2-0.2-0.3-0.3-0.5c-0.4,0.6-0.7,1.3-1.1,1.9c0.3,0,0.6,0,0.9,0
				c0.2,0,0.3,0,0.5,0c0.1,0,0.2,0,0.2,0c0,0,0.3,0,0.2,0c-0.1,0,0.1,0,0.1,0c0.1,0,0.2,0,0.3,0c0.2,0,0.3,0.1,0.5,0.1
				c0.4,0.1,0.8,0.1,1.1,0.2c1.4,0.3,2.7,0.7,4,1.2c0.6,0.2,1.4-0.3,1.5-0.9C64.9,34,64.5,33.4,63.8,33.2L63.8,33.2z"/>
		</g>
	</g>
	<g>
		<g>
			<path class="st6" d="M31.3,64c5.6-5.9,12.4-10.5,20-13.5c1.5-0.6,0.8-3-0.7-2.4c-8,3.1-15.2,7.9-21.1,14.1
				C28.4,63.4,30.2,65.2,31.3,64L31.3,64z"/>
		</g>
	</g>
	<g>
		<g>
			<path class="st6" d="M85.4,54.8c-0.7,6.9-2.2,13.7-4.5,20.2c-0.5,1.5,1.9,2.2,2.4,0.7c2.4-6.8,3.9-13.8,4.6-20.9
				C88,53.2,85.5,53.2,85.4,54.8L85.4,54.8z"/>
		</g>
	</g>
	<g>
		<g>
			<path class="st6" d="M49.5,60.2c3.9,7.7,13.5,7.9,21,7.5c1.6-0.1,1.6-2.6,0-2.5c-6.5,0.3-15.3,0.6-18.8-6.3
				C50.9,57.5,48.8,58.7,49.5,60.2L49.5,60.2z"/>
		</g>
	</g>
	<g>
		<g>
			<path class="st6" d="M80.1,16.6c-8.3-0.8-17.7,0.1-25.2,3.4s-14.1,7.5-21.1,11.4c-1.9,1-3.2,1.3-6.2,1.5c-0.1,0-0.9-1.7-0.9-1.7
				c0.3-4.6,4.9-8.2,9.2-11.1C46.9,12.5,52.7,8.1,66.8,7.2c2-0.1,4.6,0.3,6.6,0.7c3.8,0.9,9.2,5,9.2,5"/>
		</g>
		<g>
			<defs>
				<ellipse id="SVGID_3_" transform="matrix(0.9935 -0.114 0.114 0.9935 -4.9635 9.5956)" cx="81.4" cy="48.2" rx="70" ry="35"/>
			</defs>
			<clipPath id="SVGID_4_">
				<use xlink:href="#SVGID_3_"  style="overflow:visible;"/>
			</clipPath>
			<g class="st8">
				<path class="st6" d="M81.8,16.8c13.1-1.6,22.2-1.8,35.3,2.3c6,1.9,11.8,3.2,16.7,6.8c2.2,1.6,4.3,2.9,5.5,5.2
					c1.5,2.8,2.3,5.1,1.9,8.2c-0.9,6.7-3.6,13.2-7,19.2c-0.3,0.5-0.5,1-0.5,1.5l4.8,1c6-3.7,10-10.2,11.7-16.6
					c1.7-6.5,0.7-13.5-2.8-19.4c-4-6.8-11.1-11.7-18.9-14.5s-16.2-3.9-24.6-4.2c-4.3-0.2-8.7-0.2-13,0c-2.5,0.1-5,0.3-7.2,1.2
					s-3.8,0.3-3.9,2.5c0,0-3.9-2.2-7-2.4c-1.9-0.2-4.3-1.1-6.2-1.1c-13.3,0.3-20.9,1.7-31.5,9.1c-4.3,3-8.7,6.7-9.2,11.6
					c-0.2,2,0.6,4.3,2.6,5.1c2,0.8,4.1-0.3,6-1.3c6.8-3.8,13.2-8.1,20.4-11.3s16.1-3.7,23.9-2.4"/>
			</g>
		</g>
	</g>
</g>
</svg>
