<svg width="147" height="265" viewBox="0 0 147 265" fill="none" xmlns="http://www.w3.org/2000/svg">
<path d="M3.73047 34.5938V235.251" stroke="#273A3C" stroke-width="2" stroke-miterlimit="10"/>
<path d="M73.9433 63.202C113.801 63.202 146.111 49.2995 146.111 32.1499C146.111 15.0002 113.801 1.09766 73.9433 1.09766C34.0861 1.09766 1.77539 15.0002 1.77539 32.1499C1.77539 49.2995 34.0861 63.202 73.9433 63.202Z" fill="#273A3C" stroke="white" stroke-width="2" stroke-miterlimit="10"/>
<path d="M73.9433 264.266C113.801 264.266 146.111 250.364 146.111 233.214C146.111 216.065 113.801 202.162 73.9433 202.162C34.0861 202.162 1.77539 216.065 1.77539 233.214C1.77539 250.364 34.0861 264.266 73.9433 264.266Z" fill="#273A3C" stroke="white" stroke-width="2" stroke-miterlimit="10"/>
<path d="M100.606 32.3933L44.0801 30.5187L47.9018 24.0801L104.427 25.9546L100.606 32.3933Z" fill="white"/>
<path d="M144.244 34.5938V235.251" stroke="#273A3C" stroke-width="2" stroke-miterlimit="10"/>
</svg>
