<svg width="695" height="659" viewBox="0 0 695 659" fill="none" xmlns="http://www.w3.org/2000/svg">
<rect x="11" width="684" height="659" fill="#E9F2F2"/>
<path d="M602.5 331.5C602.5 464.069 496.595 571.5 366 571.5C235.405 571.5 129.5 464.069 129.5 331.5C129.5 198.931 235.405 91.5 366 91.5C496.595 91.5 602.5 198.931 602.5 331.5Z" fill="#CC9423" stroke="#CC9423" stroke-width="3"/>
<path fill-rule="evenodd" clip-rule="evenodd" d="M366 1H0V659H366V573C234.556 573 128 464.877 128 331.5C128 198.123 234.556 90 366 90V1ZM366 93C236.254 93 131 199.739 131 331.5C131 463.261 236.254 570 366 570V93Z" fill="#273A3C"/>
</svg>
