<svg width="543" height="249" viewBox="0 0 543 249" fill="none" xmlns="http://www.w3.org/2000/svg">
<rect x="-16" width="570" height="249" fill="#E9F2F2"/>
<path d="M369.5 123.5C369.5 176.541 327.169 219.5 275 219.5C222.831 219.5 180.5 176.541 180.5 123.5C180.5 70.4587 222.831 27.5 275 27.5C327.169 27.5 369.5 70.4587 369.5 123.5Z" fill="#CC9423" stroke="#CC9423" stroke-width="3"/>
<rect x="-9" width="551" height="123" fill="#273A3C"/>
<path d="M369.5 123.5C369.5 176.541 327.169 219.5 275 219.5C222.831 219.5 180.5 176.541 180.5 123.5C180.5 70.4587 222.831 27.5 275 27.5C327.169 27.5 369.5 70.4587 369.5 123.5Z" stroke="#CC9423" stroke-width="3"/>
</svg>
