<?xml version="1.0" encoding="utf-8"?>
<!-- Generator: Adobe Illustrator 23.1.1, SVG Export Plug-In . SVG Version: 6.00 Build 0)  -->
<svg version="1.1" id="圖層_1" xmlns="http://www.w3.org/2000/svg" xmlns:xlink="http://www.w3.org/1999/xlink" x="0px" y="0px"
	 viewBox="0 0 251.2 533.1" style="enable-background:new 0 0 251.2 533.1;" xml:space="preserve">
<style type="text/css">
	.st0{fill:#273A3C;stroke:#FFFFFF;stroke-width:2;stroke-miterlimit:10;}
	.st1{fill:#CC9423;stroke:#FFFFFF;stroke-width:2;stroke-miterlimit:10;}
	.st2{fill:#CC9423;stroke:#E50012;stroke-width:3;stroke-miterlimit:10;}
	.st3{fill:none;stroke:#FF2600;stroke-width:3;stroke-miterlimit:10;}
	.st4{fill:#FF2600;}
	.st5{fill:#CC9423;stroke:#FFFFFF;stroke-width:3;stroke-miterlimit:10;}
	.st6{fill:#273A3C;stroke:#FFFFFF;stroke-width:3;stroke-miterlimit:10;}
</style>
<g>
	<ellipse class="st0" cx="125.5" cy="478.7" rx="81.2" ry="38.1"/>
</g>
<g>
	<ellipse class="st1" cx="125.5" cy="460.1" rx="81.2" ry="38.1"/>
</g>
<g>
	<ellipse class="st2" cx="125.5" cy="440.5" rx="81.2" ry="38.1"/>
</g>
<g>
	<ellipse class="st0" cx="125.5" cy="376.2" rx="81.2" ry="38.1"/>
	<path class="st0" d="M125.5,376.2"/>
	<path class="st0" d="M62.2,400"/>
</g>
<g>
	<ellipse class="st3" cx="126.1" cy="349.8" rx="81.2" ry="38.1"/>
	<line class="st3" x1="126.1" y1="311.7" x2="126.1" y2="387.8"/>
	<line class="st3" x1="62.7" y1="373.6" x2="126.1" y2="349.8"/>
</g>
<g>
	<ellipse class="st4" cx="127.6" cy="282.3" rx="81.2" ry="38.1"/>
</g>
<g>
	
		<ellipse transform="matrix(0.1453 -0.9894 0.9894 0.1453 -125.7573 381.2664)" class="st5" cx="157.8" cy="263.4" rx="38.1" ry="81.1"/>
</g>
<g>
	
		<ellipse transform="matrix(0.1453 -0.9894 0.9894 0.1453 -113.6438 370.8024)" class="st3" cx="157.8" cy="251.2" rx="38.1" ry="81.1"/>
</g>
<g>
	<ellipse class="st4" cx="112.1" cy="186.6" rx="81.2" ry="38.1"/>
</g>
<g>
	
		<ellipse transform="matrix(0.1453 -0.9894 0.9894 0.1453 -93.4482 237.5923)" class="st6" cx="90.8" cy="172.9" rx="38.1" ry="81.1"/>
</g>
<g>
	
		<ellipse transform="matrix(0.1453 -0.9894 0.9894 0.1453 -81.3347 227.1283)" class="st3" cx="90.8" cy="160.6" rx="38.1" ry="81.1"/>
</g>
<g>
	
		<ellipse transform="matrix(0.9947 -0.1029 0.1029 0.9947 -11.2398 14.4283)" class="st0" cx="134.2" cy="116.2" rx="81.1" ry="38.1"/>
	<line class="st0" x1="129.6" y1="78.3" x2="138.9" y2="154"/>
	<line class="st0" x1="74.2" y1="146.6" x2="134.2" y2="116.2"/>
</g>
<g>
	
		<ellipse transform="matrix(9.469681e-02 -0.9955 0.9955 9.469681e-02 91.6973 205.383)" class="st3" cx="158.8" cy="52.3" rx="38.1" ry="81.2"/>
	<line class="st3" x1="162.4" y1="14.4" x2="155.2" y2="90.2"/>
	<line class="st3" x1="93.4" y1="70" x2="158.8" y2="52.3"/>
</g>
</svg>
