<svg width="116" height="100" viewBox="0 0 116 100" fill="none" xmlns="http://www.w3.org/2000/svg">
<path d="M107.612 24.888C106.784 24.06 105.128 23.088 103.724 22.44L102.464 23.772C103.868 24.384 105.524 25.5 106.316 26.292L107.612 24.888ZM98 39.432C93.968 40.152 89.972 40.872 87.236 41.304L87.596 43.32C90.548 42.78 94.364 42.024 98.108 41.304L98 39.432ZM94.868 36.264H90.728V32.664H94.868V36.264ZM88.856 30.972V37.956H96.812V30.972H88.856ZM104.84 30.36C104.228 32.808 103.328 35.04 102.176 36.984C101.564 34.68 101.132 31.8 100.844 28.704H108.512V26.688H100.664C100.592 25.428 100.52 24.168 100.448 22.872H98.144C98.216 24.168 98.324 25.428 98.432 26.688H87.596V28.704H98.612C99.008 32.772 99.62 36.48 100.592 39.36C99.08 41.232 97.28 42.816 95.156 44.04C95.624 44.436 96.416 45.3 96.74 45.732C98.504 44.58 100.088 43.212 101.492 41.592C102.464 43.5 103.688 44.76 105.236 45.084C107.108 45.804 108.332 44.364 108.8 40.44C108.296 40.224 107.504 39.684 107.072 39.252C106.82 41.556 106.46 43.104 105.956 42.96C104.768 42.78 103.796 41.556 103.04 39.648C104.768 37.164 106.136 34.212 107.036 30.828L104.84 30.36ZM85.616 46.776V21.972H110.312V46.776H85.616ZM83.06 19.524V50.844H85.616V49.188H110.312V50.844H112.94V19.524H83.06ZM91.484 77.592C90.296 77.952 89.108 78.276 87.956 78.636V69.312H91.628V66.936H87.956V58.944H91.808V56.532H81.584V58.944H85.58V66.936H81.836V69.312H85.58V79.356C83.924 79.824 82.412 80.292 81.152 80.616L81.692 83.064C84.644 82.164 88.28 81.012 91.772 79.896L91.484 77.592ZM95.516 77.268C95.588 76.44 95.588 75.612 95.588 74.892V74.316H100.448V77.268H95.516ZM100.448 69.456V72.264H95.588V69.456H100.448ZM102.644 67.296H93.32V74.856C93.32 78.096 93.14 82.272 91.232 85.368C91.772 85.62 92.708 86.376 93.104 86.808C94.436 84.612 95.084 81.876 95.372 79.284H100.448V83.892C100.448 84.324 100.34 84.432 99.944 84.432C99.584 84.468 98.36 84.468 96.92 84.396C97.244 85.044 97.496 85.98 97.568 86.628C99.512 86.628 100.808 86.592 101.6 86.196C102.428 85.8 102.644 85.152 102.644 83.964V67.296ZM110.132 83.856C110.132 84.252 109.988 84.36 109.556 84.396C109.124 84.396 107.72 84.396 106.1 84.36C106.424 85.044 106.748 85.944 106.82 86.592C108.944 86.592 110.312 86.556 111.176 86.16C112.004 85.8 112.256 85.152 112.256 83.856V66.612H110.132V83.856ZM107.144 67.908H105.056V80.832H107.144V67.908ZM102.752 53.724C100.34 57.36 95.444 60.996 91.052 62.724C91.592 63.228 92.42 64.128 92.816 64.776C93.752 64.344 94.724 63.84 95.66 63.264V64.992H109.052V62.796H96.416C98.684 61.32 100.88 59.484 102.716 57.504C105.524 60.312 109.628 63.084 113.012 64.524C113.372 63.876 114.128 63.012 114.704 62.508C111.104 61.176 106.676 58.476 104.156 55.812C104.408 55.416 104.696 55.056 104.948 54.696L102.752 53.724Z" fill="#273A3C"/>
<path d="M63.28 25.96V30.52H55.2C55.52 29.08 55.84 27.56 56.16 25.96H63.28ZM77.44 30.52H71.52V19.16H57.36C57.68 17.32 58 15.48 58.24 13.8L49.44 13.24C49.2 15.08 48.88 17.08 48.56 19.16H40.96V25.96H47.36C47.04 27.56 46.72 29.08 46.4 30.52H37.2V37.8H77.44V30.52ZM49.2 71.48V67H55.52V71.48H49.2ZM13.76 50.76H26.88V55.4H13.76V50.76ZM13.76 40.2H26.88V44.84H13.76V40.2ZM49.36 46.44H64.4V51.32H49.36V46.44ZM77.52 71.48H64.4V67H74.64V60.52H64.4V57.4H73.68V40.36H40.56V57.4H55.52V60.52H41.2V71.48H37.36V66.76H25.04V62.12H35.6V33.48H25.04V28.84H37.04V20.52H25.04V13.24H15.84V20.52H3.6V28.84H15.84V33.48H5.44V62.12H15.84V66.76H2.88V75.16H15.84V87.8H25.04V75.16H37.04V78.76H55.52V87.8H64.4V78.76H77.52V71.48Z" fill="#273A3C"/>
</svg>
