<?xml version="1.0" encoding="utf-8"?>
<!-- Generator: Adobe Illustrator 23.1.1, SVG Export Plug-In . SVG Version: 6.00 Build 0)  -->
<svg version="1.1" id="圖層_1" xmlns="http://www.w3.org/2000/svg" xmlns:xlink="http://www.w3.org/1999/xlink" x="0px" y="0px"
	 viewBox="0 0 162.8 175.1" style="enable-background:new 0 0 162.8 175.1;" xml:space="preserve">
<style type="text/css">
	.st0{fill:#FF2600;stroke:#FFFFFF;stroke-width:3;stroke-miterlimit:10;}
	.st1{fill:#273A3C;stroke:#FFFFFF;stroke-width:3;stroke-miterlimit:10;}
	.st2{fill:none;stroke:#CC9423;stroke-width:3;stroke-miterlimit:10;}
	.st3{fill:none;stroke:#FF2600;stroke-width:3;stroke-miterlimit:10;}
	.st4{fill:#7986CB;}
	.st5{fill:#F2EDE9;stroke:#FFFFFF;stroke-width:3;stroke-miterlimit:10;}
	.st6{fill:#273A3C;}
	.st7{fill:#B2ABA1;}
</style>
<g>
	<g>
		
			<ellipse transform="matrix(0.9932 -0.1165 0.1165 0.9932 -15.0215 10.8738)" class="st0" cx="85.5" cy="134" rx="65.8" ry="30.9"/>
	</g>
	<g>
		
			<ellipse transform="matrix(0.9918 -0.1279 0.1279 0.9918 -14.6473 11.8444)" class="st1" cx="84.9" cy="120" rx="65.8" ry="30.9"/>
	</g>
	<g>
		
			<ellipse transform="matrix(1.942561e-03 -1 1 1.942561e-03 -25.3687 194.6453)" class="st2" cx="84.8" cy="110" rx="30.9" ry="65.8"/>
	</g>
	<g>
		
			<ellipse transform="matrix(0.9955 -9.439644e-02 9.439644e-02 0.9955 -8.7225 7.3358)" class="st3" cx="73.2" cy="95.9" rx="64.3" ry="30.1"/>
		<line class="st3" x1="70.3" y1="65.9" x2="76" y2="125.9"/>
		<line class="st3" x1="25" y1="119.4" x2="73.2" y2="95.9"/>
	</g>
	<g>
		
			<ellipse transform="matrix(0.9993 -3.698131e-02 3.698131e-02 0.9993 -2.0759 3.0753)" class="st4" cx="82.1" cy="57.7" rx="70" ry="35"/>
		<line class="st4" x1="80.8" y1="22.7" x2="83.4" y2="92.6"/>
		<line class="st4" x1="28.3" y1="81.6" x2="82.1" y2="57.7"/>
	</g>
	<g>
		
			<ellipse transform="matrix(0.9967 -8.134483e-02 8.134483e-02 0.9967 -3.3679 6.9689)" class="st5" cx="83.8" cy="44.8" rx="70" ry="35"/>
	</g>
	
		<ellipse transform="matrix(0.9963 -8.587871e-02 8.587871e-02 0.9963 -2.6994 4.963)" class="st6" cx="56.3" cy="33.9" rx="5.7" ry="2.1"/>
	<ellipse transform="matrix(0.125 -0.9922 0.9922 0.125 60.0145 142.3395)" class="st6" cx="110.7" cy="37.1" rx="2.1" ry="5.7"/>
	<g>
		<g>
			<path class="st7" d="M83.8,31.9c-0.2,3.2-1,6.5-2.7,9.3c-0.4,0.6-0.4,0.6-0.9,0.2c-0.5-0.4-0.9-0.9-1.5-1.2
				c-0.9-0.6-2.1-0.9-3.2-0.8c-2.2,0-4.5,1.1-5.8,3c-1.4,2-1.3,4.8,0,6.8c1.6,2.4,4.5,3.8,7.4,3c1.5-0.5,0.9-2.9-0.7-2.4
				c-2,0.6-4.1-0.7-5-2.5c-0.8-1.8,0-3.7,1.6-4.6c1.5-0.9,3.5-1,4.9,0.3c0.9,0.8,1.9,1.7,3.2,1.4c1.3-0.3,2-1.5,2.5-2.6
				c1.5-3,2.4-6.3,2.5-9.7C86.4,30.3,83.9,30.3,83.8,31.9L83.8,31.9z"/>
		</g>
	</g>
	<g>
		<g>
			<path class="st7" d="M61,65.8c11,5.7,24.5,5.8,35.6,0.3c1.4-0.7,0.2-2.9-1.3-2.2c-10.3,5.1-22.9,5-33.1-0.3
				C60.8,62.9,59.5,65,61,65.8L61,65.8z"/>
		</g>
	</g>
	<g>
		<g>
			<path class="st7" d="M106.7,24.8c0.2-0.7,0.5-1.5,0.9-2.2c0.4-0.6,0.6-0.7,1.3-0.6c1.8,0.3,3.6,0.8,5.4,1.2
				c3.5,0.8,7.1,1.4,10.4,2.9c0.2-0.8,0.4-1.6,0.6-2.3c-6.6-0.1-13.2-0.2-19.8-0.2c0.4,0.5,0.8,1.1,1.2,1.6c0.4-1.2,1.6-1.2,2.6-1
				c1.9,0.3,3.7,0.9,5.4,1.6c1.5,0.6,2.2-1.8,0.7-2.4c-3.3-1.3-9.5-3.6-11.1,1.2c-0.3,0.8,0.4,1.6,1.2,1.6
				c6.6,0.1,13.2,0.2,19.8,0.2c1.2,0,1.8-1.8,0.6-2.3c-4.1-1.8-8.5-2.6-12.8-3.6c-1.1-0.2-2.2-0.5-3.3-0.7c-0.9-0.2-1.9-0.3-2.8,0.1
				c-1.5,0.8-2.2,2.8-2.7,4.4C103.8,25.6,106.2,26.3,106.7,24.8L106.7,24.8z"/>
		</g>
	</g>
	<g>
		<g>
			<path class="st7" d="M36.8,37.4c2.5,0.2,5,0,7.5-0.4c0.6-0.1,1.1-0.9,0.9-1.5c-0.2-0.7-0.8-1-1.5-0.9c-0.3,0.1-0.6,0.1-0.9,0.1
				c0,0-0.4,0.1-0.3,0c-0.1,0-0.3,0-0.4,0c-0.6,0.1-1.1,0.1-1.7,0.1c-1.2,0.1-2.3,0-3.5,0c-0.7,0-1.3,0.6-1.2,1.2
				C35.5,36.9,36.1,37.4,36.8,37.4L36.8,37.4z"/>
		</g>
	</g>
	<g>
		<g>
			<path class="st7" d="M38.4,33.3c2-0.1,4-0.1,6,0.2c0.7,0.1,1.3-0.6,1.2-1.2c0-0.8-0.6-1.2-1.2-1.2c-2-0.3-4-0.3-6-0.2
				c-0.7,0-1.3,0.5-1.2,1.2C37.1,32.7,37.7,33.4,38.4,33.3L38.4,33.3z"/>
		</g>
	</g>
	<g>
		<g>
			<path class="st7" d="M41.8,29c2.1,0.7,4.1,1.5,6.2,2.2c0.6,0.2,1.4-0.2,1.5-0.9c0.2-0.7-0.2-1.3-0.9-1.5
				c-2.1-0.7-4.1-1.5-6.2-2.2c-0.6-0.2-1.4,0.2-1.5,0.9C40.7,28.1,41.1,28.7,41.8,29L41.8,29z"/>
		</g>
	</g>
	<g>
		<g>
			<path class="st7" d="M133,43c-1.1-0.3-2.2-0.7-3.3-1.1c-0.1-0.1-0.1-0.1,0,0c-0.1,0-0.1,0-0.2-0.1c-0.1-0.1-0.3-0.1-0.4-0.2
				c-0.3-0.1-0.5-0.2-0.8-0.4c-0.5-0.3-1.1-0.6-1.6-0.9c-0.6-0.3-1.4-0.2-1.7,0.4c-0.3,0.6-0.2,1.4,0.4,1.7c2.2,1.2,4.5,2.2,6.9,2.9
				c0.6,0.2,1.4-0.2,1.5-0.9C134,43.9,133.7,43.2,133,43L133,43z"/>
		</g>
	</g>
	<g>
		<g>
			<path class="st7" d="M133.1,38.7c-1.9-0.8-3.9-1.5-6-1.9c-0.6-0.1-1.4,0.2-1.5,0.9c-0.1,0.6,0.2,1.4,0.9,1.5
				c1,0.2,1.9,0.4,2.9,0.7c0.5,0.1,0.9,0.3,1.4,0.5c0.2,0.1,0.5,0.2,0.7,0.3c0.1,0,0.2,0.1,0.3,0.1c0.1,0,0.1,0.1,0.2,0.1
				c-0.1-0.1-0.1-0.1,0,0c0.3,0.1,0.6,0.2,1,0.1c0.3-0.1,0.6-0.3,0.7-0.6C133.9,39.9,133.8,39,133.1,38.7L133.1,38.7z"/>
		</g>
	</g>
	<g>
		<g>
			<path class="st7" d="M130.4,33.3c-2.2,0-4.4,0-6.6,0c-0.7,0-1.3,0.6-1.2,1.2c0,0.7,0.5,1.3,1.2,1.2c2.2,0,4.4,0,6.6,0
				c0.7,0,1.3-0.6,1.2-1.2C131.6,33.9,131.1,33.3,130.4,33.3L130.4,33.3z"/>
		</g>
	</g>
	<g>
		<g>
			<path class="st7" d="M51.3,48.6c-2.5,3.1-5.2,6.5-5.9,10.5c-0.6,3.4,0.2,7.3,3,9.5c1.2,1,3-0.8,1.8-1.8c-2.3-1.8-2.9-4.9-2.2-7.6
				c0.8-3.4,3-6.2,5.2-8.9C54.1,49.1,52.3,47.3,51.3,48.6L51.3,48.6z"/>
		</g>
	</g>
</g>
</svg>
