<svg width="116" height="100" viewBox="0 0 116 100" fill="none" xmlns="http://www.w3.org/2000/svg">
<path d="M104.228 31.232H106.82V24.572C108.764 26.372 111.464 29.108 112.508 30.296L113.984 28.352C112.976 27.38 108.764 23.816 106.964 22.484H113.228V20.18H106.82V16.904H104.228V20.18H98.216V22.484H103.256C101.6 24.896 99.044 27.236 96.74 28.46C97.244 28.892 98.036 29.756 98.468 30.332C100.448 29.036 102.608 26.768 104.228 24.356V31.232ZM88.928 31.34H91.556V24.536C92.852 25.724 94.544 27.38 95.192 28.208L96.668 26.228C95.876 25.544 92.744 23.24 91.592 22.484H96.632V20.18H91.556V16.94H88.928V20.18H82.736V22.484H88.028C86.372 24.932 83.96 27.272 81.656 28.496C82.232 28.928 82.988 29.792 83.384 30.368C85.292 29.072 87.344 26.876 88.928 24.572V31.34ZM99.188 41.708H109.376V39.296H99.188V35.012H109.844C109.376 36.128 108.836 37.244 108.332 38.072L110.708 38.612C111.608 37.208 112.652 34.976 113.48 32.96L111.536 32.456L111.104 32.564H82.88V35.012H96.524V46.1C93.608 45.272 91.592 43.544 90.368 40.088C90.692 38.936 90.872 37.82 91.052 36.668H88.316C87.74 40.736 86.408 45.38 81.548 47.792C82.16 48.224 82.916 49.196 83.24 49.844C86.264 48.224 88.064 45.956 89.252 43.4C91.88 48.152 95.984 49.304 102.932 49.304H113.552C113.696 48.512 114.128 47.396 114.524 46.748C112.652 46.784 104.372 46.82 103.004 46.784C101.636 46.784 100.34 46.748 99.188 46.604V41.708ZM91.484 76.592C90.296 76.952 89.108 77.276 87.956 77.636V68.312H91.628V65.936H87.956V57.944H91.808V55.532H81.584V57.944H85.58V65.936H81.836V68.312H85.58V78.356C83.924 78.824 82.412 79.292 81.152 79.616L81.692 82.064C84.644 81.164 88.28 80.012 91.772 78.896L91.484 76.592ZM95.516 76.268C95.588 75.44 95.588 74.612 95.588 73.892V73.316H100.448V76.268H95.516ZM100.448 68.456V71.264H95.588V68.456H100.448ZM102.644 66.296H93.32V73.856C93.32 77.096 93.14 81.272 91.232 84.368C91.772 84.62 92.708 85.376 93.104 85.808C94.436 83.612 95.084 80.876 95.372 78.284H100.448V82.892C100.448 83.324 100.34 83.432 99.944 83.432C99.584 83.468 98.36 83.468 96.92 83.396C97.244 84.044 97.496 84.98 97.568 85.628C99.512 85.628 100.808 85.592 101.6 85.196C102.428 84.8 102.644 84.152 102.644 82.964V66.296ZM110.132 82.856C110.132 83.252 109.988 83.36 109.556 83.396C109.124 83.396 107.72 83.396 106.1 83.36C106.424 84.044 106.748 84.944 106.82 85.592C108.944 85.592 110.312 85.556 111.176 85.16C112.004 84.8 112.256 84.152 112.256 82.856V65.612H110.132V82.856ZM107.144 66.908H105.056V79.832H107.144V66.908ZM102.752 52.724C100.34 56.36 95.444 59.996 91.052 61.724C91.592 62.228 92.42 63.128 92.816 63.776C93.752 63.344 94.724 62.84 95.66 62.264V63.992H109.052V61.796H96.416C98.684 60.32 100.88 58.484 102.716 56.504C105.524 59.312 109.628 62.084 113.012 63.524C113.372 62.876 114.128 62.012 114.704 61.508C111.104 60.176 106.676 57.476 104.156 54.812C104.408 54.416 104.696 54.056 104.948 53.696L102.752 52.724Z" fill="#273A3C"/>
<path d="M15.04 30.36H64.32V40.28H74.48V21.32H44.8V13.32H34.72V21.32H5.36V40.28H15.04V30.36ZM75.68 53.96V44.84H44.64V33.32H34.88V44.84H4.32V53.96H28.16C21.92 63.48 12.08 72.36 2.08 77.24C4.32 79.16 7.44 83 9.04 85.32C18.8 79.72 28 70.68 34.88 60.28V87.96H44.64V60.44C51.76 70.36 61.2 79.24 70.64 84.68C72.32 82.04 75.6 78.12 77.84 76.2C67.68 71.4 57.2 62.84 50.56 53.96H75.68Z" fill="#273A3C"/>
</svg>
