<svg width="104" height="77" viewBox="0 0 104 77" fill="none" xmlns="http://www.w3.org/2000/svg">
<path d="M43.6978 75.5323C66.8234 75.5323 85.5704 66.6679 85.5704 55.7331C85.5704 44.7983 66.8234 35.934 43.6978 35.934C20.5722 35.934 1.8252 44.7983 1.8252 55.7331C1.8252 66.6679 20.5722 75.5323 43.6978 75.5323Z" fill="#273A3C" stroke="white" stroke-width="2" stroke-miterlimit="10"/>
<path d="M43.8523 65.139C67.2342 65.139 86.189 56.1816 86.189 45.132C86.189 34.0824 67.2342 25.125 43.8523 25.125C20.4704 25.125 1.51562 34.0824 1.51562 45.132C1.51562 56.1816 20.4704 65.139 43.8523 65.139Z" fill="#FF2600" stroke="white" stroke-width="2" stroke-miterlimit="10"/>
<path d="M102.369 35.5088C103.946 24.6899 86.6988 13.1779 63.8465 9.79588C40.9942 6.4139 21.1906 12.4427 19.614 23.2615C18.0374 34.0804 35.2847 45.5925 58.137 48.9744C80.9893 52.3564 100.793 46.3276 102.369 35.5088Z" fill="#CC9423" stroke="white" stroke-width="2" stroke-miterlimit="10"/>
<path d="M101.834 29.8029C103.546 19.0049 86.4215 7.27011 63.585 3.59265C40.7484 -0.0848041 20.8477 5.6876 19.1355 16.4857C17.4232 27.2838 34.5478 39.0185 57.3843 42.696C80.2209 46.3734 100.122 40.601 101.834 29.8029Z" stroke="#FF2600" stroke-width="2" stroke-miterlimit="10"/>
<path d="M63.6026 3.61096L57.4146 42.6896" stroke="#FF2600" stroke-width="2" stroke-miterlimit="10"/>
<path d="M26.2676 30.2178L60.5082 23.1504" stroke="#FF2600" stroke-width="2" stroke-miterlimit="10"/>
</svg>
