<svg width="116" height="100" viewBox="0 0 116 100" fill="none" xmlns="http://www.w3.org/2000/svg">
<path d="M104.228 26.3H106.892V22.808H113.408V20.468H106.892V16.904H104.228V20.468H98.828V22.808H104.228V26.3ZM89.504 26.372H92.132V22.844H97.064V20.504H92.132V16.904H89.504V20.504H82.808V22.844H89.504V26.372ZM98.504 42.068C103.4 44.192 109.664 47.504 112.796 49.736L114.128 47.504C110.96 45.308 104.588 42.14 99.8 40.196L98.504 42.068ZM99.152 30.332H107.684V36.848H99.008C99.116 36.02 99.152 35.192 99.152 34.4V30.332ZM88.46 36.848V30.332H96.488V34.4C96.488 35.192 96.452 36.02 96.344 36.848H88.46ZM110.348 36.848V27.956H99.152V24.464H96.488V27.956H85.868V36.848H81.836V39.332H95.696C94.256 42.608 90.692 45.56 81.512 47.612C82.088 48.188 82.808 49.232 83.096 49.808C93.356 47.324 97.172 43.58 98.504 39.332H114.164V36.848H110.348ZM100.808 58.196C100.304 56.684 99.08 54.38 98 52.688L95.228 53.48C96.308 55.244 97.46 57.656 97.892 59.132L100.808 58.196ZM105.524 61.832C103.724 66.692 101.312 70.652 98.108 73.892C94.724 70.508 92.132 66.404 90.26 61.832H105.524ZM114.2 61.832V59.204H81.944V61.832H87.488C89.576 67.268 92.42 71.948 96.128 75.764C92.204 79.076 87.38 81.524 81.44 83.216C81.98 83.828 82.772 85.052 83.096 85.7C89.072 83.792 94.04 81.2 98.072 77.672C102.068 81.272 106.964 83.9 112.832 85.556C113.264 84.8 114.02 83.684 114.668 83.072C108.944 81.668 104.084 79.112 100.124 75.764C103.724 72.056 106.496 67.52 108.548 61.832H114.2Z" fill="#273A3C"/>
<path d="M21.12 69.48C17.68 73.8 11.2 77.88 4.8 80.36C6.8 81.88 10.32 85.16 11.84 87C18.4 83.72 25.68 78.2 30.08 72.44L21.12 69.48ZM26 57.88H54.24V54.68C57.52 57.56 61.2 60.04 65.44 61.96H15.04C18.96 59.96 22.64 57.48 26 54.68V57.88ZM14.4 44.36C15.2 43.64 15.92 42.92 16.64 42.2C18.96 43.64 21.44 45.4 23.12 46.92C22.32 47.64 21.52 48.36 20.72 49.08C19.04 47.56 16.64 45.8 14.4 44.36ZM29.76 38.44C28.88 39.88 27.92 41.32 26.88 42.68C25.12 41.32 22.64 39.72 20.48 38.44H29.76ZM62.4 39.72C60.96 41.8 59.28 43.88 57.6 45.64C55.76 43.88 54.08 41.88 52.64 39.72H62.4ZM68.32 63.16C69.6 63.64 70.88 64.12 72.24 64.52C73.44 62.04 76 58.36 78 56.52C72.32 55.16 67.44 53 63.2 50.2C67.2 46.2 71.2 41.16 74.24 36.52L68.88 32.68L67.36 33.16H52V38.76C50.24 36.04 48.8 33.08 47.68 29.88L39.68 31.72C42.32 39.24 45.84 45.64 50.48 50.92H30C34.24 46.44 37.76 41.16 40.08 34.92L34.8 32.36L33.36 32.68H24.08C24.48 31.96 24.96 31.16 25.36 30.44H31.36V26.04H48.4V30.44H57.92V26.04H75.68V18.04H57.92V13.32H48.4V18.04H31.36V13.32H21.92V18.04H4.4V26.04H21.92V29.48L17.52 28.76C14.8 33.88 9.84 39.64 2.4 43.96C4.08 45 6.56 47.56 7.76 49.4C8.48 48.92 9.12 48.52 9.76 48.04C11.84 49.56 14.08 51.32 15.68 52.84C11.52 55.48 7.04 57.56 2.4 59C4 60.6 6 63.48 7.04 65.48C8.72 64.84 10.4 64.2 12 63.48V69.16H35.52V79.16C35.52 79.96 35.2 80.2 34.24 80.2C33.28 80.28 30 80.28 27.12 80.12C28.16 82.36 29.36 85.56 29.76 87.96C34.64 87.96 38.24 87.96 41.04 86.76C43.92 85.4 44.48 83.4 44.48 79.48V69.16H56.48L49.84 73.72C55.52 77.48 62.72 83.08 66.08 86.6L73.44 81.24C69.84 77.64 62.64 72.6 57.2 69.16H68.32V63.16Z" fill="#273A3C"/>
</svg>
