<svg width="260" height="343" viewBox="0 0 260 343" fill="none" xmlns="http://www.w3.org/2000/svg">
<path d="M258.5 132C258.5 204.095 200.947 262.5 130 262.5C59.0529 262.5 1.5 204.095 1.5 132C1.5 59.9052 59.0529 1.5 130 1.5C200.947 1.5 258.5 59.9052 258.5 132Z" stroke="#CC9423" stroke-width="3"/>
<path d="M258.5 211C258.5 283.095 200.947 341.5 130 341.5C59.0529 341.5 1.5 283.095 1.5 211C1.5 138.905 59.0529 80.5 130 80.5C200.947 80.5 258.5 138.905 258.5 211Z" fill="#CC9423" stroke="#CC9423" stroke-width="3"/>
<path d="M86.7 117.4C83.7 115.96 78 114.04 74.04 113.08L70.92 117.94C75.06 119.14 80.7 121.3 83.46 122.8L86.7 117.4ZM83.28 151.24H109.26V153.88H83.28V151.24ZM83.28 144.64H109.26V147.22H83.28V144.64ZM83.28 138.04H109.26V140.62H83.28V138.04ZM93 133.78C98.52 132.22 101.88 130.12 103.98 127.3C105.78 129.88 108.54 132.1 113.16 133.78H93ZM116.52 158.14V134.8C117.72 135.1 119.04 135.34 120.48 135.58C121.14 133.84 122.7 131.08 124.02 129.76C111.9 128.32 108.48 125.02 107.22 121.18H113.88C113.1 122.44 112.26 123.58 111.54 124.48L117.06 126.22C119.04 124 121.2 120.4 122.76 117.16L118.02 115.96L116.94 116.14H99.24C99.84 115.18 100.32 114.22 100.8 113.2L94.5 112.18C92.94 115.66 90 119.62 85.68 122.62C87.3 123.28 89.76 124.72 91.02 125.98C92.88 124.48 94.44 122.86 95.82 121.18H100.14C98.82 125.44 95.64 128.02 86.1 129.58L85.5 124.18C79.14 125.68 72.72 127.18 68.28 128.02L70.92 134.26C75.42 133 81 131.38 86.16 129.88L86.1 129.64C87.06 130.6 88.2 132.34 88.92 133.78H76.38V158.14H85.2C81.06 160.18 74.52 162.1 68.7 163.18C70.2 164.44 72.72 167.02 73.98 168.4C80.04 166.72 87.72 163.78 92.7 160.54L87.24 158.14H104.76L99.36 161.26C105.42 163.54 111.54 166.36 114.96 168.34L123.24 165.16C119.16 163.18 112.26 160.3 106.14 158.14H116.52ZM175.14 122.68C173.22 120.46 168.96 117.4 165.6 115.42L162.18 120.22C165.48 122.44 169.62 125.68 171.48 128.02L175.14 122.68ZM159.42 135.28C162.9 137.38 167.28 140.56 169.26 142.78L172.86 137.08C170.7 134.92 166.26 132.04 162.78 130.18L159.42 135.28ZM154.02 115.48C153.36 119.68 151.92 125.74 150.72 129.52L155.22 130.78C156.72 127.3 158.46 121.6 160.02 116.8L154.02 115.48ZM142.38 129.52C142.08 125.8 140.88 120.1 139.32 115.78L134.34 117.1C135.72 121.42 136.92 127.24 137.04 130.96L142.38 129.52ZM158.76 149.26C157.5 147.58 151.8 140.86 150.06 139.12V138.7H158.94V132.04H150.06V112.42H143.46V132.04H134.4V138.7H141.24C139.38 144.16 136.32 150.58 133.32 154.24C134.4 156.22 135.96 159.46 136.56 161.62C139.14 158.02 141.54 152.44 143.46 146.86V168.04H150.06V146.98C151.8 149.74 153.48 152.86 154.38 154.78L158.76 149.26ZM190.5 150.64L189.42 143.98L183.3 145.12V112.12H176.58V146.32L158.76 149.5L159.84 156.16L176.58 153.16V168.16H183.3V151.96L190.5 150.64ZM123.18 211.22V204.8H106.92V199.04H121.2V192.74H113.7C115.44 190.46 117.48 187.46 119.4 184.4L112.08 182.18C110.94 185.06 108.84 189.02 107.1 191.66L110.16 192.74H96.78L99.96 191.36C99.18 188.72 96.96 185 94.74 182.24L88.68 184.76C90.48 187.22 92.16 190.34 93.12 192.74H87.12V199.04H99.78V204.8H85.08V211.22H99C97.68 215.54 94.2 220.04 85.08 223.4C86.7 224.6 88.92 227.06 89.82 228.56C97.62 225.14 102 220.82 104.4 216.32C107.46 222.2 112.08 226.34 118.86 228.68C119.82 226.82 121.86 224.06 123.36 222.68C116.22 220.82 111.42 216.86 108.78 211.22H123.18ZM84.18 192.62C82.14 189.8 77.76 186.08 74.16 183.56L68.88 187.88C72.42 190.52 76.68 194.48 78.54 197.36L84.18 192.62ZM82.68 205.46H68.82V212H75.72V224.66C73.08 226.7 70.08 228.68 67.5 230.18L70.98 237.62C74.28 235.1 76.92 232.76 79.56 230.42C83.46 235.1 88.38 236.78 95.76 237.08C102.9 237.38 114.96 237.26 122.16 236.9C122.52 234.86 123.6 231.38 124.38 229.7C116.4 230.3 102.9 230.48 95.88 230.18C89.64 229.94 85.14 228.32 82.68 224.3V205.46ZM178.68 212.78V227.72H165.3V209.6H183.72V187.82H176.22V202.64H165.3V182.78H157.98V202.64H147.66V187.82H140.58V209.6H157.98V227.72H145.44V212.78H138.18V238.22H145.44V234.74H178.68V238.16H186.12V212.78H178.68Z" fill="#FF2600"/>
<path d="M92.248 268.672C93.112 268.06 93.58 267.052 93.88 266.104L93.112 265.84C92.836 266.716 92.32 267.628 91.516 268.18L92.248 268.672ZM97.48 260.716H93.82V261.34H97.48V260.716ZM96.532 264.028H94.768V262.78H96.532V264.028ZM97.204 264.688C97.396 264.832 97.72 265.144 97.852 265.3C98.356 264.94 98.836 264.508 99.268 264.004C99.868 264.88 100.576 265.408 101.308 265.408C102.064 265.408 102.388 264.988 102.532 263.488C102.304 263.416 102.004 263.248 101.836 263.092C101.776 264.172 101.656 264.592 101.356 264.604C100.864 264.604 100.312 264.136 99.808 263.32C100.372 262.552 100.84 261.664 101.176 260.68L100.348 260.488C100.108 261.22 99.784 261.892 99.376 262.504C99.052 261.772 98.776 260.896 98.596 259.912H102.256V259.168H100.936L101.308 258.724C100.924 258.412 100.192 258.076 99.604 257.884L99.136 258.412C99.664 258.592 100.276 258.892 100.66 259.168H98.476C98.428 258.772 98.392 258.364 98.38 257.956H97.528C97.552 258.364 97.588 258.772 97.636 259.168H92.572V260.956C92.572 262.18 92.44 263.86 91.432 265.096C91.612 265.192 91.972 265.48 92.08 265.648C93.172 264.304 93.388 262.348 93.388 260.968V259.912H97.744C97.972 261.184 98.356 262.336 98.824 263.248C98.368 263.788 97.852 264.256 97.288 264.628V262.156H94.024V264.664H97.24L97.204 264.688ZM95.524 265.36C96.28 265.744 97.144 266.356 97.552 266.812L98.164 266.248C97.744 265.792 96.856 265.216 96.112 264.868L95.524 265.36ZM96.244 267.964C95.596 267.964 95.5 267.904 95.5 267.604V265.756H94.612V267.616C94.612 268.528 94.936 268.768 96.172 268.768H98.5C99.508 268.768 99.772 268.432 99.892 267.028C99.64 266.98 99.268 266.848 99.076 266.704C99.04 267.82 98.956 267.964 98.428 267.964H96.244ZM99.64 266.104C100.504 266.812 101.38 267.808 101.704 268.54L102.496 268.108C102.124 267.364 101.236 266.392 100.372 265.708L99.64 266.104ZM107.98 258.376H105.232V259.096H107.98V258.376ZM108.268 259.948H104.704V260.68H108.268V259.948ZM108.004 261.568H105.184V262.276H108.004V261.568ZM105.184 263.872H108.004V263.152H105.184V263.872ZM107.296 267.496H105.856V265.492H107.296V267.496ZM108.028 264.76H105.16V268.78H105.856V268.216H108.028V264.76ZM109.504 263.212H111.1V264.172C110.548 264.28 110.008 264.388 109.504 264.484V263.212ZM111.1 259.852V260.836H109.504V259.852H111.1ZM111.1 262.516H109.504V261.52H111.1V262.516ZM111.844 263.44V259.168H110.5C110.632 258.844 110.764 258.472 110.896 258.112L110.032 257.944C109.96 258.292 109.852 258.772 109.72 259.168H108.772V264.616C108.568 264.652 108.376 264.688 108.196 264.712L108.388 265.456L110.596 264.976C109.876 265.912 108.964 266.728 108.028 267.316C108.196 267.484 108.484 267.82 108.604 267.988C109.48 267.364 110.356 266.548 111.1 265.612V267.952C111.1 268.12 111.04 268.18 110.884 268.18C110.728 268.18 110.212 268.192 109.624 268.168C109.744 268.372 109.876 268.708 109.912 268.924C110.68 268.924 111.148 268.9 111.448 268.78C111.736 268.636 111.844 268.384 111.844 267.952V264.58C112.048 264.256 112.228 263.932 112.396 263.608L111.844 263.44ZM113.752 265.648C113.68 264.856 113.404 263.668 113.044 262.744L112.384 262.9C112.732 263.824 112.996 265.036 113.044 265.816L113.752 265.648ZM115.72 260.908H115.048V258.064H114.22V260.908H112.096V261.736H114.22V267.892C114.22 268.072 114.148 268.12 114.004 268.132C113.836 268.132 113.308 268.144 112.708 268.12C112.828 268.36 112.936 268.732 112.972 268.948C113.788 268.948 114.304 268.924 114.604 268.78C114.928 268.648 115.048 268.396 115.048 267.88V261.736H115.72V260.908ZM120.604 258.004C119.932 259.828 118.816 261.616 117.64 262.768C117.808 262.972 118.048 263.428 118.144 263.644C118.552 263.2 118.972 262.708 119.356 262.156V268.888H120.208V260.824C120.676 260.008 121.096 259.144 121.444 258.256L120.604 258.004ZM122.788 263.068C122.464 264.484 121.9 265.912 121.144 266.824C121.36 266.944 121.744 267.172 121.912 267.316C122.644 266.32 123.28 264.808 123.664 263.236L122.788 263.068ZM127.864 261.088C127.768 261.7 127.66 262.336 127.588 262.768L128.332 262.912C128.488 262.276 128.704 261.244 128.86 260.368L128.248 260.224L128.104 260.26H123.244C123.484 259.6 123.7 258.904 123.88 258.208L123.004 258.016C122.608 259.768 121.912 261.484 121.036 262.588C121.228 262.72 121.6 263.02 121.744 263.152C122.176 262.588 122.572 261.88 122.908 261.088H124.732V267.832C124.732 267.988 124.684 268.036 124.528 268.036C124.372 268.036 123.856 268.048 123.292 268.024C123.412 268.276 123.556 268.672 123.604 268.924C124.36 268.924 124.864 268.9 125.188 268.744C125.5 268.6 125.608 268.336 125.608 267.832V261.088H127.864ZM126.484 263.236C127.12 264.496 127.72 266.176 127.912 267.268L128.764 266.98C128.56 265.888 127.948 264.244 127.264 262.972L126.484 263.236ZM135.016 263.188H132.496V260.68H135.016V263.188ZM132.496 266.86V263.98H135.016V266.86H132.496ZM133.504 257.932C133.42 258.496 133.204 259.3 133.024 259.876H131.68V268.612H132.496V267.664H135.832V259.876H133.84C134.044 259.36 134.26 258.7 134.464 258.112L133.504 257.932ZM141.7 259.84H138.112C138.316 259.276 138.484 258.7 138.628 258.112L137.776 257.908C137.392 259.552 136.744 261.208 135.94 262.264C136.132 262.384 136.516 262.624 136.672 262.768C137.092 262.204 137.464 261.472 137.8 260.668H140.848C140.692 265.444 140.512 267.268 140.116 267.688C139.996 267.844 139.864 267.868 139.624 267.868C139.348 267.868 138.628 267.868 137.848 267.796C138.016 268.048 138.124 268.408 138.148 268.672C138.82 268.708 139.504 268.732 139.924 268.684C140.332 268.648 140.608 268.54 140.872 268.204C141.352 267.616 141.508 265.768 141.7 260.296V259.84ZM139.804 265.24C139.42 264.532 138.592 263.38 137.92 262.528L137.224 262.936C137.884 263.8 138.688 264.988 139.048 265.708L139.804 265.24ZM145.276 260.272C147.148 260.2 149.968 260.092 152.656 259.984C152.992 260.26 153.292 260.536 153.508 260.764L154.192 260.356C153.604 259.732 152.416 258.856 151.444 258.28L150.784 258.64C151.12 258.844 151.468 259.084 151.804 259.324C150.544 259.372 149.284 259.408 148.132 259.444C148.444 259.036 148.768 258.568 149.056 258.112L148.144 257.932C147.916 258.376 147.544 258.988 147.196 259.468C146.464 259.492 145.792 259.504 145.228 259.516L145.276 260.272ZM152.848 265.672C151.504 267.04 148.84 267.844 145.936 268.192C146.092 268.384 146.26 268.708 146.356 268.912C149.368 268.492 152.104 267.604 153.58 266.032L152.848 265.672ZM150.124 263.308C149.26 263.992 147.664 264.616 146.38 264.964C146.56 265.12 146.764 265.348 146.896 265.516C148.216 265.12 149.8 264.424 150.784 263.632L150.124 263.308ZM151.432 264.46C150.328 265.36 148.288 266.08 146.464 266.44C146.632 266.632 146.824 266.908 146.932 267.088C148.828 266.644 150.88 265.852 152.116 264.808L151.432 264.46ZM155.212 262.852C154.96 262.324 154.372 261.604 153.844 261.076L153.208 261.352C153.4 261.556 153.604 261.796 153.796 262.024C153.16 262.072 152.56 262.096 152.02 262.132C152.272 261.676 152.536 261.148 152.788 260.656L151.972 260.44C151.816 260.944 151.528 261.64 151.264 262.168H151.096C150.724 261.856 150.388 261.508 150.088 261.148H149.308C149.08 261.46 148.816 261.772 148.492 262.072C148.324 261.772 148.108 261.448 147.892 261.184L147.244 261.412C147.4 261.604 147.544 261.832 147.688 262.048L146.248 262.156C146.524 261.712 146.812 261.172 147.088 260.692L146.272 260.488C146.08 260.98 145.756 261.676 145.456 262.204C145.096 262.228 144.772 262.252 144.484 262.264L144.556 262.948C145.468 262.876 146.62 262.78 147.796 262.672C146.8 263.452 145.564 264.136 144.256 264.568C144.412 264.736 144.592 265.024 144.676 265.216C146.716 264.46 148.72 263.152 149.74 261.856C150.928 263.272 153.052 264.496 154.924 265.108C155.032 264.892 155.2 264.604 155.38 264.412C154.228 264.1 152.992 263.536 151.912 262.792C152.62 262.732 153.412 262.66 154.192 262.576C154.336 262.792 154.456 262.996 154.54 263.164L155.212 262.852ZM160.996 266.356C160.264 267.016 158.824 267.832 157.672 268.3C157.888 268.468 158.188 268.768 158.344 268.936C159.472 268.432 160.9 267.616 161.824 266.896L160.996 266.356ZM164.104 266.92C165.388 267.556 166.756 268.36 167.548 268.948L168.376 268.336C167.488 267.748 166.06 266.956 164.752 266.332L164.104 266.92ZM167.212 265.324C167.308 263.572 167.38 260.8 167.392 258.724H164.836V259.492H166.564C166.564 259.948 166.552 260.428 166.54 260.908H164.956V261.664H166.528C166.516 262.156 166.492 262.648 166.48 263.128H164.932V263.884H166.444C166.42 264.412 166.396 264.892 166.36 265.324H164.368V261.292H162.484V260.044H164.596V259.288H162.484V258.064H161.704V262.012H163.588V265.324H162.436V262.54H161.692V265.324H159.628L159.58 263.884H161.104V263.128H159.544L159.496 261.664H161.092V260.908H159.472L159.424 259.636C160.108 259.36 160.852 259.036 161.476 258.712L160.78 258.076C160.396 258.34 159.784 258.688 159.184 258.976L158.584 258.796L158.812 265.324H157.576V266.164H168.448V265.324H167.212ZM71.6167 276.2H72.3967V275.456H73.9207V276.2H74.7127V275.456H76.1527V274.784H74.7127V273.968H73.9207V274.784H72.3967V273.968H71.6167V274.784H70.1887V275.456H71.6167V276.2ZM71.8567 282.896H73.2487V283.616H71.8567V282.896ZM73.2487 281.012H71.8567V280.304H73.2487V281.012ZM73.2487 282.308H71.8567V281.6H73.2487V282.308ZM71.1967 277.028H72.2167V278.072H71.1967V277.028ZM75.1327 278.072H74.0287V277.028H75.1327V278.072ZM78.7927 276.92H80.1007C80.0167 277.664 79.9087 278.468 79.7647 279.008L80.4127 279.344C80.6647 278.552 80.8927 277.316 81.0247 276.272L80.4487 276.056L80.3047 276.104H77.5447C77.7007 275.456 77.8087 274.772 77.9047 274.076L77.0407 273.944C76.8247 275.672 76.4527 277.376 75.8047 278.54V276.44H73.3927V278.66H75.7327L75.6367 278.816C75.8527 278.924 76.2247 279.188 76.3807 279.332C76.7647 278.672 77.0887 277.844 77.3407 276.92H77.9407V278.576C77.9527 279.428 77.7007 282.08 75.8887 283.76V283.616H74.0167V282.896H75.5527V282.308H74.0167V281.6H75.5527V281.012H74.0167V280.304H75.8647V279.656H74.0287C74.1487 279.428 74.2807 279.164 74.4127 278.912L73.6087 278.708C73.5367 278.972 73.4047 279.332 73.2607 279.656H72.0487C72.1687 279.392 72.2767 279.116 72.3727 278.84L71.6647 278.66H72.8767V276.44H70.5607V278.66H71.6167C71.2567 279.74 70.6567 280.796 69.9727 281.516C70.1167 281.672 70.3807 282.02 70.4887 282.176C70.7047 281.948 70.9087 281.684 71.1007 281.396V284.888H71.8567V284.252H75.3967C75.5527 284.432 75.7687 284.744 75.8647 284.9C77.6407 283.628 78.2527 281.396 78.3607 280.424C78.4687 281.372 79.0087 283.676 80.6287 284.9C80.7607 284.696 81.0127 284.336 81.1807 284.156C79.0927 282.596 78.7927 279.5 78.7927 278.576V276.92ZM91.0687 275.624H93.0007V281C93.0007 281.144 92.9527 281.192 92.8087 281.192C92.6527 281.192 92.1967 281.204 91.6687 281.18C91.7767 281.384 91.8967 281.732 91.9447 281.948C92.6647 281.948 93.1447 281.936 93.4327 281.816C93.7447 281.672 93.8287 281.432 93.8287 281.012V274.844H90.2647V283.4H91.0687V275.624ZM86.4967 282.116C87.4447 281.84 88.7047 281.468 89.8807 281.12L89.7727 280.352C89.1247 280.532 88.4767 280.712 87.8767 280.88V275.636C88.6567 275.336 89.4847 274.976 90.1327 274.592L89.4727 273.932C89.0287 274.28 88.2607 274.688 87.5527 275.012L87.0487 274.868V281.096C86.7607 281.18 86.4967 281.24 86.2687 281.3L86.4967 282.116ZM86.0047 276.224C85.6687 275.624 84.8767 274.796 84.1687 274.232L83.4847 274.688C84.1807 275.276 84.9487 276.128 85.2607 276.728L86.0047 276.224ZM85.7287 278.66H83.4247V279.5H84.9007V282.596C84.3727 283.1 83.7847 283.604 83.2807 283.976L83.7487 284.804C84.3247 284.276 84.8647 283.772 85.3687 283.244C86.1127 284.192 87.2047 284.624 88.7887 284.684C90.1447 284.732 92.7367 284.708 94.0927 284.648C94.1287 284.396 94.2727 284 94.3807 283.808C92.9167 283.904 90.1207 283.94 88.7647 283.88C87.3607 283.82 86.2927 283.412 85.7287 282.512V278.66ZM100.093 284H99.4207V277.628C99.4207 277.284 99.4207 277.004 99.4207 276.788C99.4287 276.564 99.4367 276.352 99.4447 276.152C99.3327 276.264 99.2247 276.36 99.1207 276.44C99.0247 276.52 98.9007 276.62 98.7487 276.74L97.5607 277.664L97.1887 277.184L99.5167 275.432H100.093V284ZM108.124 275.432L104.908 284H104.236L107.44 275.432H108.124ZM113.508 284H112.836V277.628C112.836 277.284 112.836 277.004 112.836 276.788C112.844 276.564 112.852 276.352 112.86 276.152C112.748 276.264 112.64 276.36 112.536 276.44C112.44 276.52 112.316 276.62 112.164 276.74L110.976 277.664L110.604 277.184L112.932 275.432H113.508V284ZM121.564 284H120.892V277.628C120.892 277.284 120.892 277.004 120.892 276.788C120.9 276.564 120.908 276.352 120.916 276.152C120.804 276.264 120.696 276.36 120.592 276.44C120.496 276.52 120.372 276.62 120.22 276.74L119.032 277.664L118.66 277.184L120.988 275.432H121.564V284ZM135.895 274.208C135.667 274.82 135.235 275.708 134.899 276.248L135.595 276.536C135.943 276.008 136.363 275.228 136.711 274.532L135.895 274.208ZM135.571 278.504H132.043V277.496H135.571V278.504ZM135.571 280.172H132.043V279.164H135.571V280.172ZM135.571 281.864H132.043V280.832H135.571V281.864ZM131.239 276.812V282.548H136.423V276.812H134.191V273.956H133.363V276.812H131.239ZM132.571 276.212C132.427 275.696 131.995 274.88 131.611 274.28L130.891 274.568C131.275 275.18 131.683 276.008 131.839 276.536L132.571 276.212ZM130.723 282.836C130.111 282.956 129.499 283.088 128.911 283.208V279.728H130.627V278.948H128.911V277.676H130.315V276.908H127.099C127.759 276.188 128.251 275.42 128.611 274.784C129.259 275.384 129.955 276.236 130.315 276.764L130.915 276.092C130.495 275.492 129.619 274.592 128.899 273.968H128.095C127.699 274.916 126.931 276.128 125.851 277.04C126.007 277.148 126.271 277.424 126.403 277.604C126.571 277.448 126.739 277.292 126.895 277.136V277.676H128.131V278.948H126.259V279.728H128.131V283.364C127.387 283.508 126.703 283.628 126.151 283.724L126.331 284.552C127.567 284.276 129.211 283.94 130.783 283.592L130.723 282.836ZM126.535 280.52C126.763 281.24 126.943 282.164 126.967 282.788L127.627 282.62C127.591 282.008 127.399 281.084 127.147 280.364L126.535 280.52ZM129.931 282.572C130.111 282.02 130.339 281.168 130.531 280.436L129.835 280.256C129.739 280.892 129.511 281.84 129.343 282.416L129.931 282.572ZM132.439 282.74C131.911 283.28 130.831 283.94 129.943 284.3C130.099 284.48 130.351 284.756 130.471 284.924C131.383 284.528 132.487 283.868 133.183 283.22L132.439 282.74ZM134.431 283.22C135.151 283.724 135.967 284.408 136.399 284.912L137.155 284.456C136.675 283.952 135.835 283.292 135.055 282.776L134.431 283.22ZM140.659 276.176H148.831V277.928H149.743V275.336H145.207V273.968H144.283V275.336H139.783V277.928H140.659V276.176ZM145.207 281.276H148.759V280.448H145.207V278.456H148.267V277.616H141.319V278.456H144.295V283.484C143.311 283.112 142.543 282.428 142.087 281.168C142.207 280.664 142.303 280.136 142.375 279.572L141.463 279.488C141.199 281.636 140.551 283.34 139.219 284.372C139.435 284.504 139.807 284.816 139.951 284.972C140.731 284.288 141.319 283.4 141.739 282.296C142.831 284.324 144.619 284.756 147.103 284.756H149.887C149.923 284.492 150.079 284.072 150.223 283.856C149.647 283.868 147.583 283.868 147.151 283.868C146.455 283.868 145.795 283.832 145.207 283.724V281.276ZM163.171 277.364V276.476H158.419V273.968H157.495V276.476H152.779V277.364H156.943C155.935 279.416 154.195 281.36 152.371 282.308C152.575 282.476 152.875 282.812 153.007 283.028C154.771 282.008 156.391 280.196 157.495 278.12V281.792H155.155V282.68H157.495V284.912H158.419V282.68H160.699V281.792H158.419V278.12C159.499 280.196 161.107 282.02 162.919 283.016C163.051 282.764 163.363 282.416 163.579 282.236C161.695 281.324 159.967 279.416 158.971 277.364H163.171ZM166.267 280.76C166.135 281.804 165.907 282.884 165.535 283.616C165.703 283.676 166.063 283.832 166.195 283.94C166.579 283.172 166.855 282.02 167.023 280.892L166.267 280.76ZM168.727 280.928C169.027 281.612 169.267 282.524 169.327 283.1L170.023 282.896C169.951 282.308 169.687 281.42 169.387 280.736L168.727 280.928ZM172.831 282.356C172.615 282.356 172.567 282.26 172.567 281.948V280.244H175.111V279.536H173.539V278.312H175.039V277.604H174.127C174.367 277.148 174.655 276.5 174.919 275.924L174.199 275.684C174.067 276.2 173.791 276.956 173.563 277.436L174.007 277.604H172.123L172.675 277.4C172.603 276.968 172.375 276.284 172.099 275.768L171.523 275.972C171.775 276.476 171.991 277.148 172.063 277.604H171.391V278.312H172.771V279.536H171.295V280.244H171.799V281.936C171.799 282.788 172.003 283.064 172.831 283.064H174.235C174.511 283.064 174.787 283.064 174.955 283.028C174.931 282.836 174.895 282.5 174.883 282.308C174.715 282.344 174.391 282.356 174.223 282.356H172.831ZM176.323 274.532H170.143V279.968C169.927 279.32 169.507 278.456 169.063 277.784L168.415 278.048C168.607 278.36 168.787 278.708 168.955 279.056L167.227 279.14C168.043 278.12 168.943 276.764 169.627 275.672L168.883 275.324C168.547 275.972 168.091 276.752 167.599 277.496C167.419 277.256 167.203 276.992 166.951 276.728C167.407 276.056 167.923 275.084 168.331 274.256L167.551 273.968C167.299 274.628 166.879 275.54 166.483 276.224C166.363 276.104 166.243 275.996 166.123 275.888L165.643 276.452C166.183 276.968 166.783 277.652 167.131 278.192C166.879 278.552 166.627 278.888 166.387 279.188L165.559 279.224L165.643 280.028L167.527 279.908V284.912H168.319V279.86L169.267 279.8C169.387 280.076 169.471 280.34 169.519 280.568L170.143 280.28V284.936H170.935V275.324H175.507V283.916C175.507 284.084 175.459 284.132 175.303 284.144C175.135 284.144 174.607 284.156 174.055 284.132C174.175 284.348 174.295 284.708 174.319 284.912C175.087 284.924 175.591 284.9 175.915 284.78C176.215 284.636 176.323 284.396 176.323 283.916V274.532ZM183.679 276.332H181.819V274.112H180.991V276.332H179.095V277.16H183.679V276.332ZM180.811 281.828C180.787 280.676 180.571 278.984 180.283 277.652L179.551 277.784C179.827 279.116 180.031 280.832 180.031 281.96L180.811 281.828ZM182.467 281.912C182.719 280.736 183.007 279.044 183.199 277.688L182.323 277.52C182.215 278.9 181.915 280.892 181.651 282.092C180.595 282.32 179.611 282.536 178.867 282.68L179.059 283.568C180.367 283.256 182.179 282.836 183.871 282.44L183.775 281.612L182.467 281.912ZM188.431 283.508H184.831V280.496H188.431V283.508ZM189.847 277.28V276.44H186.883V273.956H185.971V279.656H183.979V284.9H184.831V284.336H188.431V284.852H189.343V279.656H186.883V277.28H189.847ZM60.604 296.796H55.396V295.968H60.604V296.796ZM55.396 299.76V298.872H60.604V299.76H55.396ZM60.604 298.248H55.396V297.408H60.604V298.248ZM62.656 294.432V293.688H56.368C56.512 293.4 56.644 293.1 56.764 292.812H61.96V292.092H57.016C57.112 291.792 57.208 291.504 57.292 291.204C59.008 291.108 60.64 290.952 61.84 290.7L61.276 290.052C59.392 290.436 55.756 290.628 52.852 290.652C52.936 290.844 53.02 291.132 53.032 291.336C54.064 291.336 55.192 291.312 56.308 291.252C56.236 291.54 56.152 291.816 56.056 292.092H53.02V292.812H55.792C55.684 293.1 55.54 293.4 55.396 293.688H52.144V294.432H54.976C54.232 295.68 53.2 296.796 51.856 297.576C52.024 297.732 52.288 298.056 52.408 298.26C53.224 297.768 53.932 297.168 54.544 296.496V300.948H55.396V300.48H60.604V300.948H61.48V295.26H55.504C55.684 294.996 55.84 294.708 55.996 294.432H62.656ZM73.804 296.796H68.596V295.968H73.804V296.796ZM68.596 299.76V298.872H73.804V299.76H68.596ZM73.804 298.248H68.596V297.408H73.804V298.248ZM75.856 294.432V293.688H69.568C69.712 293.4 69.844 293.1 69.964 292.812H75.16V292.092H70.216C70.312 291.792 70.408 291.504 70.492 291.204C72.208 291.108 73.84 290.952 75.04 290.7L74.476 290.052C72.592 290.436 68.956 290.628 66.052 290.652C66.136 290.844 66.22 291.132 66.232 291.336C67.264 291.336 68.392 291.312 69.508 291.252C69.436 291.54 69.352 291.816 69.256 292.092H66.22V292.812H68.992C68.884 293.1 68.74 293.4 68.596 293.688H65.344V294.432H68.176C67.432 295.68 66.4 296.796 65.056 297.576C65.224 297.732 65.488 298.056 65.608 298.26C66.424 297.768 67.132 297.168 67.744 296.496V300.948H68.596V300.48H73.804V300.948H74.68V295.26H68.704C68.884 294.996 69.04 294.708 69.196 294.432H75.856ZM86.872 292.104H80.668V291.132H86.872V292.104ZM86.872 293.724H80.668V292.752H86.872V293.724ZM87.76 290.448H79.792V294.408H87.76V290.448ZM84.34 298.14H88.3V297.348H84.34V296.016H89.08V295.212H78.544V296.016H83.464V299.628C82.432 299.352 81.664 298.8 81.196 297.72C81.316 297.336 81.424 296.94 81.508 296.52L80.608 296.4C80.284 298.152 79.528 299.496 78.28 300.3C78.472 300.444 78.82 300.78 78.94 300.936C79.72 300.36 80.344 299.616 80.812 298.68C81.784 300.3 83.308 300.684 85.72 300.684H88.984C89.032 300.42 89.176 300.036 89.296 299.832C88.684 299.844 86.2 299.844 85.756 299.844C85.252 299.844 84.772 299.82 84.34 299.772V298.14ZM92.884 300H94.048L95.044 297.312H98.788L99.784 300H100.996L97.6 291.18H96.244L92.884 300ZM95.308 296.448L95.836 295.044C96.196 294.06 96.556 293.1 96.892 292.08H96.94C97.3 293.088 97.648 294.048 98.008 295.044L98.536 296.448H95.308ZM107.188 300H113.236V299.064H110.752V292.14H113.236V291.18H107.188V292.14H109.648V299.064H107.188V300ZM127.288 292.008H126.04V290.892H127.288V292.008ZM125.332 292.008H124.096V290.892H125.332V292.008ZM123.376 292.008H122.188V290.892H123.376V292.008ZM128.092 290.316H121.42V292.584H128.092V290.316ZM128.728 293.148H120.772V293.82H128.728V293.148ZM122.62 294.936H126.856V295.956H122.62V294.936ZM125.02 296.532L125.032 296.52H127.492C127.12 296.868 126.628 297.276 126.208 297.576C125.728 297.276 125.32 296.94 125.02 296.58V296.532ZM125.02 299.484V297.528C125.86 298.296 127.012 298.908 128.188 299.208C128.308 299.004 128.524 298.692 128.704 298.524C128.044 298.392 127.384 298.176 126.796 297.888C127.312 297.564 127.9 297.12 128.404 296.688L127.768 296.256L127.732 296.292V294.372H121.792V296.52H123.988C123.184 297.24 122.044 297.852 120.952 298.26C121.12 298.416 121.372 298.752 121.492 298.92C122.404 298.536 123.364 297.972 124.18 297.312V299.484H125.02ZM120.724 292.212C120.352 291.624 119.524 290.808 118.792 290.256L118.108 290.76C118.84 291.336 119.644 292.164 120.004 292.764L120.724 292.212ZM120.364 294.66H118V295.5H119.524V298.572C118.984 299.076 118.372 299.58 117.868 299.952L118.336 300.804C118.924 300.288 119.476 299.784 120.004 299.268C120.748 300.204 121.828 300.624 123.4 300.684C124.744 300.744 127.276 300.72 128.62 300.66C128.656 300.396 128.8 299.988 128.908 299.784C127.468 299.88 124.708 299.916 123.388 299.856C121.984 299.808 120.928 299.4 120.364 298.512V294.66ZM139.672 292.104H133.468V291.132H139.672V292.104ZM139.672 293.724H133.468V292.752H139.672V293.724ZM140.56 290.448H132.592V294.408H140.56V290.448ZM137.14 298.14H141.1V297.348H137.14V296.016H141.88V295.212H131.344V296.016H136.264V299.628C135.232 299.352 134.464 298.8 133.996 297.72C134.116 297.336 134.224 296.94 134.308 296.52L133.408 296.4C133.084 298.152 132.328 299.496 131.08 300.3C131.272 300.444 131.62 300.78 131.74 300.936C132.52 300.36 133.144 299.616 133.612 298.68C134.584 300.3 136.108 300.684 138.52 300.684H141.784C141.832 300.42 141.976 300.036 142.096 299.832C141.484 299.844 139 299.844 138.556 299.844C138.052 299.844 137.572 299.82 137.14 299.772V298.14ZM147.004 290.004C146.332 291.828 145.216 293.616 144.04 294.768C144.208 294.972 144.448 295.428 144.544 295.644C144.952 295.2 145.372 294.708 145.756 294.156V300.888H146.608V292.824C147.076 292.008 147.496 291.144 147.844 290.256L147.004 290.004ZM149.188 295.068C148.864 296.484 148.3 297.912 147.544 298.824C147.76 298.944 148.144 299.172 148.312 299.316C149.044 298.32 149.68 296.808 150.064 295.236L149.188 295.068ZM154.264 293.088C154.168 293.7 154.06 294.336 153.988 294.768L154.732 294.912C154.888 294.276 155.104 293.244 155.26 292.368L154.648 292.224L154.504 292.26H149.644C149.884 291.6 150.1 290.904 150.28 290.208L149.404 290.016C149.008 291.768 148.312 293.484 147.436 294.588C147.628 294.72 148 295.02 148.144 295.152C148.576 294.588 148.972 293.88 149.308 293.088H151.132V299.832C151.132 299.988 151.084 300.036 150.928 300.036C150.772 300.036 150.256 300.048 149.692 300.024C149.812 300.276 149.956 300.672 150.004 300.924C150.76 300.924 151.264 300.9 151.588 300.744C151.9 300.6 152.008 300.336 152.008 299.832V293.088H154.264ZM152.884 295.236C153.52 296.496 154.12 298.176 154.312 299.268L155.164 298.98C154.96 297.888 154.348 296.244 153.664 294.972L152.884 295.236ZM161.416 295.188H158.896V292.68H161.416V295.188ZM158.896 298.86V295.98H161.416V298.86H158.896ZM159.904 289.932C159.82 290.496 159.604 291.3 159.424 291.876H158.08V300.612H158.896V299.664H162.232V291.876H160.24C160.444 291.36 160.66 290.7 160.864 290.112L159.904 289.932ZM168.1 291.84H164.512C164.716 291.276 164.884 290.7 165.028 290.112L164.176 289.908C163.792 291.552 163.144 293.208 162.34 294.264C162.532 294.384 162.916 294.624 163.072 294.768C163.492 294.204 163.864 293.472 164.2 292.668H167.248C167.092 297.444 166.912 299.268 166.516 299.688C166.396 299.844 166.264 299.868 166.024 299.868C165.748 299.868 165.028 299.868 164.248 299.796C164.416 300.048 164.524 300.408 164.548 300.672C165.22 300.708 165.904 300.732 166.324 300.684C166.732 300.648 167.008 300.54 167.272 300.204C167.752 299.616 167.908 297.768 168.1 292.296V291.84ZM166.204 297.24C165.82 296.532 164.992 295.38 164.32 294.528L163.624 294.936C164.284 295.8 165.088 296.988 165.448 297.708L166.204 297.24ZM180.352 294.288H176.848V293.124H180.352V294.288ZM180.352 296.1H176.848V294.924H180.352V296.1ZM180.352 297.948H176.848V296.772H180.352V297.948ZM176.02 292.428V298.644H181.192V292.428H178.708C178.816 292.08 178.936 291.684 179.044 291.288H181.612V290.52H175.564V291.288H178.06C178 291.66 177.916 292.068 177.832 292.428H176.02ZM174.796 297.048C175.132 296.4 175.492 295.356 175.816 294.432L175.264 294.288L175.132 294.324H174.256L174.544 293.952C174.316 293.712 173.98 293.436 173.608 293.172C174.28 292.536 174.976 291.672 175.468 290.868L174.916 290.484L174.736 290.544H170.956V291.336H174.172C173.824 291.828 173.392 292.344 172.984 292.74C172.576 292.488 172.156 292.236 171.772 292.032L171.292 292.608C172.144 293.064 173.128 293.748 173.752 294.324H170.692V295.116H172.66V299.856C172.66 300 172.612 300.048 172.432 300.048C172.276 300.06 171.724 300.06 171.112 300.048C171.232 300.276 171.352 300.648 171.388 300.888C172.216 300.888 172.744 300.876 173.08 300.732C173.428 300.6 173.524 300.336 173.524 299.868V295.116H174.784C174.58 295.764 174.34 296.424 174.136 296.868L174.796 297.048ZM177.208 298.872C176.692 299.4 175.612 300.012 174.676 300.348C174.844 300.504 175.132 300.78 175.264 300.948C176.224 300.6 177.328 299.952 177.988 299.328L177.208 298.872ZM179.056 299.376C179.788 299.832 180.7 300.504 181.156 300.948L181.852 300.432C181.372 299.988 180.448 299.34 179.728 298.92L179.056 299.376ZM187.936 293.496H189.832V294.972H187.936V293.496ZM187.936 295.716H189.832V297.216H187.936V295.716ZM187.936 291.288H189.832V292.752H187.936V291.288ZM187.168 290.496V297.996H190.636V290.496H187.168ZM189.28 298.584C189.76 299.172 190.348 299.988 190.612 300.492L191.32 300.048C191.044 299.568 190.444 298.776 189.952 298.212L189.28 298.584ZM187.66 298.248C187.312 299.064 186.7 299.904 186.064 300.456C186.256 300.576 186.616 300.816 186.76 300.948C187.396 300.348 188.08 299.388 188.488 298.464L187.66 298.248ZM193.624 289.968V299.808C193.624 300.012 193.54 300.072 193.336 300.072C193.156 300.084 192.52 300.096 191.812 300.072C191.932 300.3 192.04 300.684 192.076 300.912C193.06 300.912 193.624 300.888 193.96 300.744C194.296 300.6 194.428 300.348 194.428 299.796V289.968H193.624ZM191.536 291.192V298.008H192.328V291.192H191.536ZM184.408 290.724C185.08 291.06 185.908 291.612 186.292 292.008L186.82 291.3C186.412 290.904 185.596 290.4 184.924 290.088L184.408 290.724ZM183.892 293.928C184.6 294.24 185.452 294.744 185.86 295.116L186.364 294.384C185.944 294.012 185.092 293.556 184.396 293.28L183.892 293.928ZM184.144 300.288L184.948 300.768C185.464 299.664 186.064 298.2 186.508 296.952L185.788 296.484C185.308 297.828 184.624 299.364 184.144 300.288ZM203.872 292.872H201.928V291.996H203.872V292.872ZM203.872 294.396H201.928V293.544H203.872V294.396ZM203.872 295.98H201.928V295.068H203.872V295.98ZM201.076 296.7H207.76V295.98H204.712V295.068H207.112V294.396H204.712V293.544H207.088V292.872H204.712V291.996H207.436V291.276H204.784C205 290.928 205.24 290.532 205.456 290.148L204.508 289.968C204.352 290.34 204.124 290.856 203.884 291.276H202.216C202.456 290.916 202.66 290.532 202.84 290.16L201.988 289.908C201.448 291.084 200.536 292.224 199.564 292.968C199.768 293.112 200.116 293.424 200.26 293.58C200.536 293.34 200.812 293.076 201.076 292.776V296.7ZM198.088 297.108C198.808 296.328 199.612 295.404 200.296 294.564L199.816 293.964C199.036 294.876 198.112 295.848 197.464 296.424L198.088 297.108ZM200.392 290.928C199.948 290.64 199.12 290.244 198.46 290.028L198.016 290.64C198.676 290.892 199.492 291.324 199.924 291.624L200.392 290.928ZM199.504 292.8C199.072 292.548 198.208 292.188 197.56 291.996L197.116 292.62C197.776 292.848 198.64 293.22 199.06 293.508L199.504 292.8ZM207.976 297.768H203.008V296.784H202.108V297.768H197.272V298.572H202.108V300.924H203.008V298.572H207.976V297.768Z" fill="#F2F2F2"/>
</svg>
