<svg width="599" height="483" viewBox="0 0 599 483" fill="none" xmlns="http://www.w3.org/2000/svg">
<path d="M474.5 241.5C474.5 374.069 368.595 481.5 238 481.5C107.405 481.5 1.5 374.069 1.5 241.5C1.5 108.931 107.405 1.5 238 1.5C368.595 1.5 474.5 108.931 474.5 241.5Z" stroke="#CC9423" stroke-width="3"/>
<ellipse cx="361" cy="241.5" rx="238" ry="241.5" fill="#CC9423"/>
<path d="M262.3 71.6C255.3 68.24 242 63.76 232.76 61.52L225.48 72.86C235.14 75.66 248.3 80.7 254.74 84.2L262.3 71.6ZM254.32 150.56H314.94V156.72H254.32V150.56ZM254.32 135.16H314.94V141.18H254.32V135.16ZM254.32 119.76H314.94V125.78H254.32V119.76ZM277 109.82C289.88 106.18 297.72 101.28 302.62 94.7C306.82 100.72 313.26 105.9 324.04 109.82H277ZM331.88 166.66V112.2C334.68 112.9 337.76 113.46 341.12 114.02C342.66 109.96 346.3 103.52 349.38 100.44C321.1 97.08 313.12 89.38 310.18 80.42H325.72C323.9 83.36 321.94 86.02 320.26 88.12L333.14 92.18C337.76 87 342.8 78.6 346.44 71.04L335.38 68.24L332.86 68.66H291.56C292.96 66.42 294.08 64.18 295.2 61.8L280.5 59.42C276.86 67.54 270 76.78 259.92 83.78C263.7 85.32 269.44 88.68 272.38 91.62C276.72 88.12 280.36 84.34 283.58 80.42H293.66C290.58 90.36 283.16 96.38 260.9 100.02L259.5 87.42C244.66 90.92 229.68 94.42 219.32 96.38L225.48 110.94C235.98 108 249 104.22 261.04 100.72L260.9 100.16C263.14 102.4 265.8 106.46 267.48 109.82H238.22V166.66H258.8C249.14 171.42 233.88 175.9 220.3 178.42C223.8 181.36 229.68 187.38 232.62 190.6C246.76 186.68 264.68 179.82 276.3 172.26L263.56 166.66H304.44L291.84 173.94C305.98 179.26 320.26 185.84 328.24 190.46L347.56 183.04C338.04 178.42 321.94 171.7 307.66 166.66H331.88ZM468.66 83.92C464.18 78.74 454.24 71.6 446.4 66.98L438.42 78.18C446.12 83.36 455.78 90.92 460.12 96.38L468.66 83.92ZM431.98 113.32C440.1 118.22 450.32 125.64 454.94 130.82L463.34 117.52C458.3 112.48 447.94 105.76 439.82 101.42L431.98 113.32ZM419.38 67.12C417.84 76.92 414.48 91.06 411.68 99.88L422.18 102.82C425.68 94.7 429.74 81.4 433.38 70.2L419.38 67.12ZM392.22 99.88C391.52 91.2 388.72 77.9 385.08 67.82L373.46 70.9C376.68 80.98 379.48 94.56 379.76 103.24L392.22 99.88ZM430.44 145.94C427.5 142.02 414.2 126.34 410.14 122.28V121.3H430.86V105.76H410.14V59.98H394.74V105.76H373.6V121.3H389.56C385.22 134.04 378.08 149.02 371.08 157.56C373.6 162.18 377.24 169.74 378.64 174.78C384.66 166.38 390.26 153.36 394.74 140.34V189.76H410.14V140.62C414.2 147.06 418.12 154.34 420.22 158.82L430.44 145.94ZM504.5 149.16L501.98 133.62L487.7 136.28V59.28H472.02V139.08L430.44 146.5L432.96 162.04L472.02 155.04V190.04H487.7V152.24L504.5 149.16ZM347.42 287.18V272.2H309.48V258.76H342.8V244.06H325.3C329.36 238.74 334.12 231.74 338.6 224.6L321.52 219.42C318.86 226.14 313.96 235.38 309.9 241.54L317.04 244.06H285.82L293.24 240.84C291.42 234.68 286.24 226 281.06 219.56L266.92 225.44C271.12 231.18 275.04 238.46 277.28 244.06H263.28V258.76H292.82V272.2H258.52V287.18H291C287.92 297.26 279.8 307.76 258.52 315.6C262.3 318.4 267.48 324.14 269.58 327.64C287.78 319.66 298 309.58 303.6 299.08C310.74 312.8 321.52 322.46 337.34 327.92C339.58 323.58 344.34 317.14 347.84 313.92C331.18 309.58 319.98 300.34 313.82 287.18H347.42ZM256.42 243.78C251.66 237.2 241.44 228.52 233.04 222.64L220.72 232.72C228.98 238.88 238.92 248.12 243.26 254.84L256.42 243.78ZM252.92 273.74H220.58V289H236.68V318.54C230.52 323.3 223.52 327.92 217.5 331.42L225.62 348.78C233.32 342.9 239.48 337.44 245.64 331.98C254.74 342.9 266.22 346.82 283.44 347.52C300.1 348.22 328.24 347.94 345.04 347.1C345.88 342.34 348.4 334.22 350.22 330.3C331.6 331.7 300.1 332.12 283.72 331.42C269.16 330.86 258.66 327.08 252.92 317.7V273.74ZM476.92 290.82V325.68H445.7V283.4H488.68V232.58H471.18V267.16H445.7V220.82H428.62V267.16H404.54V232.58H388.02V283.4H428.62V325.68H399.36V290.82H382.42V350.18H399.36V342.06H476.92V350.04H494.28V290.82H476.92Z" fill="#FF2600"/>
<path d="M312.664 380.896C313.816 380.08 314.44 378.736 314.84 377.472L313.816 377.12C313.448 378.288 312.76 379.504 311.688 380.24L312.664 380.896ZM319.64 370.288H314.76V371.12H319.64V370.288ZM318.376 374.704H316.024V373.04H318.376V374.704ZM319.272 375.584C319.528 375.776 319.96 376.192 320.136 376.4C320.808 375.92 321.448 375.344 322.024 374.672C322.824 375.84 323.768 376.544 324.744 376.544C325.752 376.544 326.184 375.984 326.376 373.984C326.072 373.888 325.672 373.664 325.448 373.456C325.368 374.896 325.208 375.456 324.808 375.472C324.152 375.472 323.416 374.848 322.744 373.76C323.496 372.736 324.12 371.552 324.568 370.24L323.464 369.984C323.144 370.96 322.712 371.856 322.168 372.672C321.736 371.696 321.368 370.528 321.128 369.216H326.008V368.224H324.248L324.744 367.632C324.232 367.216 323.256 366.768 322.472 366.512L321.848 367.216C322.552 367.456 323.368 367.856 323.88 368.224H320.968C320.904 367.696 320.856 367.152 320.84 366.608H319.704C319.736 367.152 319.784 367.696 319.848 368.224H313.096V370.608C313.096 372.24 312.92 374.48 311.576 376.128C311.816 376.256 312.296 376.64 312.44 376.864C313.896 375.072 314.184 372.464 314.184 370.624V369.216H319.992C320.296 370.912 320.808 372.448 321.432 373.664C320.824 374.384 320.136 375.008 319.384 375.504V372.208H315.032V375.552H319.32L319.272 375.584ZM317.032 376.48C318.04 376.992 319.192 377.808 319.736 378.416L320.552 377.664C319.992 377.056 318.808 376.288 317.816 375.824L317.032 376.48ZM317.992 379.952C317.128 379.952 317 379.872 317 379.472V377.008H315.816V379.488C315.816 380.704 316.248 381.024 317.896 381.024H321C322.344 381.024 322.696 380.576 322.856 378.704C322.52 378.64 322.024 378.464 321.768 378.272C321.72 379.76 321.608 379.952 320.904 379.952H317.992ZM322.52 377.472C323.672 378.416 324.84 379.744 325.272 380.72L326.328 380.144C325.832 379.152 324.648 377.856 323.496 376.944L322.52 377.472ZM333.64 367.168H329.976V368.128H333.64V367.168ZM334.024 369.264H329.272V370.24H334.024V369.264ZM333.672 371.424H329.912V372.368H333.672V371.424ZM329.912 374.496H333.672V373.536H329.912V374.496ZM332.728 379.328H330.808V376.656H332.728V379.328ZM333.704 375.68H329.88V381.04H330.808V380.288H333.704V375.68ZM335.672 373.616H337.8V374.896C337.064 375.04 336.344 375.184 335.672 375.312V373.616ZM337.8 369.136V370.448H335.672V369.136H337.8ZM337.8 372.688H335.672V371.36H337.8V372.688ZM338.792 373.92V368.224H337C337.176 367.792 337.352 367.296 337.528 366.816L336.376 366.592C336.28 367.056 336.136 367.696 335.96 368.224H334.696V375.488C334.424 375.536 334.168 375.584 333.928 375.616L334.184 376.608L337.128 375.968C336.168 377.216 334.952 378.304 333.704 379.088C333.928 379.312 334.312 379.76 334.472 379.984C335.64 379.152 336.808 378.064 337.8 376.816V379.936C337.8 380.16 337.72 380.24 337.512 380.24C337.304 380.24 336.616 380.256 335.832 380.224C335.992 380.496 336.168 380.944 336.216 381.232C337.24 381.232 337.864 381.2 338.264 381.04C338.648 380.848 338.792 380.512 338.792 379.936V375.44C339.064 375.008 339.304 374.576 339.528 374.144L338.792 373.92ZM341.336 376.864C341.24 375.808 340.872 374.224 340.392 372.992L339.512 373.2C339.976 374.432 340.328 376.048 340.392 377.088L341.336 376.864ZM343.96 370.544H343.064V366.752H341.96V370.544H339.128V371.648H341.96V379.856C341.96 380.096 341.864 380.16 341.672 380.176C341.448 380.176 340.744 380.192 339.944 380.16C340.104 380.48 340.248 380.976 340.296 381.264C341.384 381.264 342.072 381.232 342.472 381.04C342.904 380.864 343.064 380.528 343.064 379.84V371.648H343.96V370.544ZM350.472 366.672C349.576 369.104 348.088 371.488 346.52 373.024C346.744 373.296 347.064 373.904 347.192 374.192C347.736 373.6 348.296 372.944 348.808 372.208V381.184H349.944V370.432C350.568 369.344 351.128 368.192 351.592 367.008L350.472 366.672ZM353.384 373.424C352.952 375.312 352.2 377.216 351.192 378.432C351.48 378.592 351.992 378.896 352.216 379.088C353.192 377.76 354.04 375.744 354.552 373.648L353.384 373.424ZM360.152 370.784C360.024 371.6 359.88 372.448 359.784 373.024L360.776 373.216C360.984 372.368 361.272 370.992 361.48 369.824L360.664 369.632L360.472 369.68H353.992C354.312 368.8 354.6 367.872 354.84 366.944L353.672 366.688C353.144 369.024 352.216 371.312 351.048 372.784C351.304 372.96 351.8 373.36 351.992 373.536C352.568 372.784 353.096 371.84 353.544 370.784H355.976V379.776C355.976 379.984 355.912 380.048 355.704 380.048C355.496 380.048 354.808 380.064 354.056 380.032C354.216 380.368 354.408 380.896 354.472 381.232C355.48 381.232 356.152 381.2 356.584 380.992C357 380.8 357.144 380.448 357.144 379.776V370.784H360.152ZM358.312 373.648C359.16 375.328 359.96 377.568 360.216 379.024L361.352 378.64C361.08 377.184 360.264 374.992 359.352 373.296L358.312 373.648ZM369.688 373.584H366.328V370.24H369.688V373.584ZM366.328 378.48V374.64H369.688V378.48H366.328ZM367.672 366.576C367.56 367.328 367.272 368.4 367.032 369.168H365.24V380.816H366.328V379.552H370.776V369.168H368.12C368.392 368.48 368.68 367.6 368.952 366.816L367.672 366.576ZM378.6 369.12H373.816C374.088 368.368 374.312 367.6 374.504 366.816L373.368 366.544C372.856 368.736 371.992 370.944 370.92 372.352C371.176 372.512 371.688 372.832 371.896 373.024C372.456 372.272 372.952 371.296 373.4 370.224H377.464C377.256 376.592 377.016 379.024 376.488 379.584C376.328 379.792 376.152 379.824 375.832 379.824C375.464 379.824 374.504 379.824 373.464 379.728C373.688 380.064 373.832 380.544 373.864 380.896C374.76 380.944 375.672 380.976 376.232 380.912C376.776 380.864 377.144 380.72 377.496 380.272C378.136 379.488 378.344 377.024 378.6 369.728V369.12ZM376.072 376.32C375.56 375.376 374.456 373.84 373.56 372.704L372.632 373.248C373.512 374.4 374.584 375.984 375.064 376.944L376.072 376.32ZM383.368 369.696C385.864 369.6 389.624 369.456 393.208 369.312C393.656 369.68 394.056 370.048 394.344 370.352L395.256 369.808C394.472 368.976 392.888 367.808 391.592 367.04L390.712 367.52C391.16 367.792 391.624 368.112 392.072 368.432C390.392 368.496 388.712 368.544 387.176 368.592C387.592 368.048 388.024 367.424 388.408 366.816L387.192 366.576C386.888 367.168 386.392 367.984 385.928 368.624C384.952 368.656 384.056 368.672 383.304 368.688L383.368 369.696ZM393.464 376.896C391.672 378.72 388.12 379.792 384.248 380.256C384.456 380.512 384.68 380.944 384.808 381.216C388.824 380.656 392.472 379.472 394.44 377.376L393.464 376.896ZM389.832 373.744C388.68 374.656 386.552 375.488 384.84 375.952C385.08 376.16 385.352 376.464 385.528 376.688C387.288 376.16 389.4 375.232 390.712 374.176L389.832 373.744ZM391.576 375.28C390.104 376.48 387.384 377.44 384.952 377.92C385.176 378.176 385.432 378.544 385.576 378.784C388.104 378.192 390.84 377.136 392.488 375.744L391.576 375.28ZM396.616 373.136C396.28 372.432 395.496 371.472 394.792 370.768L393.944 371.136C394.2 371.408 394.472 371.728 394.728 372.032C393.88 372.096 393.08 372.128 392.36 372.176C392.696 371.568 393.048 370.864 393.384 370.208L392.296 369.92C392.088 370.592 391.704 371.52 391.352 372.224H391.128C390.632 371.808 390.184 371.344 389.784 370.864H388.744C388.44 371.28 388.088 371.696 387.656 372.096C387.432 371.696 387.144 371.264 386.856 370.912L385.992 371.216C386.2 371.472 386.392 371.776 386.584 372.064L384.664 372.208C385.032 371.616 385.416 370.896 385.784 370.256L384.696 369.984C384.44 370.64 384.008 371.568 383.608 372.272C383.128 372.304 382.696 372.336 382.312 372.352L382.408 373.264C383.624 373.168 385.16 373.04 386.728 372.896C385.4 373.936 383.752 374.848 382.008 375.424C382.216 375.648 382.456 376.032 382.568 376.288C385.288 375.28 387.96 373.536 389.32 371.808C390.904 373.696 393.736 375.328 396.232 376.144C396.376 375.856 396.6 375.472 396.84 375.216C395.304 374.8 393.656 374.048 392.216 373.056C393.16 372.976 394.216 372.88 395.256 372.768C395.448 373.056 395.608 373.328 395.72 373.552L396.616 373.136ZM404.328 377.808C403.352 378.688 401.432 379.776 399.896 380.4C400.184 380.624 400.584 381.024 400.792 381.248C402.296 380.576 404.2 379.488 405.432 378.528L404.328 377.808ZM408.472 378.56C410.184 379.408 412.008 380.48 413.064 381.264L414.168 380.448C412.984 379.664 411.08 378.608 409.336 377.776L408.472 378.56ZM412.616 376.432C412.744 374.096 412.84 370.4 412.856 367.632H409.448V368.656H411.752C411.752 369.264 411.736 369.904 411.72 370.544H409.608V371.552H411.704C411.688 372.208 411.656 372.864 411.64 373.504H409.576V374.512H411.592C411.56 375.216 411.528 375.856 411.48 376.432H408.824V371.056H406.312V369.392H409.128V368.384H406.312V366.752H405.272V372.016H407.784V376.432H406.248V372.72H405.256V376.432H402.504L402.44 374.512H404.472V373.504H402.392L402.328 371.552H404.456V370.544H402.296L402.232 368.848C403.144 368.48 404.136 368.048 404.968 367.616L404.04 366.768C403.528 367.12 402.712 367.584 401.912 367.968L401.112 367.728L401.416 376.432H399.768V377.552H414.264V376.432H412.616ZM284.984 389.6H286.024V388.608H288.056V389.6H289.112V388.608H291.032V387.712H289.112V386.624H288.056V387.712H286.024V386.624H284.984V387.712H283.08V388.608H284.984V389.6ZM285.304 398.528H287.16V399.488H285.304V398.528ZM287.16 396.016H285.304V395.072H287.16V396.016ZM287.16 397.744H285.304V396.8H287.16V397.744ZM284.424 390.704H285.784V392.096H284.424V390.704ZM289.672 392.096H288.2V390.704H289.672V392.096ZM294.552 390.56H296.296C296.184 391.552 296.04 392.624 295.848 393.344L296.712 393.792C297.048 392.736 297.352 391.088 297.528 389.696L296.76 389.408L296.568 389.472H292.888C293.096 388.608 293.24 387.696 293.368 386.768L292.216 386.592C291.928 388.896 291.432 391.168 290.568 392.72V389.92H287.352V392.88H290.472L290.344 393.088C290.632 393.232 291.128 393.584 291.336 393.776C291.848 392.896 292.28 391.792 292.616 390.56H293.416V392.768C293.432 393.904 293.096 397.44 290.68 399.68V399.488H288.184V398.528H290.232V397.744H288.184V396.8H290.232V396.016H288.184V395.072H290.648V394.208H288.2C288.36 393.904 288.536 393.552 288.712 393.216L287.64 392.944C287.544 393.296 287.368 393.776 287.176 394.208H285.56C285.72 393.856 285.864 393.488 285.992 393.12L285.048 392.88H286.664V389.92H283.576V392.88H284.984C284.504 394.32 283.704 395.728 282.792 396.688C282.984 396.896 283.336 397.36 283.48 397.568C283.768 397.264 284.04 396.912 284.296 396.528V401.184H285.304V400.336H290.024C290.232 400.576 290.52 400.992 290.648 401.2C293.016 399.504 293.832 396.528 293.976 395.232C294.12 396.496 294.84 399.568 297 401.2C297.176 400.928 297.512 400.448 297.736 400.208C294.952 398.128 294.552 394 294.552 392.768V390.56ZM310.92 388.832H313.496V396C313.496 396.192 313.432 396.256 313.24 396.256C313.032 396.256 312.424 396.272 311.72 396.24C311.864 396.512 312.024 396.976 312.088 397.264C313.048 397.264 313.688 397.248 314.072 397.088C314.488 396.896 314.6 396.576 314.6 396.016V387.792H309.848V399.2H310.92V388.832ZM304.824 397.488C306.088 397.12 307.768 396.624 309.336 396.16L309.192 395.136C308.328 395.376 307.464 395.616 306.664 395.84V388.848C307.704 388.448 308.808 387.968 309.672 387.456L308.792 386.576C308.2 387.04 307.176 387.584 306.232 388.016L305.56 387.824V396.128C305.176 396.24 304.824 396.32 304.52 396.4L304.824 397.488ZM304.168 389.632C303.72 388.832 302.664 387.728 301.72 386.976L300.808 387.584C301.736 388.368 302.76 389.504 303.176 390.304L304.168 389.632ZM303.8 392.88H300.728V394H302.696V398.128C301.992 398.8 301.208 399.472 300.536 399.968L301.16 401.072C301.928 400.368 302.648 399.696 303.32 398.992C304.312 400.256 305.768 400.832 307.88 400.912C309.688 400.976 313.144 400.944 314.952 400.864C315 400.528 315.192 400 315.336 399.744C313.384 399.872 309.656 399.92 307.848 399.84C305.976 399.76 304.552 399.216 303.8 398.016V392.88ZM323.098 400H321.723V392.867C321.723 392.643 321.723 392.404 321.723 392.148C321.729 391.893 321.734 391.641 321.739 391.391C321.749 391.135 321.757 390.893 321.763 390.664C321.773 390.43 321.781 390.224 321.786 390.047C321.697 390.141 321.619 390.221 321.552 390.289C321.484 390.357 321.414 390.422 321.341 390.484C321.273 390.547 321.2 390.615 321.122 390.688C321.044 390.755 320.95 390.836 320.841 390.93L319.684 391.875L318.934 390.914L321.927 388.578H323.098V400ZM334.152 386.68L329.956 402.648H328.628L332.839 386.68H334.152ZM341.986 400H340.611V392.867C340.611 392.643 340.611 392.404 340.611 392.148C340.616 391.893 340.621 391.641 340.627 391.391C340.637 391.135 340.645 390.893 340.65 390.664C340.66 390.43 340.668 390.224 340.673 390.047C340.585 390.141 340.507 390.221 340.439 390.289C340.371 390.357 340.301 390.422 340.228 390.484C340.16 390.547 340.088 390.615 340.009 390.688C339.931 390.755 339.838 390.836 339.728 390.93L338.572 391.875L337.822 390.914L340.814 388.578H341.986V400ZM352.398 400H351.023V392.867C351.023 392.643 351.023 392.404 351.023 392.148C351.029 391.893 351.034 391.641 351.039 391.391C351.049 391.135 351.057 390.893 351.062 390.664C351.073 390.43 351.081 390.224 351.086 390.047C350.997 390.141 350.919 390.221 350.852 390.289C350.784 390.357 350.714 390.422 350.641 390.484C350.573 390.547 350.5 390.615 350.422 390.688C350.344 390.755 350.25 390.836 350.141 390.93L348.984 391.875L348.234 390.914L351.227 388.578H352.398V400ZM371.032 386.944C370.728 387.76 370.152 388.944 369.704 389.664L370.632 390.048C371.096 389.344 371.656 388.304 372.12 387.376L371.032 386.944ZM370.6 392.672H365.896V391.328H370.6V392.672ZM370.6 394.896H365.896V393.552H370.6V394.896ZM370.6 397.152H365.896V395.776H370.6V397.152ZM364.824 390.416V398.064H371.736V390.416H368.76V386.608H367.656V390.416H364.824ZM366.6 389.616C366.408 388.928 365.832 387.84 365.32 387.04L364.36 387.424C364.872 388.24 365.416 389.344 365.624 390.048L366.6 389.616ZM364.136 398.448C363.32 398.608 362.504 398.784 361.72 398.944V394.304H364.008V393.264H361.72V391.568H363.592V390.544H359.304C360.184 389.584 360.84 388.56 361.32 387.712C362.184 388.512 363.112 389.648 363.592 390.352L364.392 389.456C363.832 388.656 362.664 387.456 361.704 386.624H360.632C360.104 387.888 359.08 389.504 357.64 390.72C357.848 390.864 358.2 391.232 358.376 391.472C358.6 391.264 358.824 391.056 359.032 390.848V391.568H360.68V393.264H358.184V394.304H360.68V399.152C359.688 399.344 358.776 399.504 358.04 399.632L358.28 400.736C359.928 400.368 362.12 399.92 364.216 399.456L364.136 398.448ZM358.552 395.36C358.856 396.32 359.096 397.552 359.128 398.384L360.008 398.16C359.96 397.344 359.704 396.112 359.368 395.152L358.552 395.36ZM363.08 398.096C363.32 397.36 363.624 396.224 363.88 395.248L362.952 395.008C362.824 395.856 362.52 397.12 362.296 397.888L363.08 398.096ZM366.424 398.32C365.72 399.04 364.28 399.92 363.096 400.4C363.304 400.64 363.64 401.008 363.8 401.232C365.016 400.704 366.488 399.824 367.416 398.96L366.424 398.32ZM369.08 398.96C370.04 399.632 371.128 400.544 371.704 401.216L372.712 400.608C372.072 399.936 370.952 399.056 369.912 398.368L369.08 398.96ZM377.384 389.568H388.28V391.904H389.496V388.448H383.448V386.624H382.216V388.448H376.216V391.904H377.384V389.568ZM383.448 396.368H388.184V395.264H383.448V392.608H387.528V391.488H378.264V392.608H382.232V399.312C380.92 398.816 379.896 397.904 379.288 396.224C379.448 395.552 379.576 394.848 379.672 394.096L378.456 393.984C378.104 396.848 377.24 399.12 375.464 400.496C375.752 400.672 376.248 401.088 376.44 401.296C377.48 400.384 378.264 399.2 378.824 397.728C380.28 400.432 382.664 401.008 385.976 401.008H389.688C389.736 400.656 389.944 400.096 390.136 399.808C389.368 399.824 386.616 399.824 386.04 399.824C385.112 399.824 384.232 399.776 383.448 399.632V396.368ZM407.4 391.152V389.968H401.064V386.624H399.832V389.968H393.544V391.152H399.096C397.752 393.888 395.432 396.48 393 397.744C393.272 397.968 393.672 398.416 393.848 398.704C396.2 397.344 398.36 394.928 399.832 392.16V397.056H396.712V398.24H399.832V401.216H401.064V398.24H404.104V397.056H401.064V392.16C402.504 394.928 404.648 397.36 407.064 398.688C407.24 398.352 407.656 397.888 407.944 397.648C405.432 396.432 403.128 393.888 401.8 391.152H407.4ZM411.528 395.68C411.352 397.072 411.048 398.512 410.552 399.488C410.776 399.568 411.256 399.776 411.432 399.92C411.944 398.896 412.312 397.36 412.536 395.856L411.528 395.68ZM414.808 395.904C415.208 396.816 415.528 398.032 415.608 398.8L416.536 398.528C416.44 397.744 416.088 396.56 415.688 395.648L414.808 395.904ZM420.28 397.808C419.992 397.808 419.928 397.68 419.928 397.264V394.992H423.32V394.048H421.224V392.416H423.224V391.472H422.008C422.328 390.864 422.712 390 423.064 389.232L422.104 388.912C421.928 389.6 421.56 390.608 421.256 391.248L421.848 391.472H419.336L420.072 391.2C419.976 390.624 419.672 389.712 419.304 389.024L418.536 389.296C418.872 389.968 419.16 390.864 419.256 391.472H418.36V392.416H420.2V394.048H418.232V394.992H418.904V397.248C418.904 398.384 419.176 398.752 420.28 398.752H422.152C422.52 398.752 422.888 398.752 423.112 398.704C423.08 398.448 423.032 398 423.016 397.744C422.792 397.792 422.36 397.808 422.136 397.808H420.28ZM424.936 387.376H416.696V394.624C416.408 393.76 415.848 392.608 415.256 391.712L414.392 392.064C414.648 392.48 414.888 392.944 415.112 393.408L412.808 393.52C413.896 392.16 415.096 390.352 416.008 388.896L415.016 388.432C414.568 389.296 413.96 390.336 413.304 391.328C413.064 391.008 412.776 390.656 412.44 390.304C413.048 389.408 413.736 388.112 414.28 387.008L413.24 386.624C412.904 387.504 412.344 388.72 411.816 389.632C411.656 389.472 411.496 389.328 411.336 389.184L410.696 389.936C411.416 390.624 412.216 391.536 412.68 392.256C412.344 392.736 412.008 393.184 411.688 393.584L410.584 393.632L410.696 394.704L413.208 394.544V401.216H414.264V394.48L415.528 394.4C415.688 394.768 415.8 395.12 415.864 395.424L416.696 395.04V401.248H417.752V388.432H423.848V399.888C423.848 400.112 423.784 400.176 423.576 400.192C423.352 400.192 422.648 400.208 421.912 400.176C422.072 400.464 422.232 400.944 422.264 401.216C423.288 401.232 423.96 401.2 424.392 401.04C424.792 400.848 424.936 400.528 424.936 399.888V387.376ZM434.744 389.776H432.264V386.816H431.16V389.776H428.632V390.88H434.744V389.776ZM430.92 397.104C430.888 395.568 430.6 393.312 430.216 391.536L429.24 391.712C429.608 393.488 429.88 395.776 429.88 397.28L430.92 397.104ZM433.128 397.216C433.464 395.648 433.848 393.392 434.104 391.584L432.936 391.36C432.792 393.2 432.392 395.856 432.04 397.456C430.632 397.76 429.32 398.048 428.328 398.24L428.584 399.424C430.328 399.008 432.744 398.448 435 397.92L434.872 396.816L433.128 397.216ZM441.08 399.344H436.28V395.328H441.08V399.344ZM442.968 391.04V389.92H439.016V386.608H437.8V394.208H435.144V401.2H436.28V400.448H441.08V401.136H442.296V394.208H439.016V391.04H442.968ZM270.472 415.728H263.528V414.624H270.472V415.728ZM263.528 419.68V418.496H270.472V419.68H263.528ZM270.472 417.664H263.528V416.544H270.472V417.664ZM273.208 412.576V411.584H264.824C265.016 411.2 265.192 410.8 265.352 410.416H272.28V409.456H265.688C265.816 409.056 265.944 408.672 266.056 408.272C268.344 408.144 270.52 407.936 272.12 407.6L271.368 406.736C268.856 407.248 264.008 407.504 260.136 407.536C260.248 407.792 260.36 408.176 260.376 408.448C261.752 408.448 263.256 408.416 264.744 408.336C264.648 408.72 264.536 409.088 264.408 409.456H260.36V410.416H264.056C263.912 410.8 263.72 411.2 263.528 411.584H259.192V412.576H262.968C261.976 414.24 260.6 415.728 258.808 416.768C259.032 416.976 259.384 417.408 259.544 417.68C260.632 417.024 261.576 416.224 262.392 415.328V421.264H263.528V420.64H270.472V421.264H271.64V413.68H263.672C263.912 413.328 264.12 412.944 264.328 412.576H273.208ZM288.072 415.728H281.128V414.624H288.072V415.728ZM281.128 419.68V418.496H288.072V419.68H281.128ZM288.072 417.664H281.128V416.544H288.072V417.664ZM290.808 412.576V411.584H282.424C282.616 411.2 282.792 410.8 282.952 410.416H289.88V409.456H283.288C283.416 409.056 283.544 408.672 283.656 408.272C285.944 408.144 288.12 407.936 289.72 407.6L288.968 406.736C286.456 407.248 281.608 407.504 277.736 407.536C277.848 407.792 277.96 408.176 277.976 408.448C279.352 408.448 280.856 408.416 282.344 408.336C282.248 408.72 282.136 409.088 282.008 409.456H277.96V410.416H281.656C281.512 410.8 281.32 411.2 281.128 411.584H276.792V412.576H280.568C279.576 414.24 278.2 415.728 276.408 416.768C276.632 416.976 276.984 417.408 277.144 417.68C278.232 417.024 279.176 416.224 279.992 415.328V421.264H281.128V420.64H288.072V421.264H289.24V413.68H281.272C281.512 413.328 281.72 412.944 281.928 412.576H290.808ZM305.496 409.472H297.224V408.176H305.496V409.472ZM305.496 411.632H297.224V410.336H305.496V411.632ZM306.68 407.264H296.056V412.544H306.68V407.264ZM302.12 417.52H307.4V416.464H302.12V414.688H308.44V413.616H294.392V414.688H300.952V419.504C299.576 419.136 298.552 418.4 297.928 416.96C298.088 416.448 298.232 415.92 298.344 415.36L297.144 415.2C296.712 417.536 295.704 419.328 294.04 420.4C294.296 420.592 294.76 421.04 294.92 421.248C295.96 420.48 296.792 419.488 297.416 418.24C298.712 420.4 300.744 420.912 303.96 420.912H308.312C308.376 420.56 308.568 420.048 308.728 419.776C307.912 419.792 304.6 419.792 304.008 419.792C303.336 419.792 302.696 419.76 302.12 419.696V417.52ZM313.512 420H315.064L316.392 416.416H321.384L322.712 420H324.328L319.8 408.24H317.992L313.512 420ZM316.744 415.264L317.448 413.392C317.928 412.08 318.408 410.8 318.856 409.44H318.92C319.4 410.784 319.864 412.064 320.344 413.392L321.048 415.264H316.744ZM332.584 420H340.648V418.752H337.336V409.52H340.648V408.24H332.584V409.52H335.864V418.752H332.584V420ZM359.384 409.344H357.72V407.856H359.384V409.344ZM356.776 409.344H355.128V407.856H356.776V409.344ZM354.168 409.344H352.584V407.856H354.168V409.344ZM360.456 407.088H351.56V410.112H360.456V407.088ZM361.304 410.864H350.696V411.76H361.304V410.864ZM353.16 413.248H358.808V414.608H353.16V413.248ZM356.36 415.376L356.376 415.36H359.656C359.16 415.824 358.504 416.368 357.944 416.768C357.304 416.368 356.76 415.92 356.36 415.44V415.376ZM356.36 419.312V416.704C357.48 417.728 359.016 418.544 360.584 418.944C360.744 418.672 361.032 418.256 361.272 418.032C360.392 417.856 359.512 417.568 358.728 417.184C359.416 416.752 360.2 416.16 360.872 415.584L360.024 415.008L359.976 415.056V412.496H352.056V415.36H354.984C353.912 416.32 352.392 417.136 350.936 417.68C351.16 417.888 351.496 418.336 351.656 418.56C352.872 418.048 354.152 417.296 355.24 416.416V419.312H356.36ZM350.632 409.616C350.136 408.832 349.032 407.744 348.056 407.008L347.144 407.68C348.12 408.448 349.192 409.552 349.672 410.352L350.632 409.616ZM350.152 412.88H347V414H349.032V418.096C348.312 418.768 347.496 419.44 346.824 419.936L347.448 421.072C348.232 420.384 348.968 419.712 349.672 419.024C350.664 420.272 352.104 420.832 354.2 420.912C355.992 420.992 359.368 420.96 361.16 420.88C361.208 420.528 361.4 419.984 361.544 419.712C359.624 419.84 355.944 419.888 354.184 419.808C352.312 419.744 350.904 419.2 350.152 418.016V412.88ZM375.896 409.472H367.624V408.176H375.896V409.472ZM375.896 411.632H367.624V410.336H375.896V411.632ZM377.08 407.264H366.456V412.544H377.08V407.264ZM372.52 417.52H377.8V416.464H372.52V414.688H378.84V413.616H364.792V414.688H371.352V419.504C369.976 419.136 368.952 418.4 368.328 416.96C368.488 416.448 368.632 415.92 368.744 415.36L367.544 415.2C367.112 417.536 366.104 419.328 364.44 420.4C364.696 420.592 365.16 421.04 365.32 421.248C366.36 420.48 367.192 419.488 367.816 418.24C369.112 420.4 371.144 420.912 374.36 420.912H378.712C378.776 420.56 378.968 420.048 379.128 419.776C378.312 419.792 375 419.792 374.408 419.792C373.736 419.792 373.096 419.76 372.52 419.696V417.52ZM385.672 406.672C384.776 409.104 383.288 411.488 381.72 413.024C381.944 413.296 382.264 413.904 382.392 414.192C382.936 413.6 383.496 412.944 384.008 412.208V421.184H385.144V410.432C385.768 409.344 386.328 408.192 386.792 407.008L385.672 406.672ZM388.584 413.424C388.152 415.312 387.4 417.216 386.392 418.432C386.68 418.592 387.192 418.896 387.416 419.088C388.392 417.76 389.24 415.744 389.752 413.648L388.584 413.424ZM395.352 410.784C395.224 411.6 395.08 412.448 394.984 413.024L395.976 413.216C396.184 412.368 396.472 410.992 396.68 409.824L395.864 409.632L395.672 409.68H389.192C389.512 408.8 389.8 407.872 390.04 406.944L388.872 406.688C388.344 409.024 387.416 411.312 386.248 412.784C386.504 412.96 387 413.36 387.192 413.536C387.768 412.784 388.296 411.84 388.744 410.784H391.176V419.776C391.176 419.984 391.112 420.048 390.904 420.048C390.696 420.048 390.008 420.064 389.256 420.032C389.416 420.368 389.608 420.896 389.672 421.232C390.68 421.232 391.352 421.2 391.784 420.992C392.2 420.8 392.344 420.448 392.344 419.776V410.784H395.352ZM393.512 413.648C394.36 415.328 395.16 417.568 395.416 419.024L396.552 418.64C396.28 417.184 395.464 414.992 394.552 413.296L393.512 413.648ZM404.888 413.584H401.528V410.24H404.888V413.584ZM401.528 418.48V414.64H404.888V418.48H401.528ZM402.872 406.576C402.76 407.328 402.472 408.4 402.232 409.168H400.44V420.816H401.528V419.552H405.976V409.168H403.32C403.592 408.48 403.88 407.6 404.152 406.816L402.872 406.576ZM413.8 409.12H409.016C409.288 408.368 409.512 407.6 409.704 406.816L408.568 406.544C408.056 408.736 407.192 410.944 406.12 412.352C406.376 412.512 406.888 412.832 407.096 413.024C407.656 412.272 408.152 411.296 408.6 410.224H412.664C412.456 416.592 412.216 419.024 411.688 419.584C411.528 419.792 411.352 419.824 411.032 419.824C410.664 419.824 409.704 419.824 408.664 419.728C408.888 420.064 409.032 420.544 409.064 420.896C409.96 420.944 410.872 420.976 411.432 420.912C411.976 420.864 412.344 420.72 412.696 420.272C413.336 419.488 413.544 417.024 413.8 409.728V409.12ZM411.272 416.32C410.76 415.376 409.656 413.84 408.76 412.704L407.832 413.248C408.712 414.4 409.784 415.984 410.264 416.944L411.272 416.32ZM430.136 412.384H425.464V410.832H430.136V412.384ZM430.136 414.8H425.464V413.232H430.136V414.8ZM430.136 417.264H425.464V415.696H430.136V417.264ZM424.36 409.904V418.192H431.256V409.904H427.944C428.088 409.44 428.248 408.912 428.392 408.384H431.816V407.36H423.752V408.384H427.08C427 408.88 426.888 409.424 426.776 409.904H424.36ZM422.728 416.064C423.176 415.2 423.656 413.808 424.088 412.576L423.352 412.384L423.176 412.432H422.008L422.392 411.936C422.088 411.616 421.64 411.248 421.144 410.896C422.04 410.048 422.968 408.896 423.624 407.824L422.888 407.312L422.648 407.392H417.608V408.448H421.896C421.432 409.104 420.856 409.792 420.312 410.32C419.768 409.984 419.208 409.648 418.696 409.376L418.056 410.144C419.192 410.752 420.504 411.664 421.336 412.432H417.256V413.488H419.88V419.808C419.88 420 419.816 420.064 419.576 420.064C419.368 420.08 418.632 420.08 417.816 420.064C417.976 420.368 418.136 420.864 418.184 421.184C419.288 421.184 419.992 421.168 420.44 420.976C420.904 420.8 421.032 420.448 421.032 419.824V413.488H422.712C422.44 414.352 422.12 415.232 421.848 415.824L422.728 416.064ZM425.944 418.496C425.256 419.2 423.816 420.016 422.568 420.464C422.792 420.672 423.176 421.04 423.352 421.264C424.632 420.8 426.104 419.936 426.984 419.104L425.944 418.496ZM428.408 419.168C429.384 419.776 430.6 420.672 431.208 421.264L432.136 420.576C431.496 419.984 430.264 419.12 429.304 418.56L428.408 419.168ZM440.248 411.328H442.776V413.296H440.248V411.328ZM440.248 414.288H442.776V416.288H440.248V414.288ZM440.248 408.384H442.776V410.336H440.248V408.384ZM439.224 407.328V417.328H443.848V407.328H439.224ZM442.04 418.112C442.68 418.896 443.464 419.984 443.816 420.656L444.76 420.064C444.392 419.424 443.592 418.368 442.936 417.616L442.04 418.112ZM439.88 417.664C439.416 418.752 438.6 419.872 437.752 420.608C438.008 420.768 438.488 421.088 438.68 421.264C439.528 420.464 440.44 419.184 440.984 417.952L439.88 417.664ZM447.832 406.624V419.744C447.832 420.016 447.72 420.096 447.448 420.096C447.208 420.112 446.36 420.128 445.416 420.096C445.576 420.4 445.72 420.912 445.768 421.216C447.08 421.216 447.832 421.184 448.28 420.992C448.728 420.8 448.904 420.464 448.904 419.728V406.624H447.832ZM445.048 408.256V417.344H446.104V408.256H445.048ZM435.544 407.632C436.44 408.08 437.544 408.816 438.056 409.344L438.76 408.4C438.216 407.872 437.128 407.2 436.232 406.784L435.544 407.632ZM434.856 411.904C435.8 412.32 436.936 412.992 437.48 413.488L438.152 412.512C437.592 412.016 436.456 411.408 435.528 411.04L434.856 411.904ZM435.192 420.384L436.264 421.024C436.952 419.552 437.752 417.6 438.344 415.936L437.384 415.312C436.744 417.104 435.832 419.152 435.192 420.384ZM461.496 410.496H458.904V409.328H461.496V410.496ZM461.496 412.528H458.904V411.392H461.496V412.528ZM461.496 414.64H458.904V413.424H461.496V414.64ZM457.768 415.6H466.68V414.64H462.616V413.424H465.816V412.528H462.616V411.392H465.784V410.496H462.616V409.328H466.248V408.368H462.712C463 407.904 463.32 407.376 463.608 406.864L462.344 406.624C462.136 407.12 461.832 407.808 461.512 408.368H459.288C459.608 407.888 459.88 407.376 460.12 406.88L458.984 406.544C458.264 408.112 457.048 409.632 455.752 410.624C456.024 410.816 456.488 411.232 456.68 411.44C457.048 411.12 457.416 410.768 457.768 410.368V415.6ZM453.784 416.144C454.744 415.104 455.816 413.872 456.728 412.752L456.088 411.952C455.048 413.168 453.816 414.464 452.952 415.232L453.784 416.144ZM456.856 407.904C456.264 407.52 455.16 406.992 454.28 406.704L453.688 407.52C454.568 407.856 455.656 408.432 456.232 408.832L456.856 407.904ZM455.672 410.4C455.096 410.064 453.944 409.584 453.08 409.328L452.488 410.16C453.368 410.464 454.52 410.96 455.08 411.344L455.672 410.4ZM466.968 417.024H460.344V415.712H459.144V417.024H452.696V418.096H459.144V421.232H460.344V418.096H466.968V417.024Z" fill="#F2F2F2"/>
</svg>
