<svg width="476" height="483" viewBox="0 0 476 483" fill="none" xmlns="http://www.w3.org/2000/svg">
<path d="M474.5 241.5C474.5 374.069 368.595 481.5 238 481.5C107.405 481.5 1.5 374.069 1.5 241.5C1.5 108.931 107.405 1.5 238 1.5C368.595 1.5 474.5 108.931 474.5 241.5Z" fill="#CC9423" stroke="#CC9423" stroke-width="3"/>
<path d="M143.48 222V223.5H144.98V222H143.48ZM75.02 222H73.52V223.5H75.02V222ZM75.02 208.98L73.9536 207.925L73.52 208.363V208.98H75.02ZM100.5 183.22L101.566 184.275L101.57 184.271L100.5 183.22ZM112.82 170.06L111.704 169.058L111.696 169.066L111.689 169.074L112.82 170.06ZM119.96 159.84L118.611 159.185L118.607 159.193L118.603 159.201L119.96 159.84ZM118.42 139.12L117.421 140.239L117.432 140.249L117.444 140.259L118.42 139.12ZM96.3 138.28L96.9286 139.642L96.9428 139.635L96.957 139.628L96.3 138.28ZM84.96 145.56L83.8065 146.519L84.753 147.657L85.9038 146.726L84.96 145.56ZM75.3 133.94L74.3196 132.805L73.2055 133.767L74.1465 134.899L75.3 133.94ZM89.3 124.7L89.9708 126.042L89.9803 126.037L89.9898 126.032L89.3 124.7ZM125.7 124.14L125.029 125.482L125.04 125.487L125.051 125.492L125.7 124.14ZM136.34 133.52L135.056 134.296L135.063 134.307L135.07 134.318L136.34 133.52ZM136.9 162.5L138.253 163.148L138.258 163.137L136.9 162.5ZM127.52 176.08L126.404 175.078L126.403 175.079L127.52 176.08ZM113.1 190.64L112.077 189.543L112.068 189.552L112.059 189.56L113.1 190.64ZM97.28 205.9L96.2386 204.82L95.78 205.263V205.9H97.28ZM97.28 206.74H95.78V208.24H97.28V206.74ZM143.48 206.74H144.98V205.24H143.48V206.74ZM143.48 220.5H75.02V223.5H143.48V220.5ZM76.52 222V208.98H73.52V222H76.52ZM76.0864 210.035L101.566 184.275L99.4336 182.165L73.9536 207.925L76.0864 210.035ZM101.57 184.271C106.622 179.126 110.751 174.716 113.951 171.046L111.689 169.074C108.542 172.684 104.458 177.048 99.4297 182.169L101.57 184.271ZM113.936 171.062C117.265 167.353 119.743 163.825 121.317 160.479L118.603 159.201C117.191 162.202 114.908 165.487 111.704 169.058L113.936 171.062ZM121.309 160.495C122.998 157.019 123.84 153.294 123.84 149.34H120.84C120.84 152.853 120.095 156.128 118.611 159.185L121.309 160.495ZM123.84 149.34C123.84 144.481 122.443 140.592 119.396 137.981L117.444 140.259C119.624 142.128 120.84 145.052 120.84 149.34H123.84ZM119.419 138.001C116.472 135.37 112.635 134.12 108.06 134.12V137.12C112.072 137.12 115.141 138.203 117.421 140.239L119.419 138.001ZM108.06 134.12C103.641 134.12 99.4954 135.055 95.643 136.932L96.957 139.628C100.385 137.959 104.079 137.12 108.06 137.12V134.12ZM95.6714 136.918C91.894 138.661 88.0092 141.162 84.0162 144.394L85.9038 146.726C89.7508 143.612 93.426 141.259 96.9286 139.642L95.6714 136.918ZM86.1135 144.601L76.4535 132.981L74.1465 134.899L83.8065 146.519L86.1135 144.601ZM76.2804 135.075C80.2859 131.616 84.847 128.604 89.9708 126.042L88.6292 123.358C83.2996 126.023 78.5274 129.171 74.3196 132.805L76.2804 135.075ZM89.9898 126.032C94.9422 123.467 101.267 122.14 109.04 122.14V119.14C100.946 119.14 94.1111 120.519 88.6102 123.368L89.9898 126.032ZM109.04 122.14C115.301 122.14 120.614 123.274 125.029 125.482L126.371 122.798C121.453 120.339 115.659 119.14 109.04 119.14V122.14ZM125.051 125.492C129.483 127.62 132.796 130.558 135.056 134.296L137.624 132.744C135.03 128.455 131.25 125.14 126.349 122.788L125.051 125.492ZM135.07 134.318C137.422 138.064 138.62 142.447 138.62 147.52H141.62C141.62 141.953 140.298 137.003 137.61 132.722L135.07 134.318ZM138.62 147.52C138.62 152.729 137.589 157.503 135.542 161.863L138.258 163.137C140.505 158.351 141.62 153.138 141.62 147.52H138.62ZM135.547 161.852C133.475 166.177 130.437 170.587 126.404 175.078L128.636 177.082C132.816 172.427 136.032 167.783 138.253 163.148L135.547 161.852ZM126.403 175.079C122.426 179.518 117.652 184.339 112.077 189.543L114.123 191.737C119.748 186.487 124.587 181.602 128.637 177.081L126.403 175.079ZM112.059 189.56L96.2386 204.82L98.3214 206.98L114.141 191.72L112.059 189.56ZM95.78 205.9V206.74H98.78V205.9H95.78ZM97.28 208.24H143.48V205.24H97.28V208.24ZM141.98 206.74V222H144.98V206.74H141.98ZM226.957 199.6L228.397 200.021L226.957 199.6ZM216.037 217.24L216.985 218.403L216.037 217.24ZM170.117 209.82L168.832 210.594L168.836 210.6L170.117 209.82ZM165.217 144.3L166.657 144.721L165.217 144.3ZM175.997 126.66L175.05 125.497L175.039 125.506L175.997 126.66ZM183.137 199.6L181.734 200.131L181.738 200.141L181.742 200.15L183.137 199.6ZM208.757 199.74L207.369 199.172L207.364 199.183L208.757 199.74ZM208.757 144.3L207.362 144.85L207.365 144.859L207.369 144.868L208.757 144.3ZM183.137 144.3L181.742 143.75L181.738 143.759L181.734 143.769L183.137 144.3ZM228.817 172.02C228.817 182.657 227.706 191.7 225.518 199.179L228.397 200.021C230.688 192.193 231.817 182.85 231.817 172.02H228.817ZM225.518 199.179C223.343 206.607 219.846 212.202 215.09 216.077L216.985 218.403C222.309 214.065 226.091 207.899 228.397 200.021L225.518 199.179ZM215.09 216.077C210.384 219.911 204.076 221.9 196.017 221.9V224.9C204.571 224.9 211.61 222.782 216.985 218.403L215.09 216.077ZM196.017 221.9C184.712 221.9 176.599 217.591 171.399 209.04L168.836 210.6C174.648 220.156 183.802 224.9 196.017 224.9V221.9ZM171.402 209.046C166.09 200.222 163.357 187.928 163.357 172.02H160.357C160.357 188.219 163.131 201.124 168.832 210.594L171.402 209.046ZM163.357 172.02C163.357 161.289 164.468 152.199 166.657 144.721L163.778 143.879C161.486 151.708 160.357 161.098 160.357 172.02H163.357ZM166.657 144.721C168.833 137.285 172.288 131.688 176.955 127.814L175.039 125.506C169.813 129.845 166.081 136.008 163.778 143.879L166.657 144.721ZM176.945 127.823C181.65 123.989 187.958 122 196.017 122V119C187.463 119 180.424 121.118 175.05 125.497L176.945 127.823ZM196.017 122C207.224 122 215.345 126.306 220.642 134.869L223.193 133.291C217.289 123.747 208.144 119 196.017 119V122ZM220.642 134.869C226.037 143.592 228.817 155.923 228.817 172.02H231.817C231.817 155.637 228.997 142.675 223.193 133.291L220.642 134.869ZM178.137 172.02C178.137 184.3 179.303 193.713 181.734 200.131L184.54 199.069C182.304 193.167 181.137 184.193 181.137 172.02H178.137ZM181.742 200.15C183.034 203.431 184.869 206.003 187.303 207.749C189.745 209.501 192.677 210.34 196.017 210.34V207.34C193.197 207.34 190.903 206.639 189.052 205.311C187.192 203.977 185.667 201.929 184.533 199.05L181.742 200.15ZM196.017 210.34C199.311 210.34 202.207 209.512 204.624 207.786C207.033 206.065 208.857 203.53 210.15 200.297L207.364 199.183C206.231 202.017 204.718 204.032 202.88 205.344C201.051 206.651 198.79 207.34 196.017 207.34V210.34ZM210.146 200.308C212.778 193.874 214.037 184.398 214.037 172.02H211.037C211.037 184.282 209.777 193.286 207.369 199.172L210.146 200.308ZM214.037 172.02C214.037 159.642 212.778 150.166 210.146 143.732L207.369 144.868C209.777 150.754 211.037 159.758 211.037 172.02H214.037ZM210.153 143.75C208.862 140.473 207.041 137.903 204.633 136.156C202.215 134.402 199.316 133.56 196.017 133.56V136.56C198.785 136.56 201.043 137.258 202.872 138.584C204.71 139.917 206.226 141.967 207.362 144.85L210.153 143.75ZM196.017 133.56C192.677 133.56 189.745 134.399 187.303 136.151C184.869 137.897 183.034 140.469 181.742 143.75L184.533 144.85C185.667 141.971 187.192 139.923 189.052 138.589C190.903 137.261 193.197 136.56 196.017 136.56V133.56ZM181.734 143.769C179.303 150.188 178.137 159.648 178.137 172.02H181.137C181.137 159.752 182.305 150.732 184.54 144.831L181.734 143.769ZM317.714 222V223.5H319.214V222H317.714ZM249.254 222H247.754V223.5H249.254V222ZM249.254 208.98L248.188 207.925L247.754 208.363V208.98H249.254ZM274.734 183.22L275.801 184.275L275.805 184.271L274.734 183.22ZM287.054 170.06L285.938 169.058L285.931 169.066L285.924 169.074L287.054 170.06ZM294.194 159.84L292.845 159.185L292.841 159.193L292.837 159.201L294.194 159.84ZM292.654 139.12L291.655 140.239L291.667 140.249L291.678 140.259L292.654 139.12ZM270.534 138.28L271.163 139.642L271.177 139.635L271.191 139.628L270.534 138.28ZM259.194 145.56L258.041 146.519L258.987 147.657L260.138 146.726L259.194 145.56ZM249.534 133.94L248.554 132.805L247.44 133.767L248.381 134.899L249.534 133.94ZM263.534 124.7L264.205 126.042L264.215 126.037L264.224 126.032L263.534 124.7ZM299.934 124.14L299.264 125.482L299.274 125.487L299.285 125.492L299.934 124.14ZM310.574 133.52L309.291 134.296L309.297 134.307L309.304 134.318L310.574 133.52ZM311.134 162.5L312.487 163.148L312.492 163.137L311.134 162.5ZM301.754 176.08L300.638 175.078L300.637 175.079L301.754 176.08ZM287.334 190.64L286.311 189.543L286.302 189.552L286.293 189.56L287.334 190.64ZM271.514 205.9L270.473 204.82L270.014 205.263V205.9H271.514ZM271.514 206.74H270.014V208.24H271.514V206.74ZM317.714 206.74H319.214V205.24H317.714V206.74ZM317.714 220.5H249.254V223.5H317.714V220.5ZM250.754 222V208.98H247.754V222H250.754ZM250.321 210.035L275.801 184.275L273.668 182.165L248.188 207.925L250.321 210.035ZM275.805 184.271C280.856 179.126 284.985 174.716 288.185 171.046L285.924 169.074C282.777 172.684 278.692 177.048 273.664 182.169L275.805 184.271ZM288.171 171.062C291.5 167.353 293.977 163.825 295.552 160.479L292.837 159.201C291.425 162.202 289.142 165.487 285.938 169.058L288.171 171.062ZM295.544 160.495C297.232 157.019 298.074 153.294 298.074 149.34H295.074C295.074 152.853 294.33 156.128 292.845 159.185L295.544 160.495ZM298.074 149.34C298.074 144.481 296.677 140.592 293.631 137.981L291.678 140.259C293.858 142.128 295.074 145.052 295.074 149.34H298.074ZM293.653 138.001C290.707 135.37 286.869 134.12 282.294 134.12V137.12C286.306 137.12 289.375 138.203 291.655 140.239L293.653 138.001ZM282.294 134.12C277.875 134.12 273.73 135.055 269.877 136.932L271.191 139.628C274.619 137.959 278.313 137.12 282.294 137.12V134.12ZM269.906 136.918C266.128 138.661 262.244 141.162 258.251 144.394L260.138 146.726C263.985 143.612 267.66 141.259 271.163 139.642L269.906 136.918ZM260.348 144.601L250.688 132.981L248.381 134.899L258.041 146.519L260.348 144.601ZM250.515 135.075C254.52 131.616 259.081 128.604 264.205 126.042L262.864 123.358C257.534 126.023 252.762 129.171 248.554 132.805L250.515 135.075ZM264.224 126.032C269.177 123.467 275.501 122.14 283.274 122.14V119.14C275.181 119.14 268.345 120.519 262.845 123.368L264.224 126.032ZM283.274 122.14C289.535 122.14 294.848 123.274 299.264 125.482L300.605 122.798C295.687 120.339 289.894 119.14 283.274 119.14V122.14ZM299.285 125.492C303.717 127.62 307.031 130.558 309.291 134.296L311.858 132.744C309.265 128.455 305.485 125.14 300.583 122.788L299.285 125.492ZM309.304 134.318C311.656 138.064 312.854 142.447 312.854 147.52H315.854C315.854 141.953 314.533 137.003 311.845 132.722L309.304 134.318ZM312.854 147.52C312.854 152.729 311.823 157.503 309.777 161.863L312.492 163.137C314.739 158.351 315.854 153.138 315.854 147.52H312.854ZM309.782 161.852C307.709 166.177 304.671 170.587 300.638 175.078L302.87 177.082C307.051 172.427 310.266 167.783 312.487 163.148L309.782 161.852ZM300.637 175.079C296.66 179.518 291.887 184.339 286.311 189.543L288.358 191.737C293.982 186.487 298.822 181.602 302.872 177.081L300.637 175.079ZM286.293 189.56L270.473 204.82L272.556 206.98L288.376 191.72L286.293 189.56ZM270.014 205.9V206.74H273.014V205.9H270.014ZM271.514 208.24H317.714V205.24H271.514V208.24ZM316.214 206.74V222H319.214V206.74H316.214ZM401.192 199.6L402.631 200.021L401.192 199.6ZM390.272 217.24L391.219 218.403L390.272 217.24ZM344.352 209.82L343.066 210.594L343.07 210.6L344.352 209.82ZM339.452 144.3L340.891 144.721L339.452 144.3ZM350.232 126.66L349.284 125.497L349.273 125.506L350.232 126.66ZM357.372 199.6L355.969 200.131L355.972 200.141L355.976 200.15L357.372 199.6ZM382.992 199.74L381.603 199.172L381.599 199.183L382.992 199.74ZM382.992 144.3L381.596 144.85L381.6 144.859L381.603 144.868L382.992 144.3ZM357.372 144.3L355.976 143.75L355.972 143.759L355.969 143.769L357.372 144.3ZM403.052 172.02C403.052 182.657 401.941 191.7 399.752 199.179L402.631 200.021C404.922 192.193 406.052 182.85 406.052 172.02H403.052ZM399.752 199.179C397.578 206.607 394.08 212.202 389.324 216.077L391.219 218.403C396.543 214.065 400.325 207.899 402.631 200.021L399.752 199.179ZM389.324 216.077C384.619 219.911 378.311 221.9 370.252 221.9V224.9C378.806 224.9 385.844 222.782 391.219 218.403L389.324 216.077ZM370.252 221.9C358.946 221.9 350.834 217.591 345.633 209.04L343.07 210.6C348.883 220.156 358.037 224.9 370.252 224.9V221.9ZM345.637 209.046C340.324 200.222 337.592 187.928 337.592 172.02H334.592C334.592 188.219 337.365 201.124 343.066 210.594L345.637 209.046ZM337.592 172.02C337.592 161.289 338.703 152.199 340.891 144.721L338.012 143.879C335.72 151.708 334.592 161.098 334.592 172.02H337.592ZM340.891 144.721C343.068 137.285 346.523 131.688 351.19 127.814L349.273 125.506C344.047 129.845 340.316 136.008 338.012 143.879L340.891 144.721ZM351.179 127.823C355.884 123.989 362.193 122 370.252 122V119C361.697 119 354.659 121.118 349.284 125.497L351.179 127.823ZM370.252 122C381.458 122 389.579 126.306 394.876 134.869L397.427 133.291C391.524 123.747 382.378 119 370.252 119V122ZM394.876 134.869C400.271 143.592 403.052 155.923 403.052 172.02H406.052C406.052 155.637 403.232 142.675 397.427 133.291L394.876 134.869ZM352.372 172.02C352.372 184.3 353.538 193.713 355.969 200.131L358.774 199.069C356.539 193.167 355.372 184.193 355.372 172.02H352.372ZM355.976 200.15C357.268 203.431 359.103 206.003 361.537 207.749C363.979 209.501 366.912 210.34 370.252 210.34V207.34C367.432 207.34 365.137 206.639 363.286 205.311C361.427 203.977 359.901 201.929 358.767 199.05L355.976 200.15ZM370.252 210.34C373.545 210.34 376.441 209.512 378.858 207.786C381.268 206.065 383.091 203.53 384.384 200.297L381.599 199.183C380.465 202.017 378.952 204.032 377.115 205.344C375.285 206.651 373.025 207.34 370.252 207.34V210.34ZM384.38 200.308C387.012 193.874 388.272 184.398 388.272 172.02H385.272C385.272 184.282 384.011 193.286 381.603 199.172L384.38 200.308ZM388.272 172.02C388.272 159.642 387.012 150.166 384.38 143.732L381.603 144.868C384.011 150.754 385.272 159.758 385.272 172.02H388.272ZM384.387 143.75C383.096 140.473 381.276 137.903 378.867 136.156C376.449 134.402 373.55 133.56 370.252 133.56V136.56C373.02 136.56 375.277 137.258 377.106 138.584C378.944 139.917 380.46 141.967 381.596 144.85L384.387 143.75ZM370.252 133.56C366.912 133.56 363.979 134.399 361.537 136.151C359.103 137.897 357.268 140.469 355.976 143.75L358.767 144.85C359.901 141.971 361.427 139.923 363.286 138.589C365.137 137.261 367.432 136.56 370.252 136.56V133.56ZM355.969 143.769C353.537 150.188 352.372 159.648 352.372 172.02H355.372C355.372 159.752 356.539 150.732 358.774 144.831L355.969 143.769ZM139.84 349.6L141.28 350.021L139.84 349.6ZM128.92 367.24L129.868 368.403L128.92 367.24ZM83 359.82L81.7149 360.594L81.7184 360.599L83 359.82ZM78.1 294.3L79.5396 294.721L78.1 294.3ZM88.88 276.66L87.9325 275.497L87.9219 275.506L88.88 276.66ZM96.02 349.6L94.6173 350.131L94.6208 350.141L94.6244 350.15L96.02 349.6ZM121.64 349.74L120.252 349.172L120.247 349.183L121.64 349.74ZM121.64 294.3L120.244 294.85L120.248 294.859L120.252 294.868L121.64 294.3ZM96.02 294.3L94.6244 293.75L94.6208 293.759L94.6173 293.769L96.02 294.3ZM141.7 322.02C141.7 332.657 140.589 341.7 138.4 349.179L141.28 350.021C143.571 342.193 144.7 332.85 144.7 322.02H141.7ZM138.4 349.179C136.226 356.607 132.729 362.202 127.972 366.077L129.868 368.403C135.191 364.065 138.974 357.899 141.28 350.021L138.4 349.179ZM127.972 366.077C123.267 369.911 116.959 371.9 108.9 371.9V374.9C117.454 374.9 124.493 372.782 129.868 368.403L127.972 366.077ZM108.9 371.9C97.5948 371.9 89.4821 367.591 84.2816 359.04L81.7184 360.599C87.5312 370.156 96.6852 374.9 108.9 374.9V371.9ZM84.2851 359.046C78.9728 350.222 76.24 337.928 76.24 322.02H73.24C73.24 338.219 76.0139 351.124 81.7149 360.594L84.2851 359.046ZM76.24 322.02C76.24 311.289 77.3511 302.199 79.5396 294.721L76.6604 293.879C74.3689 301.708 73.24 311.098 73.24 322.02H76.24ZM79.5396 294.721C81.716 287.285 85.1713 281.688 89.8381 277.814L87.9219 275.506C82.6954 279.845 78.964 286.008 76.6604 293.879L79.5396 294.721ZM89.8275 277.823C94.5329 273.989 100.841 272 108.9 272V269C100.346 269 93.3071 271.118 87.9325 275.497L89.8275 277.823ZM108.9 272C120.107 272 128.228 276.306 133.524 284.869L136.076 283.291C130.172 273.747 121.027 269 108.9 269V272ZM133.524 284.869C138.92 293.592 141.7 305.923 141.7 322.02H144.7C144.7 305.637 141.88 292.675 136.076 283.291L133.524 284.869ZM91.02 322.02C91.02 334.3 92.1861 343.713 94.6173 350.131L97.4227 349.069C95.1873 343.167 94.02 334.193 94.02 322.02H91.02ZM94.6244 350.15C95.9168 353.431 97.7516 356.003 100.186 357.749C102.628 359.501 105.56 360.34 108.9 360.34V357.34C106.08 357.34 103.786 356.639 101.934 355.311C100.075 353.977 98.5499 351.929 97.4156 349.05L94.6244 350.15ZM108.9 360.34C112.194 360.34 115.09 359.512 117.507 357.786C119.916 356.065 121.74 353.53 123.033 350.297L120.247 349.183C119.114 352.017 117.6 354.032 115.763 355.344C113.934 356.651 111.673 357.34 108.9 357.34V360.34ZM123.028 350.308C125.661 343.874 126.92 334.398 126.92 322.02H123.92C123.92 334.282 122.659 343.286 120.252 349.172L123.028 350.308ZM126.92 322.02C126.92 309.642 125.661 300.166 123.028 293.732L120.252 294.868C122.659 300.754 123.92 309.758 123.92 322.02H126.92ZM123.036 293.75C121.745 290.473 119.924 287.903 117.516 286.156C115.098 284.402 112.198 283.56 108.9 283.56V286.56C111.668 286.56 113.926 287.258 115.754 288.584C117.592 289.917 119.109 291.967 120.244 294.85L123.036 293.75ZM108.9 283.56C105.56 283.56 102.628 284.399 100.186 286.151C97.7516 287.897 95.9168 290.469 94.6244 293.75L97.4156 294.85C98.5499 291.971 100.075 289.923 101.934 288.589C103.786 287.261 106.08 286.56 108.9 286.56V283.56ZM94.6173 293.769C92.1858 300.188 91.02 309.648 91.02 322.02H94.02C94.02 309.752 95.1876 300.732 97.4227 294.831L94.6173 293.769ZM210.857 372V373.5H212.357V372H210.857ZM193.217 372H191.717V373.5H193.217V372ZM193.357 300.18L191.858 300.138L193.357 300.18ZM193.777 290.8L195.274 290.897L195.53 286.926L192.717 289.739L193.777 290.8ZM190.277 294.16L191.26 295.294L191.28 295.275L191.301 295.257L190.277 294.16ZM185.937 297.94L186.874 299.111L186.9 299.091L186.925 299.069L185.937 297.94ZM174.737 306.9L173.57 307.842L174.508 309.004L175.674 308.071L174.737 306.9ZM165.917 295.98L164.986 294.804L163.799 295.744L164.75 296.923L165.917 295.98ZM196.157 272.04V270.54H195.635L195.226 270.864L196.157 272.04ZM210.857 272.04H212.357V270.54H210.857V272.04ZM210.857 370.5H193.217V373.5H210.857V370.5ZM194.717 372V309.7H191.717V372H194.717ZM194.717 309.7C194.717 306.729 194.764 303.569 194.857 300.222L191.858 300.138C191.764 303.511 191.717 306.698 191.717 309.7H194.717ZM194.857 300.222C194.95 296.877 195.089 293.769 195.274 290.897L192.28 290.703C192.092 293.618 191.952 296.763 191.858 300.138L194.857 300.222ZM192.717 289.739C191.799 290.656 190.646 291.764 189.254 293.063L191.301 295.257C192.708 293.943 193.888 292.81 194.838 291.861L192.717 289.739ZM189.295 293.026C187.893 294.241 186.444 295.503 184.949 296.811L186.925 299.069C188.417 297.764 189.861 296.505 191.26 295.294L189.295 293.026ZM185 296.769L173.8 305.729L175.674 308.071L186.874 299.111L185 296.769ZM175.904 305.957L167.084 295.037L164.75 296.923L173.57 307.842L175.904 305.957ZM166.848 297.156L197.088 273.216L195.226 270.864L164.986 294.804L166.848 297.156ZM196.157 273.54H210.857V270.54H196.157V273.54ZM209.357 272.04V372H212.357V272.04H209.357ZM297.974 372V373.5H299.474V372H297.974ZM280.334 372H278.834V373.5H280.334V372ZM280.474 300.18L278.975 300.138L280.474 300.18ZM280.894 290.8L282.391 290.897L282.647 286.926L279.834 289.739L280.894 290.8ZM277.394 294.16L278.377 295.294L278.398 295.275L278.418 295.257L277.394 294.16ZM273.054 297.94L273.991 299.111L274.017 299.091L274.042 299.069L273.054 297.94ZM261.854 306.9L260.687 307.842L261.626 309.004L262.791 308.071L261.854 306.9ZM253.034 295.98L252.103 294.804L250.916 295.744L251.867 296.923L253.034 295.98ZM283.274 272.04V270.54H282.753L282.343 270.864L283.274 272.04ZM297.974 272.04H299.474V270.54H297.974V272.04ZM297.974 370.5H280.334V373.5H297.974V370.5ZM281.834 372V309.7H278.834V372H281.834ZM281.834 309.7C281.834 306.729 281.881 303.569 281.974 300.222L278.975 300.138C278.881 303.511 278.834 306.698 278.834 309.7H281.834ZM281.974 300.222C282.067 296.877 282.206 293.769 282.391 290.897L279.397 290.703C279.209 293.618 279.069 296.763 278.975 300.138L281.974 300.222ZM279.834 289.739C278.917 290.656 277.763 291.764 276.371 293.063L278.418 295.257C279.825 293.943 281.005 292.81 281.955 291.861L279.834 289.739ZM276.412 293.026C275.01 294.241 273.562 295.503 272.067 296.811L274.042 299.069C275.534 297.764 276.979 296.505 278.377 295.294L276.412 293.026ZM272.117 296.769L260.917 305.729L262.791 308.071L273.991 299.111L272.117 296.769ZM263.021 305.957L254.201 295.037L251.867 296.923L260.687 307.842L263.021 305.957ZM253.965 297.156L284.205 273.216L282.343 270.864L252.103 294.804L253.965 297.156ZM283.274 273.54H297.974V270.54H283.274V273.54ZM296.474 272.04V372H299.474V272.04H296.474ZM385.092 372V373.5H386.592V372H385.092ZM367.452 372H365.952V373.5H367.452V372ZM367.592 300.18L366.092 300.138L367.592 300.18ZM368.012 290.8L369.508 290.897L369.765 286.926L366.951 289.739L368.012 290.8ZM364.512 294.16L365.494 295.294L365.515 295.275L365.535 295.257L364.512 294.16ZM360.172 297.94L361.109 299.111L361.134 299.091L361.159 299.069L360.172 297.94ZM348.972 306.9L347.805 307.842L348.743 309.004L349.909 308.071L348.972 306.9ZM340.152 295.98L339.221 294.804L338.033 295.744L338.985 296.923L340.152 295.98ZM370.392 272.04V270.54H369.87L369.461 270.864L370.392 272.04ZM385.092 272.04H386.592V270.54H385.092V272.04ZM385.092 370.5H367.452V373.5H385.092V370.5ZM368.952 372V309.7H365.952V372H368.952ZM368.952 309.7C368.952 306.729 368.998 303.569 369.091 300.222L366.092 300.138C365.998 303.511 365.952 306.698 365.952 309.7H368.952ZM369.091 300.222C369.184 296.877 369.323 293.769 369.508 290.897L366.515 290.703C366.327 293.618 366.186 296.763 366.092 300.138L369.091 300.222ZM366.951 289.739C366.034 290.656 364.881 291.764 363.488 293.063L365.535 295.257C366.943 293.943 368.123 292.81 369.072 291.861L366.951 289.739ZM363.529 293.026C362.127 294.241 360.679 295.503 359.184 296.811L361.159 299.069C362.651 297.764 364.096 296.505 365.494 295.294L363.529 293.026ZM359.235 296.769L348.035 305.729L349.909 308.071L361.109 299.111L359.235 296.769ZM350.138 305.957L341.318 295.037L338.985 296.923L347.805 307.842L350.138 305.957ZM341.083 297.156L371.323 273.216L369.461 270.864L339.221 294.804L341.083 297.156ZM370.392 273.54H385.092V270.54H370.392V273.54ZM383.592 272.04V372H386.592V272.04H383.592Z" fill="#FF2600"/>
</svg>
