<svg width="76" height="429" viewBox="0 0 76 429" fill="none" xmlns="http://www.w3.org/2000/svg">
<path d="M28.96 4.36C22.24 3.72 15.12 2.6 10.4 0.28C9.68 2.2 8.16 5.64 7.04 7.24C12.16 9.48 20.08 11.24 27.68 11.96L28.96 4.36ZM20.32 53.48C20.32 52.44 20.96 52.28 22.96 52.28H30L30 63.88H37.2L37.2 56.76H43.44L43.44 63.64L50.64 63.64V59.8C53.36 61.08 57.04 62.6 60.48 64.28L62.56 57.08C59.44 56.52 54.72 55.16 51.76 53.96L50.64 57.16L50.64 47.24L52 51.08C54.72 50.76 59.04 49.48 62.16 47.88L60.16 42.28C57.28 43.48 53.36 44.52 50.64 44.92V42.04H43.44V48.76H37.2V41.8L30 41.8V44.36H23.04C15.52 44.36 12.88 45.96 12.88 53.48V58.84C12.88 60.68 12.96 62.36 13.44 63.56C15.28 63.32 18.88 63.08 20.8 62.92C20.48 61.8 20.32 59.96 20.32 58.84V53.48ZM72.32 74.44L72.32 31.48L39.52 31.48C43.04 30.12 46.8 28.28 50 26.44L47.2 19.72C45.6 20.6 43.84 21.48 42.08 22.28L41.68 15.32C48.08 20.36 56 25.8 62.72 30.2L66.32 22.44C62.4 20.6 57.84 18.04 53.36 15.24C54.32 14.52 55.44 13.64 56.48 12.68C60.96 15.64 67.28 18.92 72.8 21.72L75.68 13.48C71.6 12.2 66.24 9.96 61.84 7.72C62.4 7.08 62.96 6.44 63.52 5.88L57.12 1.24C53.84 4.44 49.52 8.12 45.92 10.36C44.24 9.16 42.64 7.96 41.2 6.76L40.88 1L32.64 1.96L33.52 13.08L1.04 13.08V21.24L34.16 21.24L34.48 25.24C32.72 25.72 31.12 26.2 29.76 26.44L32.08 31.48L20.96 31.48C23.76 30.68 26.8 29.72 29.28 28.6L27.28 21.96C22.72 23.72 16.8 25.24 12.88 25.64L14.8 31.48H0.88L0.88 39.96L64.08 39.96L64.08 65.8L10.48 65.8C9.36 65.8 8.96 65.4 8.88 64.28C8.88 63.16 8.88 59.56 9.04 56.36C6.88 57.48 3.28 58.6 1.04 58.84C0.959999 64.44 1.2 68.2 2.56 70.92C3.92 73.56 6.08 74.44 10.48 74.44L72.32 74.44ZM60.96 122.36V111.64H74.64L74.64 102.84H60.96V91.48H52.08L52.08 122.36H60.96ZM22.96 104.52C30.4 104.44 41.2 103.08 49.84 101.08L48.32 93.48C39.76 95.24 28.64 96.52 21.44 96.36L22.96 104.52ZM22.88 116.36C30.16 117.88 40.16 119.48 49.04 120.6L50.56 111.32C41.44 110.84 29.04 109.32 21.36 107.72L21.2 108.44C19.76 101.4 18.48 94.84 17.6 89.8L8.08 91.64C10.08 100.52 12.72 112.36 15.36 123.16L24.16 122.28L22.88 116.36ZM13.76 151.8V132.84H29.36L29.36 151.8H13.76ZM52 164.2H61.04V146.2H75.76V136.44H38.24L38.24 123.56H1.12V132.84H4.88V151.8H1.44V161.56L38.24 161.56V146.2H52V164.2ZM75.2 248.04V239.4H43.36C42.4 239.4 42.08 239.08 42.08 237.88C42 236.76 42 232.92 42.16 229.32C40.08 230.44 36.88 231.72 34.64 232.12C34.64 237.64 34.72 241.56 35.92 244.36C37.12 247.24 39.12 248.04 43.2 248.04H75.2ZM72.56 230.68V222.2H45.92V230.68H72.56ZM25.2 240.04C22.88 236.84 20.24 232.44 18.32 228.68C20.32 226.44 22.64 224.52 25.2 223V240.04ZM61.36 185.8C62.32 186.52 63.44 187.16 64.56 187.8V195.4H61.36V185.8ZM25.2 242.92L25.2 250.92H32.72L32.72 219.72H36.88L36.88 211.24C36.96 212.68 37.2 213.96 37.68 215C38.64 217.08 40.08 217.64 43.12 217.64H52.16L52.16 203.48H54.96L54.96 218.92H61.36V203.48H64.56V216.76H70.64V203.48H75.76L75.76 195.4H70.64V190.84C71.76 191.32 72.8 191.72 73.92 192.12L75.68 185.16C71.52 183.8 67.2 181.56 64.16 178.92C63.52 180.2 62.32 182.28 61.36 183.88L61.36 179H54.96V195.4H52.16V182.2H36.48V189.4H46.4V195.4H34.72V203.48H46.4V210.04H43.12C42.48 210.04 42.24 209.8 42.24 209.08C42.24 208.52 42.24 206.6 42.32 204.76C40.8 205.56 38.64 206.68 36.8 207.08C36.8 208.28 36.8 209.32 36.8 210.28H32.72V179.16H25.2V202.52C22 195.64 19.68 186.6 18.48 177.8C16.72 179.48 13.6 181.72 11.6 182.84C12.4 187.32 13.52 191.8 14.96 196.04L10.48 196.04C10.16 193.16 9.84 190.44 9.6 188.12L1.84 189.48C3.12 198.28 4.72 210.2 6.32 221.48L13.76 221.16C13.04 215.8 12.32 210.36 11.68 205.16H18.64C20.32 208.6 22.24 211.8 24.32 214.6C11.6 220.6 4.08 230.6 0.88 247.24C3.2 248.36 6.64 250.6 8.48 252.44C9.52 245.64 11.28 239.88 13.84 235.08C15.84 239.32 18.48 244.2 21.2 248.28L25.2 242.92ZM75.44 283.16C64.08 279.16 52.72 272.2 45.52 264.92C43.12 266.6 37.68 269.32 35.36 270.2C37.12 271.8 39.12 273.48 41.12 275.16H1.12V284.76H55.92C61.28 287.72 66.96 290.36 72.56 292.44L75.44 283.16ZM53.68 340.52H62.72L62.72 309.48C66 311 69.28 312.28 72.64 313.4L74.96 304.2C63.52 300.6 52 294.28 44.8 287.24C43.28 289.24 39.92 293 38.16 294.52C42.32 298.12 47.76 301.8 53.68 305V308.04H1.04V317.8H18.8V339.56H27.6L27.6 317.8H36.64L36.64 338.52H45.28L45.28 317.8H53.68L53.68 340.52ZM23.68 380.44H13.04V370.6H23.68V380.44ZM51.04 379.48H46V372.52C47.68 372.84 49.36 373.08 51.04 373.32V379.48ZM64.08 379.48H58.96V374.12C60.64 374.28 62.32 374.44 64.08 374.52V379.48ZM31.84 368.92C33.84 369.64 35.84 370.28 38 370.84V388.28H51.04V392.2H58.96V388.28H72.08V358.2H64.08V365.56C62.32 365.48 60.64 365.4 58.96 365.24L58.96 353.8H51.04V364.44C49.28 364.2 47.6 363.96 46 363.64V357.72H38V361.64C31.92 359.72 26.72 356.92 22.8 352.84C21.12 354.68 17.36 357.88 15.52 358.92C16.64 360.04 17.76 361 18.96 361.96H1.04V370.6H4.88V389.72H31.84V368.92ZM27.52 428.44V413.96H35.92V425.4H44.56V413.96H51.92V426.84H60.4V419.88C63.92 421.72 68.88 423.88 73.76 425.88L75.84 416.68C71.68 415.72 65.92 413.56 62.16 411.88L60.4 418.52L60.4 401L62.24 406.2C65.92 405.4 71.28 403.24 75.28 400.76L72.64 393.16C68.88 395.24 64 397.08 60.4 397.88V393.08H51.92V404.76H44.56V394.12H35.92V404.76H27.52V391.32H18.64V404.76H1.12V413.96H18.64L18.64 428.44H27.52Z" fill="#F2EDE9"/>
</svg>
