<svg width="26" height="703" viewBox="0 0 26 703" fill="none" xmlns="http://www.w3.org/2000/svg">
<path d="M4 6.556V0.88H5.144L5.562 2.728L18.124 2.728L18.564 0.88L19.708 0.88V6.556L18.564 6.556L18.124 4.708H5.562L5.144 6.556L4 6.556ZM19.708 23.8619C19.708 25.9153 19.3047 27.4113 18.498 28.3499C17.6913 29.2886 16.5547 29.7579 15.088 29.7579C14.2227 29.7579 13.4087 29.5599 12.646 29.1639C11.898 28.7826 11.2893 28.1299 10.82 27.2059C10.3507 26.2966 10.116 25.0573 10.116 23.4879V21.6839H4V19.7039H19.708V23.8619ZM18.014 23.6859V21.6839H11.81V23.2679C11.81 24.7639 12.052 25.8786 12.536 26.6119C13.02 27.3453 13.8413 27.7119 15 27.7119C16.012 27.7119 16.7673 27.3893 17.266 26.7439C17.7647 26.0986 18.014 25.0793 18.014 23.6859ZM19.708 39.5582C19.708 41.5089 19.334 42.9462 18.586 43.8702C17.8527 44.8089 16.738 45.2782 15.242 45.2782C14.406 45.2782 13.7093 45.1242 13.152 44.8162C12.5947 44.5082 12.1473 44.1122 11.81 43.6282C11.4873 43.1589 11.2307 42.6602 11.04 42.1322L4 46.4442V44.1342L10.49 40.3282V37.2042H4V35.2242H19.708L19.708 39.5582ZM17.992 39.4482V37.2042H12.162V39.5582C12.162 40.8342 12.4113 41.7656 12.91 42.3522C13.4233 42.9389 14.1713 43.2322 15.154 43.2322C16.1807 43.2322 16.9067 42.9242 17.332 42.3082C17.772 41.6922 17.992 40.7389 17.992 39.4482ZM4 59.8878V51.1098H19.708V59.8878H17.97V53.0898H13.064V59.4918H11.348V53.0898H5.738V59.8878H4ZM12.008 78.1184C9.35333 78.1184 7.35133 77.3924 6.002 75.9404C4.66733 74.5031 4 72.4937 4 69.9124V65.5344H19.708V70.3744C19.708 71.9584 19.4147 73.3297 18.828 74.4884C18.2413 75.6471 17.376 76.5417 16.232 77.1724C15.1027 77.8031 13.6947 78.1184 12.008 78.1184ZM11.942 76.0284C14.0393 76.0284 15.572 75.5077 16.54 74.4664C17.5227 73.4397 18.014 71.9804 18.014 70.0884V67.5144H5.694V69.6484C5.694 73.9017 7.77667 76.0284 11.942 76.0284ZM4 88.2267L4 82.5507H5.144L5.562 84.3987H18.124L18.564 82.5507H19.708V88.2267H18.564L18.124 86.3787H5.562L5.144 88.2267H4ZM18.19 100.192C18.19 98.5051 17.6253 97.1778 16.496 96.2098C15.3667 95.2418 13.8193 94.7578 11.854 94.7578C9.90333 94.7578 8.356 95.2051 7.212 96.0998C6.08267 97.0091 5.518 98.3658 5.518 100.17C5.518 100.859 5.57667 101.512 5.694 102.128C5.81133 102.744 5.958 103.345 6.134 103.932H4.418C4.198 103.345 4.03667 102.736 3.934 102.106C3.83133 101.49 3.78 100.749 3.78 99.8838C3.78 98.2851 4.11 96.9504 4.77 95.8798C5.43 94.8091 6.36867 94.0024 7.586 93.4598C8.80333 92.9318 10.2333 92.6678 11.876 92.6678C13.46 92.6678 14.8533 92.9538 16.056 93.5258C17.2733 94.1124 18.2193 94.9704 18.894 96.0998C19.5833 97.2291 19.928 98.6004 19.928 100.214C19.928 101.871 19.62 103.316 19.004 104.548L17.332 103.756C17.552 103.272 17.75 102.729 17.926 102.128C18.102 101.541 18.19 100.896 18.19 100.192ZM4 114.532V112.552H17.97V107.646H19.708V119.416H17.97V114.532H4ZM4 136.322V130.646H5.144L5.562 132.494H18.124L18.564 130.646H19.708V136.322H18.564L18.124 134.474H5.562L5.144 136.322H4ZM4 146.527L4 144.547H17.97V139.641H19.708V151.411H17.97V146.527H4Z" fill="#273A3C"/>
<line x1="6.5" y1="163" x2="6.50002" y2="703" stroke="#273A3C" stroke-width="3"/>
</svg>
