<svg width="76" height="425" viewBox="0 0 76 425" fill="none" xmlns="http://www.w3.org/2000/svg">
<path d="M60.8 73.28C64.56 70.96 69.84 65.68 73.52 61.44L68.64 54.24C64.8 58.56 59.12 63.52 55.44 65.6L60.8 73.28ZM41.44 63.04C37.6 60.96 34 58.32 30.56 55.44C34.64 54.56 39.28 53.76 44.08 53.12L44.08 73.92L53.12 73.92L53.12 52.16C60.16 51.52 67.6 51.2 75.04 51.36L75.04 41.36C67.76 41.44 60.32 41.68 53.12 42.32V26.96L63.92 26.96C64.88 31.6 65.92 36 67.12 40L75.2 33.6C72.56 25.44 70 13.04 68.48 1.84C66.32 2.88 62.8 4.16 60.48 4.56C60.96 8.64 61.52 13.04 62.24 17.36L53.12 17.36L53.12 2.24L44.08 2.24L44.08 17.36L33.36 17.36C32.24 11.04 31.36 5.28 30.64 0.72L21.04 3.04C21.84 7.28 22.88 12.24 23.92 17.36L12.32 17.36C11.04 17.36 10.64 16.88 10.64 15.44C10.56 14 10.48 9.36 10.72 4.88C8.08 6.24 3.76 7.84 1.12 8.24C1.04 14.72 1.44 19.52 2.96 22.64C4.48 25.84 7.04 26.96 12.24 26.96L25.92 26.96L28.56 40L37.2 39.28C36.48 35.2 35.68 31.04 34.96 26.96L44.08 26.96V43.2C36.24 44.16 28.96 45.52 22.64 47.28C18.08 41.76 14.16 35.6 11.36 29.44C9.2 31.76 5.92 34.4 3.68 35.76C6.32 40.88 9.6 45.92 13.44 50.56C5.6 54 0.8 58.48 0.8 64.32C0.8 71.6 4.32 74.56 18.32 76.08C19.36 73.52 21.52 70.32 23.76 68.24C14.32 67.84 10.48 66.88 10.48 65.2C10.48 62.8 14.16 60.32 20.32 58.16C25.52 63.36 31.36 67.84 37.84 71.44L41.44 63.04ZM44.48 161.52H54.32L54.32 130.08C61.76 130.88 69.12 130.96 75.68 131.04V120.64C69.12 120.56 61.84 120.64 54.32 119.84L54.32 90.72L44.48 90.72L44.48 118.24C30.72 115.12 17.44 107.52 9.28 89.2C7.28 92 3.84 94.8 1.2 96.32C9.36 113.28 21.84 121.92 35.2 126.24C19.76 132.48 8.08 141.76 1.28 156.24C4 157.76 8.24 160.88 10.24 163.28C16.32 148.32 28.88 138.64 44.48 133.36L44.48 161.52ZM10.4 240H7.28V224.8H10.4V240ZM0.959999 216.72V224.8H2.4V240H1.04V248.48L15.28 248.48V216.72L0.959999 216.72ZM17.52 218.24V246.88H22.48V218.24H17.52ZM29.6 246.88V218.24H24.64V246.88H29.6ZM54.48 215.36V221.76C51.52 220.96 49.28 219.28 47.76 215.36H54.48ZM51.2 201.6C49.92 202.96 48.4 204.16 47.2 204.96C47.84 205.68 48.48 206.4 49.2 207.12H41.44C31.68 207.12 18.56 206.64 8.4 201.52C9.12 201.6 9.92 201.6 10.72 201.6L51.2 201.6ZM64.64 230.08C63.44 229.44 62.24 228.8 61.2 228.16V216.96C62.32 217.76 63.52 218.4 64.64 219.12V230.08ZM36.24 188.24C38.96 188.32 41.6 188.32 44 188.32H46.16V193.44H36.24V188.24ZM64.4 193.44H54.8V188.32H64.4V193.44ZM54.48 251.36H61.2V237.44C63.28 238.8 65.44 240.24 67.44 241.28L71.28 235.36L70.88 234.08V222.4C72 222.88 73.2 223.44 74.32 223.92L75.76 215.04C69.28 212.56 61.76 208.16 55.68 201.6H72.96L72.96 180.4H44C32.32 180.4 16.16 180.08 5.04 176C4.32 178 2.4 181.6 1.12 183.12C8.4 185.92 18.16 187.28 27.52 187.84V193.44L10.88 193.44C9.92 193.44 9.6 193.12 9.6 192.32C9.6 191.52 9.6 189.12 9.68 186.72C7.36 187.76 3.36 188.72 1.04 188.96C1.04 193.52 1.28 196.48 2.8 198.72C3.36 199.6 4.08 200.24 4.96 200.72C4 202.72 2.24 205.68 1.04 206.96C9.52 212.4 21.36 214.4 31.84 215.04L31.84 250.72H36.88L36.88 215.28C38.4 215.36 39.92 215.36 41.36 215.36H46.08C44.88 216.4 43.44 217.52 42.32 218C42.64 218.8 42.88 219.52 43.2 220.24H39.2V245.04H44.08V221.84C46.56 226.08 50 228 54.48 228.88V232.56H52.8C47.68 232.56 46.24 233.84 46.24 240V245.04C46.24 249.12 47.6 250.72 51.92 251.28C52.16 249.52 52.96 246.8 53.76 245.36C51.52 245.2 51.04 244.88 51.04 243.92V241.36C51.04 240.24 51.2 240.16 52.72 240.16H54.48L54.48 251.36ZM47.28 327.04L47.28 309.2H52.32L52.32 327.04H47.28ZM35.68 327.04L35.68 309.2H40.8L40.8 327.04H35.68ZM24 327.04V309.2H29.12L29.12 327.04H24ZM26.88 294.48C31.6 296.24 39.12 298.4 45.76 300.08L47.04 294.32L46.8 293.04V289.2L49.76 291.28C50.96 290 52.24 288.4 53.52 286.48C57.76 290.64 63.28 294.8 68.16 297.84H64.64V313.04C62.88 312.8 61.12 312.56 59.36 312.24V300.56H17.04V336.16H59.36V321.76C61.04 322.32 62.8 322.88 64.64 323.44V338.48H72.64V297.84H68.96L72.96 292.4L72.4 290.72V266.24H64.16V284.8C61.84 283.28 59.6 281.44 57.68 279.68C59.04 277.2 60.32 274.64 61.36 272.32L55.2 267.6C52.96 272.08 49.84 277.36 46.8 281.44V264.32H38.4V276.16H11.44C10.56 276.16 10.32 275.84 10.24 274.72C10.24 273.68 10.24 269.92 10.32 266.48C7.76 267.76 3.92 269.04 1.2 269.36C1.2 274.72 1.44 278.72 2.88 281.68C4.32 284.64 6.8 285.36 11.28 285.36H38.4L38.4 290.16C34.64 289.28 30.96 288.32 28.32 287.44L26.88 294.48ZM16.96 308.32C13.44 304.88 9.2 297.84 7.04 291.6C5.36 293.68 2.64 296.48 0.8 298C3.2 304.16 7.68 311.68 11.92 316.08L16.96 308.32ZM11.68 319.92C8.48 324.4 3.84 330.32 0.8 333.04L6.16 340.56C9.2 337.44 13.52 331.36 16.4 326.96L11.68 319.92ZM67.68 411.04V402.8H21.44V411.04H67.68ZM67.68 373.52C70.08 370.8 73.28 365.2 75.12 360.88L68.08 355.52C66.08 359.92 62.56 365.36 60 367.92L67.68 373.52ZM46.88 370.48C49.36 367.76 52.16 362.08 53.84 357.68L46.88 352.48C44.88 356.88 41.68 362.32 39.2 364.96L46.88 370.48ZM32.48 364.16C23.12 361.04 12.96 356.8 6.8 353.84L1.92 362.4C9.76 365.68 18.96 369.2 27.52 371.84L32.48 364.16ZM19.84 376.88C14.64 374.72 9.28 371.04 5.68 367.28C4.56 369.36 2.24 372.96 0.8 374.72C4.8 378.56 11.36 382.88 17.44 385.52L19.84 376.88ZM16.48 388.08C12.48 391.04 7.12 394.64 3.76 396.16L8.24 403.68C11.6 402 16.8 398.24 20.48 395.28L16.48 388.08ZM57.68 390.48V382.64H64.4V390.48H57.68ZM43.28 390.48V382.64H50.08V390.48H43.28ZM28.72 390.48V382.64H35.6V390.48H28.72ZM72.64 398.8V374.64H20.48V398.8H72.64ZM75.68 416H11.76C10.56 416 10.16 415.6 10.08 414.24C10.08 412.96 10.08 409.12 10.24 405.04C7.6 406.24 3.6 407.44 1.12 407.76C1.12 414 1.44 418.16 2.96 420.96C4.32 423.76 6.88 424.64 11.76 424.64H75.68L75.68 416Z" fill="#F2EDE9"/>
</svg>
