<?xml version="1.0" encoding="utf-8"?>
<!-- Generator: Adobe Illustrator 23.1.1, SVG Export Plug-In . SVG Version: 6.00 Build 0)  -->
<svg version="1.1" id="圖層_1" xmlns="http://www.w3.org/2000/svg" xmlns:xlink="http://www.w3.org/1999/xlink" x="0px" y="0px"
	 viewBox="0 0 162.8 175.1" style="enable-background:new 0 0 162.8 175.1;" xml:space="preserve">
<style type="text/css">
	.st0{fill:#FF2600;stroke:#FFFFFF;stroke-width:3;stroke-miterlimit:10;}
	.st1{fill:#273A3C;stroke:#FFFFFF;stroke-width:3;stroke-miterlimit:10;}
	.st2{fill:none;stroke:#CC9423;stroke-width:3;stroke-miterlimit:10;}
	.st3{fill:none;stroke:#FF2600;stroke-width:3;stroke-miterlimit:10;}
	.st4{fill:#81C784;}
	.st5{fill:#F2EDE9;stroke:#FFFFFF;stroke-width:3;stroke-miterlimit:10;}
	.st6{fill:#B2ABA1;}
	.st7{fill:none;stroke:#273A3C;stroke-width:2;stroke-miterlimit:10;}
	.st8{fill:#273A3C;}
	.st9{clip-path:url(#SVGID_2_);}
</style>
<g>
	<g>
		
			<ellipse transform="matrix(0.1001 -0.995 0.995 0.1001 -55.5125 206.172)" class="st0" cx="86.2" cy="133.8" rx="31.1" ry="66.1"/>
	</g>
	<g>
		
			<ellipse transform="matrix(7.462513e-02 -0.9972 0.9972 7.462513e-02 -38.7358 199.5806)" class="st1" cx="88.2" cy="120.7" rx="31.1" ry="66.1"/>
	</g>
	<g>
		
			<ellipse transform="matrix(0.9991 -4.276427e-02 4.276427e-02 0.9991 -4.6544 3.8414)" class="st2" cx="87.5" cy="110.7" rx="66.1" ry="31.1"/>
	</g>
	<g>
		
			<ellipse transform="matrix(9.469681e-02 -0.9955 0.9955 9.469681e-02 -20.4843 172.3979)" class="st3" cx="84.5" cy="97.5" rx="30.3" ry="64.5"/>
		<line class="st3" x1="87.4" y1="67.3" x2="81.7" y2="127.6"/>
		<line class="st3" x1="32.6" y1="111.5" x2="84.5" y2="97.5"/>
	</g>
	<g>
		<ellipse transform="matrix(0.9917 -0.1283 0.1283 0.9917 -6.5119 11.6788)" class="st4" cx="87.4" cy="56.4" rx="70" ry="35"/>
		<line class="st4" x1="82.9" y1="21.7" x2="91.9" y2="91.1"/>
		<line class="st4" x1="36.1" y1="85.1" x2="87.4" y2="56.4"/>
	</g>
	<g>
		<ellipse transform="matrix(0.9935 -0.114 0.114 0.9935 -4.6293 10.2659)" class="st5" cx="87.4" cy="45.6" rx="70" ry="35"/>
	</g>
	<g>
		<g>
			<path class="st6" d="M90.2,32.9c-1.3,2.3-2.5,4.5-3.8,6.8c-1.3,2.2-2.7,4.7-5.1,5.8c-1.4,0.6-2.9,0.6-4.3,1.2
				c-1.2,0.5-2.1,1.3-2.7,2.5c-1.4,2.7-0.3,5.7,0.9,8.2c0.7,1.5,2.9,0.2,2.2-1.3c-1-2-2.4-5.5,0.2-7c1.2-0.7,2.7-0.6,4-1.1
				c1.2-0.4,2.2-1.1,3.1-1.9c1.8-1.6,3-3.7,4.1-5.8c1.2-2.1,2.3-4.2,3.5-6.2C93.1,32.8,91,31.5,90.2,32.9L90.2,32.9z"/>
		</g>
	</g>
	<g>
		<g>
			<path class="st6" d="M60.8,60.6c1.8,5.7,7.7,8,13.2,8.3c5.1,0.3,10.7-0.6,14-4.9c1-1.3-1.2-2.5-2.2-1.3
				c-2.6,3.4-7.5,3.8-11.4,3.7c-4.5-0.2-9.7-1.8-11.3-6.5C62.7,58.4,60.3,59.1,60.8,60.6L60.8,60.6z"/>
		</g>
	</g>
	<g>
		<g>
			<path class="st6" d="M102.1,28.2c5-0.7,9.6-1.1,14.5,0.3c3.8,1.1,6.6,3.3,9.2,6.3c1.1,1.2,2.8-0.6,1.8-1.8
				c-2.8-3.2-5.9-5.5-10-6.8c-2.4-0.7-4.9-1.2-7.4-1.3c-2.7,0-5.4,0.4-8.1,0.7C100.5,25.9,100.5,28.5,102.1,28.2L102.1,28.2z"/>
		</g>
	</g>
	<line class="st7" x1="78.5" y1="38.7" x2="94.1" y2="40.6"/>
	<polygon class="st7" points="75,43 53.9,39.3 60.3,31.9 81,34.5 	"/>
	<polygon class="st7" points="115.4,47.8 91.8,45.1 97.1,36.2 119.2,38.6 	"/>
	<ellipse class="st8" cx="67.4" cy="37.5" rx="3.1" ry="1.5"/>
	<ellipse class="st8" cx="107.1" cy="42.7" rx="3.1" ry="1.5"/>
	<g>
		<g>
			<path class="st6" d="M52.5,59.5c2.1-3.2,5.5-5.3,9.3-5.9c0.7-0.1,1-0.9,0.9-1.5c-0.2-0.7-0.9-1-1.5-0.9
				c-4.4,0.7-8.4,3.4-10.8,7.1c-0.4,0.6-0.1,1.4,0.4,1.7C51.4,60.3,52.1,60,52.5,59.5L52.5,59.5z"/>
		</g>
	</g>
	<g>
		<g>
			<path class="st6" d="M23.3,61.9c-3.9,0.5-8-1.8-11.6-3.5s-6.4-5.4-6-9.4c0.2-2.1,1.3-4,2.3-5.8c2.1-3.6,4.3-7.4,7.8-9.8
				c1.6-1.1,3.4-1.9,5.2-2.6c7.5-3.1,15-6.3,22.4-9.4c-4.3,4.7-8.5,9.5-12.8,14.2c-2.8,3.1-5.6,6.2-7.5,9.9s-3,8-2,12"/>
		</g>
		<g>
			<defs>
				
					<ellipse id="SVGID_1_" transform="matrix(0.9959 -9.021906e-02 9.021906e-02 0.9959 -3.6106 7.9823)" cx="86.5" cy="43.9" rx="68.9" ry="33.8"/>
			</defs>
			<clipPath id="SVGID_2_">
				<use xlink:href="#SVGID_1_"  style="overflow:visible;"/>
			</clipPath>
			<g class="st9">
				<path class="st6" d="M120.5,18.4c-11.1,1.6-14.8-4.8-24.4-5S76,16.7,68.6,22.7c-4.7,3.9-8.7,7.8-14.6,9.6
					c-4.3,1.4-9.5,2.6-14,3.3c-6.7,1.1-11.8,4.1-14.4,10.2s-2.7,13.1-1.7,19.8c-5.8-3.9-10.6-9.3-13.1-15.7S8.5,36,12,30
					c2.9-4.9,7.7-8.4,12.6-11.3C50.2,3.6,82.5-1.9,110.8,7.7c3.3,1.1,6.8,2.4,10.3,3.1c2.8,0.5,5.9,0.3,8.8,0.4
					c7.6,0.3,15.1,3.9,21.6,7.7s11.4,10.8,10.9,18.2c-0.5,7.6-6.3,13.6-9.5,20.5c-1.7,3.7-2.8,7.8-5.5,10.9
					c-2.7,3.1-28.8,7.4-31.9,4.8c7.3-3.9,18.9-11.6,20.9-19.8c2.3-9.5,1.5-15.9-3.3-24.5c-2.9-5.1-7-9.5-9.6-10.8"/>
			</g>
		</g>
	</g>
</g>
</svg>
